<?xml version="1.0" encoding="utf-8"?>
<!-- Generator: Adobe Illustrator 24.1.2, SVG Export Plug-In . SVG Version: 6.00 Build 0)  -->
<svg version="1.1" id="Layer_1" xmlns:serif="http://www.serif.com/"
	 xmlns="http://www.w3.org/2000/svg" xmlns:xlink="http://www.w3.org/1999/xlink" x="0px" y="0px" viewBox="0 0 270 63.4"
	 style="enable-background:new 0 0 270 63.4;" xml:space="preserve">
<style type="text/css">
	.st0{fill:none;}
	.st1{fill-rule:evenodd;clip-rule:evenodd;fill:url(#SVGID_1_);}
	.st2{fill-rule:evenodd;clip-rule:evenodd;fill:url(#SVGID_2_);}
	.st3{fill-rule:evenodd;clip-rule:evenodd;fill:url(#SVGID_3_);}
	.st4{fill-rule:evenodd;clip-rule:evenodd;fill:url(#SVGID_4_);}
	.st5{fill-rule:evenodd;clip-rule:evenodd;fill:url(#SVGID_5_);}
	.st6{fill:#3D3D3D;}
	.st7{font-family:'Rockwell-Regular';}
	.st8{font-size:9.9223px;}
	.st9{fill:url(#SVGID_6_);}
	.st10{fill:url(#SVGID_7_);}
	.st11{fill:url(#SVGID_8_);}
	.st12{font-size:5.0977px;}
</style>
<rect id="banner" y="-15.3" class="st0" width="270" height="82.5"/>
<g>
	<g>
		
			<linearGradient id="SVGID_1_" gradientUnits="userSpaceOnUse" x1="2.267863e-06" y1="229.7879" x2="1" y2="229.7879" gradientTransform="matrix(3.759329e-15 61.3947 61.3947 -3.759329e-15 -13892.2393 3.9111)">
			<stop  offset="0" style="stop-color:#400E89"/>
			<stop  offset="1" style="stop-color:#0E8985"/>
		</linearGradient>
		<path class="st1" d="M161.1,36.2c0,0,4-2,4.6-3.2c0.7-1.2,1.9-0.5,2.6-0.9c0.7-0.4,2.5-0.7,3.2-1.4c0.7-0.8,0.5-2,1-2.4
			c0.5-0.4,1.5-0.1,2.3-0.3c0.8-0.2,3,0.2,3.7,0c0.8-0.2,2.4-0.1,2.9-0.1c0.5-0.1,1.1-1.2,2.7-2c1.6-0.8,2.6-1.7,3.4-2.3
			c0.9-0.6,2.5-1.4,3.1-1.6c0.6-0.2,0.7-1.2,1.8-2.8c1-1.6,1.9-3,2.4-3.7c0.4-0.7,1.5-2.2,2-2.2c0.4,0.1,1.8,3,2.2,4
			c0.4,1,0.7,1.7,1.2,2.2c0.5,0.5,1.5,4.7,2.5,3.9c1-0.8,1.7-2,2.2-2.7c0.5-0.6,3.1-4,5.4-5.7c2.2-1.7,2.3-1.9,3-3.1
			c0.8-1.2,1.1-1.9,1.8-2.6c0.6-0.7,1.4-2.4,2-3.5c0.6-1.1,1.8-2.7,2.4-2.8c0.6,0,1,1.2,1.6,2.1c0.6,0.9,1,1.9,1.4,2.8
			c0.4,0.8,1.5,2.8,1.9,3.4c0.4,0.6,0.1,1.6,0.5,1.9c0.5,0.4,0,2,1.2,2.4c1.2,0.4,1.5,0.5,1.7,0.8c0.2,0.3,0.6,2,1.3,2.6
			c0.7,0.6,1.7,3.5,2.6,3.5c0.9,0,2-0.8,2.7-2.5c0.6-1.7,0.7-2.2,1.4-3.2c0.7-1,2.9-3.6,3.9-3.4c1,0.2,2.7,1.7,3.4,2.6
			c0.7,0.9,1.2,1.5,1.6,0.9c0.4-0.5,1.1-0.8,1.7-0.2c0.6,0.5,2.3,3.5,4.2,4.4c1.9,0.9,1.7,1.1,3,1.2c1.3,0.1,1.9-0.3,2.2,0.2
			c0.3,0.4-0.2,0.9,0.3,1.6c0.5,0.7,1.3,1.3,2.4,1.5s1.8,0.5,2.6,0c0.8-0.5,1.2-0.4,1.9,0.6c0.7,1.1,4.8,5.3,7.1,6.9v3L161.1,36.2
			L161.1,36.2z"/>
		
			<linearGradient id="SVGID_2_" gradientUnits="userSpaceOnUse" x1="2.267858e-06" y1="228.4762" x2="1" y2="228.4762" gradientTransform="matrix(3.759329e-15 61.3947 61.3947 -3.759329e-15 -13892.2393 3.9111)">
			<stop  offset="0" style="stop-color:#400E89"/>
			<stop  offset="1" style="stop-color:#0E8985"/>
		</linearGradient>
		<rect y="53.5" class="st2" width="270" height="9.9"/>
		
			<linearGradient id="SVGID_3_" gradientUnits="userSpaceOnUse" x1="2.267856e-06" y1="228.4762" x2="1" y2="228.4762" gradientTransform="matrix(3.759329e-15 61.3947 61.3947 -3.759329e-15 -13892.2393 3.9111)">
			<stop  offset="0" style="stop-color:#400E89"/>
			<stop  offset="1" style="stop-color:#0E8985"/>
		</linearGradient>
		<rect y="44.9" class="st3" width="270" height="5.9"/>
		
			<linearGradient id="SVGID_4_" gradientUnits="userSpaceOnUse" x1="2.267853e-06" y1="228.4762" x2="1" y2="228.4762" gradientTransform="matrix(3.759329e-15 61.3947 61.3947 -3.759329e-15 -13892.2393 3.9111)">
			<stop  offset="0" style="stop-color:#400E89"/>
			<stop  offset="1" style="stop-color:#0E8985"/>
		</linearGradient>
		<rect y="39.9" class="st4" width="270" height="3.5"/>
		
			<linearGradient id="SVGID_5_" gradientUnits="userSpaceOnUse" x1="2.267863e-06" y1="228.4762" x2="1" y2="228.4762" gradientTransform="matrix(3.759329e-15 61.3947 61.3947 -3.759329e-15 -13892.2393 3.9111)">
			<stop  offset="0" style="stop-color:#400E89"/>
			<stop  offset="1" style="stop-color:#0E8985"/>
		</linearGradient>
		<rect y="36.9" class="st5" width="270" height="2"/>
		<g>
			<text transform="matrix(1 0 0 1 115.8242 23.8368)" class="st6 st7 st8">SUMMIT</text>
			<g>
				
					<linearGradient id="SVGID_6_" gradientUnits="userSpaceOnUse" x1="2.267862e-06" y1="228.7022" x2="1" y2="228.7022" gradientTransform="matrix(3.759329e-15 61.3947 61.3947 -3.759329e-15 -13892.2393 4.7432)">
					<stop  offset="0" style="stop-color:#400E89"/>
					<stop  offset="1" style="stop-color:#0E8985"/>
				</linearGradient>
				<path class="st9" d="M143.9,11.7l1.1-2.8h3.1l-1.5-4.2l1.9-4.7l5.3,14.2h-3.9l-0.9-2.5H143.9"/>
				
					<linearGradient id="SVGID_7_" gradientUnits="userSpaceOnUse" x1="2.267862e-06" y1="228.4933" x2="1" y2="228.4933" gradientTransform="matrix(3.759329e-15 61.3947 61.3947 -3.759329e-15 -13892.2393 4.7432)">
					<stop  offset="0" style="stop-color:#400E89"/>
					<stop  offset="1" style="stop-color:#0E8985"/>
				</linearGradient>
				<path class="st10" d="M140.5,14.2L146.3,0h-3.8l-3.9,9.2L135.8,0h-2.9l-3,9.2L127.7,5l-1.9,5.9l1.9,3.3h3.7l2.7-8.2l2.6,8.2
					H140.5"/>
				
					<linearGradient id="SVGID_8_" gradientUnits="userSpaceOnUse" x1="2.267862e-06" y1="228.2516" x2="1" y2="228.2516" gradientTransform="matrix(3.759329e-15 61.3947 61.3947 -3.759329e-15 -13892.2393 4.7432)">
					<stop  offset="0" style="stop-color:#400E89"/>
					<stop  offset="1" style="stop-color:#0E8985"/>
				</linearGradient>
				<path class="st11" d="M119.7,9.3h2.3c0.7,0,1.3-0.1,1.9-0.2l0.6-1.9l1.7-5.2c-0.1-0.2-0.3-0.4-0.4-0.6C125,0.5,123.7,0,122,0
					h-5.9v14.2h3.6L119.7,9.3L119.7,9.3z M122.8,3.3c0.3,0.3,0.5,0.8,0.5,1.4c0,0.6-0.1,1-0.4,1.4c-0.3,0.4-0.9,0.6-1.8,0.6h-1.4
					V2.8h1.4C121.9,2.8,122.5,2.9,122.8,3.3"/>
			</g>
			<text transform="matrix(1 0 0 1 115.8945 32.3421)" class="st6 st7 st12">6 &amp; 7 of October</text>
		</g>
	</g>
</g>
</svg>
