<?xml version="1.0" encoding="UTF-8" standalone="no"?>
<!DOCTYPE svg PUBLIC "-//W3C//DTD SVG 1.1//EN" "http://www.w3.org/Graphics/SVG/1.1/DTD/svg11.dtd">
<svg width="100%" height="100%" viewBox="0 0 1445 1445" version="1.1" xmlns="http://www.w3.org/2000/svg" xmlns:xlink="http://www.w3.org/1999/xlink" xml:space="preserve" xmlns:serif="http://www.serif.com/" style="fill-rule:evenodd;clip-rule:evenodd;stroke-linejoin:round;stroke-miterlimit:2;">
    <g transform="matrix(1,0,0,1,-15220.5,-7001.79)">
        <g transform="matrix(1,0,0,1,-0.151541,-0.600684)">
            <g transform="matrix(0.503967,0,0,0.503967,10011.9,3051.23)">
                <circle cx="11768.6" cy="9273.09" r="1432.97" style="fill:url(#_Linear1);"/>
                <clipPath id="_clip2">
                    <circle cx="11768.6" cy="9273.09" r="1432.97"/>
                </clipPath>
                <g clip-path="url(#_clip2)">
                    <g id="pwa-logo" serif:id="pwa logo" transform="matrix(1.41933,0,0,1.41933,11336.8,7935.49)">
                        <g>
                            <g transform="matrix(7.50795,0,0,7.50795,-2419.45,-9154.5)">
                                <path d="M406.767,1313.89L412.154,1300.27L427.708,1300.27L420.326,1279.61L429.558,1256.26L456,1326.47L436.5,1326.47L431.981,1313.89L406.767,1313.89" style="fill:white;fill-rule:nonzero;"/>
                            </g>
                            <g transform="matrix(7.50795,0,0,7.50795,-2419.45,-9154.49)">
                                <path d="M390.132,1326.47L418.438,1256.26L399.672,1256.26L380.308,1301.63L366.539,1256.26L352.114,1256.26L337.33,1301.63L326.903,1280.95L317.468,1310.02L327.048,1326.47L345.516,1326.47L358.876,1285.78L371.614,1326.47L390.132,1326.47" style="fill:white;fill-rule:nonzero;"/>
                            </g>
                            <g transform="matrix(7.50795,0,0,7.50795,-2419.45,-9154.5)">
                                <path d="M287.344,1302.37L298.903,1302.37C302.405,1302.37 305.523,1301.98 308.257,1301.19L311.247,1291.99L319.601,1266.25C318.965,1265.24 318.238,1264.28 317.421,1263.38C313.131,1258.63 306.855,1256.26 298.592,1256.26L269.531,1256.26L269.531,1326.47L287.344,1326.47L287.344,1302.37ZM302.645,1272.41C304.32,1274.1 305.158,1276.36 305.158,1279.18C305.158,1282.03 304.421,1284.29 302.948,1285.96C301.332,1287.82 298.358,1288.74 294.024,1288.74L287.344,1288.74L287.344,1269.88L294.073,1269.88C298.112,1269.88 300.969,1270.73 302.645,1272.41" style="fill:white;fill-rule:nonzero;"/>
                            </g>
                        </g>
                    </g>
                    <g transform="matrix(1.28133,0,0,1.28133,-1715.04,-3029.92)">
                        <rect x="9404.75" y="9227.58" width="3073.31" height="1227.49" style="fill:none;"/>
                        <clipPath id="_clip3">
                            <rect x="9404.75" y="9227.58" width="3073.31" height="1227.49"/>
                        </clipPath>
                        <g clip-path="url(#_clip3)">
                            <g id="path721" transform="matrix(1.54859,0,0,1.54859,-8646.11,-2363.92)">
                                <path d="M11656.5,7940.39L11656.5,7826.71L11665.9,7825.52L11674.8,7823.69L11700.6,7819.42L11718.5,7816.46L11746.2,7812.53L11772,7810.72L11781,7809.45L11798.5,7805.52L11799.6,7806.57L11794.1,7808.66L11794.9,7809.43L11803.8,7807.76L11807.3,7806.41L11807.3,7808.44L11804.8,7809.36L11811.7,7808.89L11820.3,7808.61L11819,7806.62L11813.2,7806.62L11813.2,7804.67L11800.8,7805.57L11817.7,7801.57L11830.6,7798.46L11843.4,7795.86L11844,7796.42L11842.7,7799.76L11834.3,7798.5L11833.1,7800.44L11844.4,7801.86L11848.4,7802.91L11857.7,7803.15L11863.8,7807.7L11865.9,7806.41L11862,7802.73L11856.4,7801.39L11854.4,7800.25L11851.4,7800.02L11846.4,7799.48L11851.4,7797.89L11846.9,7797.69L11846.9,7795.71L11854.8,7795.71L11866.3,7802.39L11873.5,7804.71L11889.7,7794.72L11890.7,7794.72L11911.3,7781.77L11918.9,7779.05L11935.5,7770.74L11952.4,7764.78L11963.5,7763.64L11966.2,7760.91L11976.4,7754.38L11979.1,7751.07L11981,7751.07L11992.4,7744.42L12002.5,7741.99L12009,7737.18L12010.6,7737.18L12019.2,7733.17L12023.5,7732.34L12023.5,7733.74L12015.6,7737.18L12013.6,7737.18L12013.6,7739.17L12009.6,7739.17L12009.6,7741.04L12014,7744.13L12009.6,7744.13L12009.6,7747.1L12007.5,7747.1L12008.7,7749.09L12005.6,7749.09L12005.6,7751.07L12008.1,7751.13L12001.7,7757.02L11998.5,7757.02L11999.6,7754.24L11996.2,7754.89L11994.1,7755.04L11991.5,7760.49L11990.8,7765.95L11992.8,7765.95L11992.8,7763.97L11995.4,7763.97L11999.6,7760.49L12007.1,7754.54L12012,7749.09L12016.1,7749.06L12013.1,7747.13L12015.5,7747.1L12014.7,7742.98L12013.5,7739.17L12016.6,7739.17L12016.6,7737.68L12021.5,7735.39L12021.5,7736.91L12030,7736.9L12026,7735.41L12029,7734.37L12034.6,7733.13L12033.5,7730.24L12035.5,7730.24L12034.3,7728.26L12031.3,7728.26L12032.6,7730.24L12030.5,7730.24L12029,7730.44L12025,7732.49L12026,7731.45L12035.6,7724.18L12040.6,7722.25L12044.2,7723.38L12045.4,7719.46L12051.1,7715.86L12059.7,7708.58L12062.6,7707.92L12067.6,7703.46L12068.9,7703.46L12087.5,7692.13L12089.2,7689.33L12090.7,7691.81L12093,7690.39L12091.8,7686.58L12094.9,7685.39L12094.9,7682.87L12097.9,7680.4L12097.9,7682.62L12100,7682.62L12098.9,7678.94L12121.9,7657.33L12125.2,7655.52L12130.9,7650.78L12133.5,7651.77L12132.5,7649.08L12136.4,7647.84L12141.1,7643.33L12164.9,7629.23L12174.8,7625.34L12178.8,7623.72L12171.4,7630.67L12166.4,7632.98L12166.4,7635.32L12170,7632.03L12171.6,7632.03L12178.3,7626.96L12182.2,7626.2L12188.7,7622.61L12189.7,7621.41L12197.6,7618.9L12202.6,7614.47L12205.5,7613.11L12210.2,7610.42L12212.5,7605.75L12225.8,7598.88L12225,7598.11L12216.4,7602.52L12213,7604.26L12211.9,7604.26L12213.3,7601.78L12206.5,7607.73L12202.1,7610.21L12199.9,7610.21L12209.5,7602.64L12220.3,7595.25L12222.9,7596.25L12222.4,7594.05L12233.3,7588.25L12236.4,7585.41L12237.7,7586.7L12234.3,7589.41L12239.8,7587.08L12239.8,7585.58L12237.3,7584.44L12241.7,7585.55L12241.7,7583.45L12245.2,7579.46L12247.5,7579.46L12250,7576.39L12252.8,7577.45L12251.3,7575.15L12254.5,7576.38L12253.5,7573.8L12263.1,7569.45L12273.6,7562.86L12277.9,7558.86L12300.8,7543.73L12305.2,7540.67L12307.3,7541.91L12306.7,7539.61L12312.7,7536.28L12326.6,7526.94L12338.5,7518.6L12354.3,7509.14L12386.1,7493.1L12394,7492L12391.1,7494.04L12392.6,7495.51L12395,7493.06L12395,7490.76L12403.6,7488.28L12423.5,7486.09L12434.7,7485.2L12454.5,7487.34L12470.4,7493.03L12491.2,7502.43L12505.1,7510.78L12534.2,7524.9L12536.4,7524.9L12536.4,7526.88L12537.8,7526.57L12541.8,7528.09L12582.5,7548.01L12601.3,7557.48L12618.2,7566.5L12630.1,7572.77L12631.1,7574.15L12648.9,7581.4L12658.9,7586.34L12661.5,7586.4L12660,7588.69L12662.4,7587.26L12673.5,7591.43L12682.7,7595.53L12694.6,7601.11L12706.5,7605.12L12729.3,7613.38L12754.1,7621.87L12773.9,7629.86L12816.6,7646.71L12833.5,7652.05L12839.4,7654.61L12852.9,7659L12879.1,7670.51L12920.7,7688.68L12934.6,7694.42L12963.4,7706.33L13000.1,7719.47L13016,7724.42L13054.7,7737.1L13072.5,7742.36L13088.4,7746.89L13113.2,7754.24L13176,8054.61L13176,8217.69L11639.1,8217.69L11639.1,7940.39L11656.5,7940.39ZM12370.7,7940.39L12370.7,7939.54L12368.7,7939.54L12368.7,7940.39L12370.7,7940.39ZM12426.2,7940.39L12427.5,7940.39L12426.2,7939.15L12426.2,7940.39ZM12488.7,7938.59L12490.2,7937.67L12489,7936.52L12485.8,7937.77L12485.8,7939.54L12487.3,7939.51L12488.7,7938.59ZM12413.4,7938.55L12413.4,7936.57L12410.4,7936.57L12410.4,7938.55L12413.4,7938.55ZM12406.2,7934.57L12406.1,7931.57L12402.4,7932.73L12402.4,7930.62L12400.5,7930.62L12400.5,7935.27L12404.9,7937.43L12406.3,7937.56L12406.2,7934.57ZM12382.6,7934.59L12382.6,7933.71L12380.6,7932.48L12380.6,7934.59L12382.6,7934.59ZM12415.3,7932.6L12415.3,7930.62L12413.4,7930.62L12413.4,7932.6L12415.3,7932.6ZM12409.7,7931.11L12410.3,7929.62L12407.4,7929.62L12407.4,7932.6L12409.2,7932.6L12409.7,7931.11ZM12372.8,7931.61L12371.6,7929.62L12369.6,7929.62L12370.8,7931.61L12372.8,7931.61ZM12398.5,7929.62L12398.5,7927.64L12396.5,7927.64L12396.5,7929.62L12398.5,7929.62ZM12480.8,7928.63L12480.8,7926.65L12478.8,7926.65L12478.8,7928.63L12480.8,7928.63ZM12248.8,7919.7L12247.6,7917.72L12245.6,7917.72L12246.8,7919.7L12248.8,7919.7ZM12334.4,7917.69L12333.3,7916.66L12327.5,7915.83L12333.5,7918.62L12335.4,7918.71L12334.4,7917.69ZM12343.9,7917.72L12343.9,7916.85L12341.9,7915.62L12341.9,7917.72L12343.9,7917.72ZM12486.9,7916.73L12485.6,7914.74L12483.7,7914.74L12484.9,7916.73L12486.9,7916.73ZM12327.1,7914.74L12327.1,7912.76L12325.1,7912.76L12325.1,7914.74L12327.1,7914.74ZM12646.5,7914.74L12646.5,7911.77L12644.5,7911.77L12645.7,7914.74L12646.5,7914.74ZM12642.9,7912.73L12640.5,7910.38L12640.5,7912.43L12641.8,7913.75L12642.9,7912.73ZM12317.3,7909.96L12318.9,7909.29L12317.1,7904.62L12314.4,7905.67L12308.8,7899.86L12304.2,7899.86L12299.9,7897.39L12294.4,7891.93L12293.1,7891.93L12294.3,7894.9L12291.3,7894.9L12291.3,7893.32L12284.4,7894.13L12283.2,7898.64L12275.9,7898.74L12273,7896.74L12275.5,7895.73L12275.5,7892.68L12272.8,7894.91L12267.4,7889.95L12266.2,7889.95L12270.2,7894.41L12271.4,7897.76L12268.3,7898.38L12257.1,7897.63L12261.1,7896.12L12246.7,7896.94L12242.4,7892.92L12238.2,7892.92L12236,7895.14L12233.3,7890.94L12227.6,7890.94L12230.1,7893.91L12224.1,7892.72L12222.9,7894.72L12232.8,7894.79L12236.2,7896.68L12239.6,7894.53L12247.3,7898.02L12256.6,7898.38L12256.6,7899.43L12262.5,7901.63L12263.7,7900.4L12277.7,7901.05L12284.3,7903.83L12290.3,7903.83L12290.4,7906.31L12291.8,7904.18L12295.3,7902.9L12295.3,7905.34L12299.8,7908.29L12304.2,7909.61L12305.5,7907.58L12303,7906.06L12310.7,7905.1L12313.1,7907.03L12316,7905.94L12317,7908.73L12315.5,7909.68L12310,7906.81L12307.2,7906.81L12307.2,7908.51L12313.7,7910.57L12315.6,7910.64L12317.3,7909.96ZM12236.3,7905.82L12235.7,7904.82L12233.3,7904.86L12236.3,7906.78L12236.9,7906.81L12236.3,7905.82ZM12233.9,7900.61L12234.6,7898.01L12233.5,7896.89L12229.3,7897.05L12231.7,7898.02L12230.5,7904.1L12233.2,7903.21L12233.9,7900.61ZM12229.7,7900.11L12229.3,7898.38L12221.4,7897.75L12219.5,7895.9L12217.4,7895.91L12223.4,7899.85L12226.9,7899.87L12226.9,7901.85L12230,7901.85L12229.7,7900.11L12229.7,7900.11ZM12290.9,7897.42L12292.8,7895.96L12294.3,7895.9L12294.3,7898.87L12289,7898.87L12290.9,7897.42ZM12282.4,7897.88L12282.4,7894.03L12280.7,7892.98L12279.7,7894.03L12280.7,7897.88L12282.4,7897.88ZM12523.5,7896.89L12523.5,7893.13L12520.3,7891.91L12521.5,7895.07L12521.5,7896.89L12523.5,7896.89ZM12267.2,7893.73L12266.7,7892.43L12266.5,7896.23L12267.7,7895.03L12267.2,7893.73ZM12278.4,7894.9L12278.4,7892.92L12276.5,7892.92L12276.5,7894.9L12278.4,7894.9ZM12214.7,7893.55L12215.5,7892.19L12219.9,7890.8L12219.9,7892.76L12217.4,7893.76L12221.9,7893.91L12221.9,7891.15L12219.3,7890.15L12214,7891.17L12214,7888.74L12211.2,7889.8L12207,7886.86L12205,7888.08L12205,7885.98L12202,7885.98L12202.6,7882.71L12200.1,7881.84L12201.3,7884.99L12196.6,7884.85L12192.6,7883.22L12196.1,7881.8L12196.1,7880.03L12190.9,7880.03L12193.5,7876.9L12186.7,7877.86L12185.7,7878.29L12174.8,7877.84L12176,7879.09L12187.5,7883.12L12188.9,7880.79L12192.4,7882.71L12185.8,7884.02L12182.2,7887.28L12182.2,7888.95L12185.3,7888.95L12186.2,7886.47L12196.2,7886.17L12193.6,7889.32L12197.1,7888.02L12202.5,7890.06L12199.6,7892.09L12205,7891.22L12204,7892.8L12212.5,7894.69L12213.9,7894.9L12214.7,7893.55ZM12304.7,7892.86L12300.9,7889.95L12299.3,7889.95L12299.3,7891.78L12302.7,7892.69L12304.7,7892.86ZM12291.3,7887.61L12291.2,7885.48L12290.1,7888.46L12288.1,7890.98L12291.3,7889.73L12291.3,7887.61ZM11871.5,7890.94L11874,7887.92L11870.7,7889.17L11870.7,7890.94L11871.5,7890.94ZM12283.4,7890.94L12283.4,7887.72L12280.4,7890.19L12280.4,7890.94L12283.4,7890.94ZM11877.6,7888.95L11878.9,7886.84L11878,7885.93L11875.5,7888.95L11877.6,7888.95ZM12248.1,7887.34L12248.9,7884.98L12245.7,7886.19L12245.7,7888.13L12248.1,7887.34ZM12216.8,7887.96L12218.1,7885.98L12215,7885.98L12215,7887.96L12216.8,7887.96ZM12209.5,7885.65L12207.5,7884.32L12204,7883.06L12204,7884.6L12209.5,7886.76L12211.4,7886.97L12209.5,7885.65ZM12069,7866.17L12071.6,7866.2L12075.1,7868.84L12075.1,7870.11L12068.6,7870.23L12073.6,7872.32L12071.1,7873.25L12071.1,7874.93L12077.1,7873.22L12077.1,7875L12088,7874.72L12090.4,7877.05L12093,7877.05L12092.4,7873.58L12096.9,7873.31L12092.9,7874.21L12095.5,7876.76L12100.4,7876.55L12102,7874.57L12103,7877.05L12105.8,7877.05L12105.8,7875.33L12116.5,7875.58L12119.8,7878.37L12121,7874.03L12123.6,7876.24L12132.1,7876.7L12131.6,7880.69L12134.4,7880.69L12133.5,7878.19L12142.2,7878.78L12146,7880.75L12148.5,7879.86L12148.5,7882.05L12153.4,7880.82L12156.8,7884.26L12157.6,7882.01L12163.4,7882.01L12163.4,7883.81L12167.3,7882.77L12167.3,7884.81L12177.8,7883.9L12174.8,7885.95L12177,7885.98L12180.1,7885.36L12183.2,7884.74L12183.2,7883.14L12167.5,7881.77L12168.7,7878.72L12162.6,7879.94L12155.4,7878.77L12155.4,7877.05L12159,7877.05L12161.4,7874.67L12161.4,7877.05L12164.1,7877.05L12163.1,7871.59L12164.9,7873.25L12164.9,7875.42L12170.8,7877.23L12175.6,7877.04L12176.5,7876.15L12173.3,7872.95L12171.3,7874.19L12171.3,7871.88L12168.2,7873.09L12167.1,7869.11L12165.2,7869.11L12162.6,7866.46L12164.1,7863.9L12163.6,7857.63L12168.8,7857.34L12164.9,7858.98L12167.8,7860.02L12182.2,7861.06L12183.4,7859.15L12177.8,7859.44L12169.7,7856.43L12157.9,7854.01L12150.3,7850.13L12151.4,7849L12160.2,7851.47L12162.9,7850.42L12159.3,7850.27L12160.5,7848.28L12157.4,7848.28L12157.9,7845.82L12152.7,7846.4L12150.3,7840.42L12147.3,7843.42L12148.5,7844.63L12146.4,7847.14L12136.5,7846.24L12134.5,7847.49L12137.8,7851.13L12136.2,7853.74L12139.5,7851.03L12138.5,7849.28L12143.4,7849.28L12146.4,7852.25L12148.5,7852.25L12148.5,7854.24L12152,7854.27L12149.3,7855.93L12152.6,7859.19L12153.5,7859.19L12153,7856.71L12158.9,7856.08L12155.1,7858.89L12156.6,7861.27L12154.5,7863.84L12159.9,7866.48L12154,7867.89L12156.9,7868.36L12158.6,7868.05L12162.9,7869.53L12155.9,7870.6L12139.6,7869.61L12139.6,7871.1L12143,7871.16L12139.4,7873.29L12133.6,7872.14L12128.4,7874.12L12121.2,7871.69L12119.3,7870.11L12108.9,7870.11L12107.7,7872.09L12105.3,7872.03L12109.2,7869.14L12108,7867.99L12100.9,7869.34L12100.9,7870.88L12103.7,7870.6L12103.8,7872.59L12098.2,7872.12L12092.4,7869.13L12087,7869.11L12087,7867.57L12081.5,7865.56L12078.2,7866.26L12077.6,7869.29L12072.7,7865.06L12069.1,7865.64L12069,7866.17ZM12246.1,7883.38L12246.7,7881.78L12240.7,7882.66L12240.7,7881.02L12235.3,7881.05L12232.3,7882.97L12238.3,7883.14L12242.2,7884.85L12245.5,7884.99L12246.1,7883.38ZM12282.4,7884.99L12282.4,7883.12L12280.3,7881.81L12279.2,7882.87L12280.5,7884.99L12282.4,7884.99ZM12277.8,7882.52L12278.3,7881.2L12273.2,7879.93L12272.2,7881.02L12275.7,7881.02L12273.5,7883.68L12274.7,7884.85L12277.3,7883.84L12277.8,7882.52ZM11898.2,7882.4L11897.6,7881.8L11895,7882.85L11898.8,7883L11898.2,7882.4ZM12209.7,7882.4L12209.1,7881.8L12206.5,7882.85L12210.3,7883L12209.7,7882.4ZM12267.8,7880.16L12268.3,7878.31L12260.6,7878.31L12260.6,7880.03L12266.7,7880.03L12265.4,7882.01L12267.3,7882.01L12267.8,7880.16ZM12129.6,7881.02L12129.6,7879.15L12127.7,7877.93L12127.7,7881.02L12129.6,7881.02ZM12231.8,7880.03L12234.3,7879.23L12227.9,7879.03L12227.9,7877.05L12234.7,7877.05L12235.9,7879.03L12240.7,7879.03L12240.7,7877.19L12237.6,7874.07L12235.3,7874.04L12238.3,7872.12L12234,7872.09L12231.6,7869.11L12227.9,7869.11L12227.9,7866.14L12229.8,7866.14L12229.8,7863.38L12226.9,7862.23L12226.9,7866.14L12225.3,7866.14L12222.9,7863.76L12222.9,7866.77L12231,7871.3L12230.2,7872.04L12206.5,7872.88L12200.1,7874.32L12200.1,7870.96L12203.6,7872.05L12206.5,7870.14L12196.6,7870.3L12191.6,7871.89L12196.5,7872.09L12200.1,7875.36L12214.5,7876.7L12216.9,7873.58L12216.9,7875.66L12223.5,7878.04L12227.4,7878.2L12224.9,7879.2L12226,7881.02L12229.3,7880.82L12231.8,7880.03ZM12219.9,7880.03L12219.9,7878.04L12217.9,7878.04L12217.9,7880.03L12219.9,7880.03ZM11830.7,7876.31L11830.2,7875.86L11828.1,7877.17L11828.1,7879.28L11831.1,7876.77L11830.7,7876.31ZM12257.6,7877.55L12256.4,7876.06L12252.8,7876.06L12251.5,7874.07L12246.2,7874L12241.3,7871.31L12238.8,7872.3L12238.8,7873.59L12244.2,7875.81L12257.1,7878.87L12258.8,7879.03L12257.6,7877.55ZM12085.4,7876.55L12084.8,7875.07L12083.1,7875.07L12084.2,7878.04L12085.9,7878.04L12085.4,7876.55ZM12070.2,7877.05L12069,7875.07L12067,7875.07L12068.3,7877.05L12070.2,7877.05ZM12226.9,7876.86L12226.9,7875.28L12230,7874.07L12230.8,7874.07L12230.8,7875.83L12226.9,7876.86ZM12141.7,7876.06L12140.4,7874.07L12145.6,7874.07L12144.4,7876.06L12141.7,7876.06ZM12183.2,7875.07L12183.2,7873.31L12179.1,7872.25L12181.5,7875.07L12183.2,7875.07ZM12078.5,7873.03L12077.9,7871.96L12079.1,7870.73L12081.2,7872.86L12079.2,7874.11L12078.5,7873.03ZM12153,7873.8L12148.5,7872.94L12148.5,7870.89L12151.6,7872.09L12156.4,7872.09L12156.4,7874.07L12153,7873.8ZM12114.3,7873.12L12112.3,7872.4L12117.7,7871.37L12117.7,7872.97L12116.3,7873.83L12114.3,7873.12ZM12540.3,7871.97L12540.3,7870.11L12537.4,7870.11L12537.4,7871.76L12538.6,7873.03L12540.3,7871.97ZM12254.5,7872.09L12255.7,7870.11L12252.8,7870.11L12251.5,7872.09L12254.5,7872.09ZM12067.2,7871.18L12067.2,7869.11L12063.4,7869.11L12062.7,7867.45L12056.3,7866.21L12057.4,7868.94L12054.8,7869.82L12058.2,7869.3L12059.1,7870.7L12067.2,7871.18ZM12173,7870.77L12172.8,7867.63L12178.9,7867.03L12184.3,7869.11L12183.1,7871.1L12186,7871.1L12186.8,7868.67L12195.6,7868.96L12187.2,7867.5L12185.9,7866.14L12188.2,7866.14L12188.2,7863.38L12191.4,7862.12L12195,7865.39L12198.4,7864.09L12194.6,7861.46L12185.2,7860.43L12185.2,7861.77L12187.5,7864.12L12186.4,7865.3L12174.2,7865.86L12173.1,7864.06L12169.3,7868.43L12169.3,7869.78L12170.3,7870.77L12173,7870.77ZM12137.6,7871.1L12137.6,7869.11L12135.5,7869.11L12136.7,7871.1L12137.6,7871.1ZM12572.1,7870.11L12572.1,7868.12L12570.1,7868.12L12570.1,7870.11L12572.1,7870.11ZM12098.9,7870.11L12098.9,7868.12L12095.9,7868.12L12095.9,7870.11L12098.9,7870.11ZM12215.9,7870.11L12215.9,7868.12L12214,7868.12L12214,7870.11L12215.9,7870.11ZM12081.1,7867.54L12081.2,7865.64L12082.2,7868.25L12081,7869.45L12081.1,7867.54ZM12051,7868.52L12050.4,7867.92L12047.8,7868.96L12051.6,7869.11L12051,7868.52ZM12069,7866.44L12069,7867.58L12071.6,7868.27L12069,7866.44L12069,7866.17L12068.6,7866.17L12069,7866.44ZM12169.3,7868.12L12169.3,7866.46L12164.4,7864.2L12164.4,7865.42L12167.8,7868.06L12169.3,7868.12ZM12145,7867.97L12142.5,7866.97L12140.1,7867.97L12145,7867.97ZM11993.6,7867.13L11994.9,7865.02L11993.8,7863.91L11990.6,7865.13L11991.9,7867.13L11993.6,7867.13ZM12044.7,7866.35L12045.2,7865.57L12039.9,7865.17L12042.8,7867.1L12044.2,7867.13L12044.7,7866.35ZM12564.1,7867.13L12564.1,7864.15L12561.1,7864.15L12563.6,7867.06L12564.1,7867.13ZM12212.6,7863.58L12213.2,7860.09L12212.1,7858.95L12208.5,7860.49L12212,7861.32L12212,7863.94L12206.9,7865.21L12205.1,7864.09L12200.1,7865.36L12200.1,7866.64L12211.9,7867.07L12212.6,7863.58ZM12220.4,7865.95L12218.4,7864.82L12217.2,7862.91L12214.7,7864.44L12220.4,7866.97L12222.4,7867.07L12220.4,7865.95ZM12148.2,7864.48L12148.6,7865.15L12151.5,7865.15L12151.5,7863.23L12148.2,7864.48ZM12541.3,7865.15L12541.3,7863.28L12539.2,7861.97L12538.1,7863.03L12539.5,7865.15L12541.3,7865.15ZM12159.4,7865.15L12159.4,7862.05L12161.4,7863.28L12161.4,7865.15L12159.4,7865.15ZM12148.2,7864.44L12149.6,7860.68L12147.3,7862.99L12148.2,7864.44L12148.1,7864.5L12148.2,7864.48L12148.2,7864.44ZM12485.6,7864.15L12486.9,7862.17L12483.7,7862.17L12484.9,7864.15L12485.6,7864.15ZM12142.7,7862.44L12139.4,7862.03L12140.5,7859.19L12137.6,7859.19L12137.6,7861.18L12134.1,7861.32L12138.1,7863.02L12146,7862.85L12142.7,7862.44ZM12523.7,7860.28L12524.2,7858.39L12519.5,7857.49L12519.4,7859.69L12517.5,7855.1L12515.5,7856.36L12516.5,7858.02L12512.3,7856.92L12514.6,7861.18L12515.6,7861.18L12514.4,7859.19L12517,7859.26L12520.9,7862.17L12523.2,7862.17L12523.7,7860.28ZM12529.8,7859.79L12529.2,7858.12L12527.1,7858.82L12526.3,7861.01L12529.9,7861.81L12530.5,7861.46L12529.8,7859.79ZM11902.5,7857.92L11902.5,7856.15L11898.6,7858.2L11893.6,7858.2L11893.6,7860.21L11902.5,7859.69L11902.5,7857.92ZM12129.4,7859.59L12128.8,7858.99L12126.2,7860.03L12130,7860.19L12129.4,7859.59ZM12048.8,7857.67L12051.8,7856.94L12053.8,7855.45L12064,7854.07L12065,7857.71L12066.3,7853.43L12070.1,7852.44L12070.1,7855.02L12072.9,7856.09L12076.4,7852.29L12083,7851.04L12083,7849.41L12088,7850.31L12088,7847.29L12090.1,7847.29L12094.2,7849.48L12095.9,7846.8L12097.5,7849.15L12107.3,7846.11L12110.3,7845.08L12107.7,7844.12L12110.1,7841.34L12115.6,7841.34L12116.7,7839.62L12124.8,7838.33L12125.9,7835.39L12130,7835.39L12127.9,7833.22L12123.6,7835.52L12118.1,7834.31L12115.5,7837.42L12111.8,7836.25L12111.8,7838.2L12101.8,7841.52L12098.9,7840.41L12098.9,7843.32L12096.9,7843.32L12096.9,7839.36L12094.1,7839.36L12092.8,7841.34L12094.9,7841.34L12094.9,7844.32L12089.1,7844.32L12085.7,7845.62L12086.7,7842.83L12089.8,7843.08L12088.8,7840.55L12082.5,7839.59L12080.8,7840.63L12085.5,7844.44L12081,7843.19L12081,7845.08L12085.5,7846.55L12081,7847.43L12081,7848.78L12070.6,7849.07L12059.5,7851.11L12054.8,7850.52L12047,7849L12048.6,7851.55L12043.5,7850.27L12037.3,7853.74L12038.1,7858.14L12036.6,7857.22L12035.6,7859.83L12045.8,7858.4L12048.8,7857.67ZM12205.4,7858.45L12205.8,7857.71L12203.2,7855.25L12201.9,7857.21L12204.5,7857.35L12200.6,7859.06L12204.9,7859.19L12205.4,7858.45ZM11842.7,7857.6L11842.1,7857L11839.5,7858.05L11843.3,7858.2L11842.7,7857.6ZM12182,7856.53L12180.2,7856.07L12180.2,7853.43L12187.7,7853.99L12184.2,7853.1L12185.2,7851.48L12179.2,7850.61L12179.2,7857.21L12183.7,7856.98L12182,7856.53ZM12061.2,7857.21L12061.2,7855.23L12060.3,7855.23L12059.1,7857.21L12061.2,7857.21ZM12143.5,7856.01L12143.5,7855.23L12140.6,7855.23L12140.6,7857.15L12143.5,7856.01ZM11918.2,7856.22L11919.5,7854.1L11918.6,7853.19L11916.1,7856.22L11918.2,7856.22ZM12069.1,7856.22L12069.1,7854.24L12068.3,7854.24L12067,7856.22L12069.1,7856.22ZM12535.4,7856.22L12535.4,7854.24L12530.9,7854.27L12533.9,7856.19L12535.4,7856.22ZM12172.3,7855.23L12172.3,7853.24L12170.3,7853.24L12170.3,7855.23L12172.3,7855.23ZM12095.9,7855.23L12095.9,7854.35L12093.9,7853.13L12093.9,7855.23L12095.9,7855.23ZM12177,7852.99L12176.8,7850.76L12172.8,7849.47L12164,7849.28L12165.1,7850.34L12172.8,7851.15L12175.5,7851.26L12174.4,7854.04L12175.6,7855.23L12177.2,7855.23L12177,7852.99ZM12501.6,7854.24L12501.6,7852.25L12500.8,7852.25L12499.5,7854.24L12501.6,7854.24ZM12527.4,7851.26L12527.4,7849L12530.9,7846.46L12529.6,7845.14L12525.4,7849.28L12525.4,7851.26L12527.4,7851.26ZM11927,7850.66L11926.4,7850.06L11923.8,7851.1L11927.6,7851.26L11927,7850.66ZM12508.6,7850.27L12508.6,7848.28L12506.6,7848.28L12506.6,7850.27L12508.6,7850.27ZM12057.2,7850.27L12057.2,7848.28L12055.1,7848.28L12056.4,7850.27L12057.2,7850.27ZM12061.2,7848.28L12061.2,7846.3L12059.3,7846.3L12058.1,7848.28L12061.2,7848.28ZM12268.9,7848.28L12266.5,7845.9L12264.2,7848.28L12268.9,7848.28ZM12121.1,7846.2L12131.6,7847.52L12132.9,7844.2L12135.3,7845.12L12138.1,7843.18L12131.5,7843.99L12130.6,7842.53L12135.4,7837.92L12134.5,7836.38L12131.5,7836.38L12131.9,7838.86L12131.6,7841.34L12128.4,7841.34L12131,7844.47L12128.2,7846.19L12125.7,7844.09L12116.8,7845.43L12116.8,7843.55L12125.7,7842.21L12125.7,7840.62L12121.2,7841.09L12120.2,7841.55L12117.2,7841.84L12112.4,7845.28L12116.2,7848.07L12121.1,7846.2ZM12505.4,7844.56L12505.7,7842.49L12501.9,7843.49L12502.9,7847.37L12505.1,7846.64L12505.4,7844.56ZM11787.9,7847.14L11785.4,7846.13L11783,7847.14L11787.9,7847.14ZM12056.2,7846.3L12056.2,7845.52L12053.3,7844.38L12053.3,7846.3L12056.2,7846.3ZM12518.4,7846.3L12519.6,7844.32L12517.5,7844.32L12517.5,7846.3L12518.4,7846.3ZM11858.3,7840.4L11861.2,7837.39L11860.2,7836.37L11853.7,7839.59L11854.6,7843.18L11851.9,7842.12L11851.9,7844.32L11848.8,7844.32L11849.9,7846.14L11855.4,7843.4L11858.3,7840.4ZM12440.9,7845.31L12442,7842.5L12439,7841.34L12437.1,7841.34L12439.2,7845.31L12440.9,7845.31ZM12111.7,7844.32L12112.9,7842.33L12110.8,7842.33L12110.8,7844.32L12111.7,7844.32ZM12162.7,7843.62L12160.5,7843.2L12161.6,7840.35L12157.8,7840.35L12155.1,7837.87L12156.4,7841.34L12153.2,7841.34L12155.7,7844.32L12164.9,7844.05L12162.7,7843.62ZM12143.4,7844.32L12144.6,7842.33L12141.6,7842.33L12141.6,7844.32L12143.4,7844.32ZM11859.8,7844.32L11859.8,7842.33L11858,7842.33L11856.7,7844.32L11859.8,7844.32ZM12051,7843.72L12050.4,7843.12L12047.8,7844.16L12051.6,7844.32L12051,7843.72ZM12053.3,7842.33L12053.3,7840.51L12050.8,7839.68L12053.3,7836.61L12050.5,7835.52L12049.3,7836.71L12049.3,7839.95L12051.7,7842.33L12053.3,7842.33ZM12208.5,7841.34L12209.1,7840.35L12204.5,7840.38L12201.6,7842.3L12207.9,7842.33L12208.5,7841.34ZM11702.8,7841.73L11702.2,7841.13L11699.6,7842.18L11703.4,7842.33L11702.8,7841.73ZM12517.9,7837.74L12518.6,7835.62L12515.5,7834.46L12515.4,7835.88L12515,7842.26L12517.3,7839.85L12517.9,7837.74ZM11706.6,7840.35L11707.2,7839.36L11704.1,7839.36L11704.1,7841.34L11706,7841.34L11706.6,7840.35ZM12486.8,7841.34L12486.8,7839.36L12484.8,7839.36L12484.8,7841.34L12486.8,7841.34ZM12174.3,7840.14L12174.3,7839.36L12170.2,7839.36L12171.4,7841.25L12174.3,7840.14ZM12232.8,7839.36L12232.8,7837.37L12229.8,7837.37L12229.8,7839.36L12232.8,7839.36ZM12890.5,7839.36L12890.5,7837.37L12888,7837.14L12886.4,7837.43L12885.4,7833.65L12880.8,7831.19L12878.5,7832.57L12884,7838.16L12888,7839.12L12890.5,7839.36ZM12503.7,7837.62L12503.8,7836.88L12504.4,7833.53L12500.6,7830.12L12500.6,7832.41L12497.6,7832.41L12498.8,7834.4L12503.1,7834.43L12500.4,7836.16L12501.8,7838.36L12503.6,7838.36L12503.7,7837.62ZM11872.7,7834.89L11871.5,7833.4L11874,7833.4L11873,7832.36L11869.8,7833.58L11872.2,7836.3L11874,7836.38L11872.7,7834.89ZM12494.7,7836.38L12494.7,7835.51L12492.7,7834.28L12492.7,7836.38L12494.7,7836.38ZM11865.8,7835.14L11865.8,7834.4L11861.8,7834.4L11861.8,7836.11L11865.8,7835.88L11865.8,7835.14ZM12488.7,7834.4L12488.7,7830.43L12486.8,7830.43L12486.8,7834.4L12488.7,7834.4ZM12142.4,7831.19L12146.8,7828.92L12147.3,7825.47L12144.3,7825.47L12143.3,7829.45L12137.1,7832.31L12130.1,7834.39L12138,7833.46L12142.4,7831.19ZM12506.6,7831.3L12506.6,7829.32L12504.6,7830.55L12504.6,7832.53L12506.6,7831.3ZM12509.5,7832.41L12510.7,7830.43L12508.6,7830.43L12508.6,7832.41L12509.5,7832.41ZM11873.6,7830.43L11874.8,7828.44L11872.7,7828.44L11872.7,7830.43L11873.6,7830.43ZM11878.7,7830.43L11878.7,7827.45L11876.7,7827.45L11876.7,7830.43L11878.7,7830.43ZM12504.6,7827.45L12503.1,7826.49L12500.5,7826.46L12501.8,7828.44L12506.1,7828.41L12504.6,7827.45ZM11883.8,7828.44L11886.9,7825.29L11882.3,7825.96L11881.5,7828.44L11883.8,7828.44ZM13046.2,7828.44L13046.2,7826.46L13044.1,7826.46L13045.4,7828.44L13046.2,7828.44ZM12123.2,7827.3L12120.7,7826.29L12118.2,7827.3L12123.2,7827.3ZM12494.7,7826.46L12494.7,7824.48L12492.7,7824.48L12492.7,7826.46L12494.7,7826.46ZM11850.8,7825.47L11852,7823.48L11849.9,7823.48L11849.9,7825.47L11850.8,7825.47ZM12486.8,7824.48L12486.8,7822.49L12482.8,7822.49L12482.8,7824.48L12486.8,7824.48ZM13041.4,7823.48L13040.2,7821.5L13038.2,7821.5L13039.4,7823.48L13041.4,7823.48ZM12473.9,7822.49L12473.9,7821.62L12471.9,7820.39L12471.9,7822.49L12473.9,7822.49ZM12496.1,7818.87L12497.4,7819.36L12496.9,7813.07L12495.2,7813.45L12493.9,7818.03L12493.9,7822L12494.9,7818.38L12496.1,7818.87ZM12078.5,7817.48L12077.9,7816.54L12080,7816.29L12082,7815.8L12084,7815.55L12084,7813.17L12081.8,7815.39L12079.3,7814.43L12074.8,7820.74L12079.1,7818.42L12078.5,7817.48ZM12487,7818.99L12487.1,7818.03L12483.8,7817.39L12485,7820.59L12486.9,7819.96L12487,7818.99ZM12477.8,7819.52L12477.8,7817.89L12484.3,7814.68L12480.8,7814.56L12480.8,7812.71L12477.7,7809.6L12474.9,7809.6L12474.9,7813.4L12472.4,7814.48L12477.7,7813.38L12480.1,7814.88L12474.4,7819.51L12477.8,7819.52ZM11880.7,7818.31L11880.7,7816.33L11877.5,7817.53L11876.6,7817.53L11877.7,7819.43L11880.7,7818.31ZM11874.7,7818.52L11874.7,7817.65L11872.7,7816.42L11872.7,7818.52L11874.7,7818.52ZM11928.3,7817.53L11928.3,7815.55L11926.4,7815.55L11925.2,7817.53L11928.3,7817.53ZM12490.2,7816.55L12490.8,7815.56L12488.6,7812.08L12489.6,7815.31L12487.4,7817.53L12489.6,7817.53L12490.2,7816.55ZM12518.5,7816.54L12518.5,7814.56L12516.5,7814.56L12516.5,7816.54L12518.5,7816.54ZM12177,7814.75L12175.3,7814.41L12176.7,7812.08L12176.8,7810.09L12184.2,7810.09L12184.2,7807.61L12182.7,7807.66L12174.8,7809.49L12173.5,7807.27L12168.3,7810.63L12168.5,7813.07L12169.5,7810.59L12174.3,7810.59L12174.3,7812.78L12171.3,7811.64L12171.3,7814.17L12176.8,7816.21L12178.8,7815.1L12177,7814.75ZM12462.1,7815L12462,7813.56L12460.5,7813.41L12459.7,7815.8L12462.1,7815ZM11956.9,7815.55L11958.2,7813.56L11955.2,7813.56L11954,7815.55L11956.9,7815.55ZM11909.9,7814.57L11910.5,7813.59L11907.4,7814.77L11907.4,7815.55L11909.3,7815.55L11909.9,7814.57ZM11775.5,7815.55L11775.5,7812.45L11773.5,7813.7L11774.6,7815.55L11775.5,7815.55ZM12160.5,7815.55L12159.3,7813.56L12161.4,7813.56L12161.4,7815.55L12160.5,7815.55ZM12455.4,7813.07L12455.9,7811.58L12453,7811.58L12453,7814.56L12454.8,7814.56L12455.4,7813.07ZM12002.2,7810.37L12003.2,7809.3L11999.4,7810.65L11998.1,7808.68L11995.6,7812.83L12001.2,7811.44L12002.2,7810.37ZM12193.5,7808.29L12192,7807.43L12187.2,7808.64L12187.2,7810.59L12190.2,7810.59L12190.2,7808.6L12192.1,7808.6L12190.9,7811.78L12195.1,7809.15L12193.5,7808.29ZM12517,7810.59L12516.4,7809.6L12512.1,7809.63L12515,7811.55L12517.6,7811.58L12517,7810.59ZM11969.9,7810.59L11971.4,7809.63L11968.1,7809.6L11966.8,7811.58L11968.5,7811.55L11969.9,7810.59ZM12012.5,7810.59L12013.7,7808.6L12010.5,7808.6L12011.7,7810.59L12012.5,7810.59ZM12457,7809.86L12455.5,7809.3L12454.1,7807.12L12454,7810.59L12458.5,7810.43L12457,7809.86ZM12149.4,7809.6L12150.6,7807.61L12148.5,7807.61L12148.5,7809.6L12149.4,7809.6ZM12472.9,7809.6L12472.9,7806.86L12470.1,7804.54L12468.8,7806.62L12470.9,7806.62L12470.9,7809.6L12472.9,7809.6ZM12224.3,7806.62L12221.9,7804.24L12221.9,7809L12224.3,7806.62ZM12162.5,7808.6L12161.3,7806.62L12163.4,7806.62L12163.4,7808.6L12162.5,7808.6ZM12178.3,7807.61L12178.3,7805.63L12176.3,7805.63L12176.3,7807.61L12178.3,7807.61ZM12477.7,7807.61L12478.9,7805.63L12475.7,7805.63L12477,7807.61L12477.7,7807.61ZM12134.4,7804.14L12133.4,7802.48L12131.2,7804.64L12127.7,7804.64L12127.7,7806.49L12133.1,7807.12L12134.4,7804.14ZM12477.7,7802.8L12476.3,7802.36L12474.9,7800.17L12474.9,7803.48L12473.6,7806.87L12479.1,7803.24L12477.7,7802.8ZM12173.8,7806.62L12177.3,7802.63L12177.3,7799.68L12174.9,7799.68L12176.2,7800.89L12169.9,7806.62L12173.8,7806.62ZM12459.1,7806.62L12457.9,7804.64L12456,7804.64L12456,7806.62L12459.1,7806.62ZM12233.5,7806.02L12232.9,7805.42L12230.3,7806.46L12234.1,7806.62L12233.5,7806.02ZM12186.2,7805.63L12186.2,7803.64L12183.2,7803.64L12183.2,7805.63L12186.2,7805.63ZM12191.9,7805.03L12191.3,7804.43L12188.7,7805.47L12192.5,7805.63L12191.9,7805.03ZM12515.5,7805.3L12515.5,7802.65L12513.8,7802.65L12512.7,7805.3L12515.5,7805.3ZM12140.1,7803.79L12146.5,7802.49L12146.5,7800.67L12151.5,7800.67L12151.5,7798.68L12159.4,7798.68L12159.4,7796.48L12152.6,7797.75L12151.6,7795.21L12150,7797.41L12139.3,7800.11L12138.4,7802.65L12135.5,7802.65L12136.8,7804.72L12140.1,7803.79ZM12165.4,7804.64L12162.2,7804.64L12163.2,7800.67L12161.6,7800.67L12152.5,7804.57L12152.5,7806.84L12157.2,7805.64L12160.9,7804.25L12155.4,7811.45L12155.4,7813.68L12157.2,7812.59L12158.2,7816.54L12159.9,7816.51L12162.1,7815.91L12164.4,7815.32L12164.4,7811.93L12169.3,7807.27L12169.3,7805.49L12165.4,7806.75L12165.4,7804.64L12168.3,7804.64L12175.6,7796.7L12178.1,7796.7L12179.3,7794.74L12176.8,7795.54L12171.3,7796.74L12171.3,7799.68L12169.3,7799.68L12169.3,7796.58L12167.4,7797.76L12168.4,7800.41L12165.4,7801.6L12165.4,7804.64ZM12195.8,7804.64L12195.5,7800.71L12194.4,7799.59L12193.4,7804.64L12195.8,7804.64ZM12045.3,7803.43L12045.3,7802.65L12042.4,7802.65L12042.4,7804.57L12045.3,7803.43ZM12191.4,7802.99L12190.2,7802.49L12190.2,7799.35L12188.9,7800.58L12190.1,7803.64L12192.6,7803.49L12191.4,7802.99ZM12182,7803.05L12181.4,7802.45L12178.8,7803.49L12182.6,7803.64L12182,7803.05ZM12487.8,7802.53L12484.7,7799.44L12483.6,7800.54L12486.3,7803.44L12487.8,7802.53ZM12923.3,7803.15L12919.9,7800.67L12918.3,7800.67L12918.3,7803.43L12923.3,7803.15ZM12511.3,7802.05L12510.7,7801.45L12508.1,7802.5L12511.9,7802.65L12511.3,7802.05ZM11928,7798.13L11927.4,7797.52L11925.1,7802.16L11928.7,7798.73L11928,7798.13ZM11996.7,7798.83L11996.7,7795.59L11998.7,7796.8L11997.5,7793.73L11999.8,7793.73L11998.4,7791.44L11995.9,7794.82L11995.2,7793L11991.3,7794.58L11994.7,7794.72L11993.5,7797.69L11996.1,7797.69L11993.7,7800.07L11993.7,7801.8L11996.7,7798.83ZM12457.5,7800.45L12458.3,7801.16L12456.9,7798.68L12453,7798.68L12453,7801.73L12456.7,7799.75L12457.5,7800.45ZM12183.2,7801.66L12183.2,7798.68L12185.5,7798.68L12184.4,7797.51L12180.4,7798.76L12179.3,7801.66L12183.2,7801.66ZM12000.7,7801.66L12000.7,7799.68L11998.6,7799.68L11999.8,7801.66L12000.7,7801.66ZM12079.8,7801.06L12079.2,7800.46L12076.6,7801.5L12080.4,7801.66L12079.8,7801.06ZM12450.1,7800.67L12450.1,7797.57L12448,7798.82L12449.2,7800.67L12450.1,7800.67ZM12313.2,7797.01L12315.6,7795.72L12320.1,7795.71L12320.1,7792.52L12317.1,7793.66L12317.1,7791.74L12320.6,7791.71L12317.6,7789.79L12321.1,7789.76L12321.1,7791.74L12323.3,7791.74L12320.9,7788.77L12317.1,7788.77L12317.1,7786.96L12309.5,7790.63L12306.9,7793.82L12311.2,7794.95L12311.2,7796.93L12306.5,7796.04L12307.4,7799.54L12310.7,7798.3L12313.2,7797.01ZM11987.8,7798.68L11987.8,7796.85L11991.3,7796.02L11987.6,7794.43L11985.8,7797.2L11985.8,7798.68L11987.8,7798.68ZM12064.7,7797.63L12068.5,7794.74L12067.6,7793.9L12063,7797.69L12064.7,7797.63ZM12085,7797.69L12085,7795.71L12081.9,7795.71L12083.1,7797.69L12085,7797.69ZM12483.8,7797.69L12483.8,7796.94L12480.8,7794.44L12482,7797.69L12483.8,7797.69ZM11937.2,7797.69L11937.2,7795.71L11935.1,7795.71L11936.2,7793.86L11934.4,7792.7L11933.1,7794.8L11935.5,7797.69L11937.2,7797.69ZM12445.8,7796.1L12445.2,7795.5L12442.6,7796.54L12446.4,7796.7L12445.8,7796.1ZM12473,7793.97L12472.3,7788.27L12471.3,7795.71L12473,7793.97ZM12324.5,7793.66L12324,7792.73L12321.1,7792.73L12321.1,7794.55L12323.6,7795.44L12325.1,7794.58L12324.5,7793.66ZM12182.2,7794.72L12182.2,7792.73L12180.2,7792.73L12180.2,7794.72L12182.2,7794.72ZM12091.3,7791.74L12092.2,7790.88L12090.9,7787.33L12089.5,7789.26L12085.6,7791.39L12084.8,7794.01L12090.5,7792.59L12091.3,7791.74ZM11911.8,7793.11L11912.7,7790.5L11910,7791.37L11909.2,7793.97L11911.8,7793.11ZM12463.9,7793.73L12463.9,7791.86L12462,7790.63L12462,7793.73L12463.9,7793.73ZM12072,7792.73L12073.2,7790.75L12071.2,7790.75L12070,7792.73L12072,7792.73ZM12132.6,7792.73L12132.6,7790.75L12131.7,7790.75L12130.5,7792.73L12132.6,7792.73ZM12140.3,7790.75L12140.1,7788.77L12137.3,7788.77L12138.6,7790.07L12136.3,7792.73L12140.4,7792.73L12140.3,7790.75ZM12151.5,7789.28L12151.5,7787.77L12143.4,7787.77L12144.7,7789.77L12141.6,7790.96L12142.5,7792.5L12151.5,7789.28ZM12500.5,7791.74L12501.8,7789.76L12499.7,7789.76L12499.7,7791.74L12500.5,7791.74ZM12119.2,7791.58L12116.8,7790.58L12114.3,7791.58L12119.2,7791.58ZM12884.1,7788.83L12883.4,7787.77L12881.3,7787.77L12883.8,7790.8L12884.7,7789.89L12884.1,7788.83ZM12455,7788.55L12455,7786.61L12452.7,7787.4L12451.9,7789.76L12455,7788.55ZM13046.7,7787.77L13046.1,7786.78L13042.8,7786.81L13045.7,7788.73L13047.3,7788.77L13046.7,7787.77ZM12922.2,7788.77L12922.2,7786.02L12918.3,7784.98L12918.3,7785.87L12920.7,7788.69L12922.2,7788.77ZM11935.7,7784.94L11935.4,7784.6L11933.2,7785.91L11933.2,7787.85L11936,7785.29L11935.7,7784.94ZM12205.9,7786.25L12206.5,7785.6L12202.8,7786.28L12202,7784.14L12205.5,7784.07L12207.8,7785.89L12209.2,7783.67L12208.1,7782.61L12201.2,7782.61L12199,7784.01L12200.1,7787.06L12197.4,7784.81L12196.1,7786.12L12196.1,7787.79L12205.3,7786.9L12205.9,7786.25ZM12177.6,7786.29L12177.1,7784.81L12175.2,7785.93L12176.4,7787.77L12178.2,7787.77L12177.6,7786.29ZM11951.8,7787.17L11951.2,7786.57L11948.6,7787.62L11952.4,7787.77L11951.8,7787.17ZM12187.2,7783.42L12186.3,7782.52L12191.3,7778.55L12192.6,7780.53L12203.1,7780.38L12202.2,7778.02L12205,7776.92L12205,7775.22L12197.6,7775.82L12189.7,7776.6L12187.2,7774.63L12186.9,7777.36L12187.2,7778.85L12185.1,7778.85L12182.2,7781.68L12182.2,7784.8L12186.2,7784.8L12186.2,7787.28L12188.1,7784.32L12187.2,7783.42ZM12299.5,7708.35L12301.2,7705.09L12300.1,7703.45L12296.9,7703.45L12301.2,7698.93L12297.1,7696.37L12295.9,7697.52L12299.8,7700.42L12296.5,7700.48L12290,7697.01L12286.4,7693.53L12286.4,7691.55L12285.9,7691.55L12279.4,7693.4L12277.3,7689.44L12279.7,7686.59L12276.9,7686.59L12272.9,7689.37L12265.5,7689.37L12265.5,7685.9L12271.6,7685.73L12277.5,7684.45L12277.5,7682.5L12269,7683.34L12273.4,7682.5L12277.3,7677.58L12279.4,7681.14L12280.7,7676.67L12283.1,7676.67L12284.3,7677.9L12281.3,7680.87L12282,7682.77L12283.9,7682.62L12283.9,7680.8L12285.6,7679.15L12288.1,7682.66L12291.2,7681.48L12292.4,7678.32L12290.3,7676.27L12290.3,7673.69L12294.9,7673.69L12298.8,7670.78L12295,7670.72L12300.5,7665.64L12303.2,7666.69L12303.2,7668.74L12301.6,7668.74L12301.9,7679.15L12300,7681.63L12301.5,7681.63L12299.1,7684.49L12299.8,7689.07L12308.7,7690.06L12308.2,7692.54L12314.7,7692.57L12319.1,7693.77L12319.1,7690.47L12326,7691.77L12329.4,7690.47L12323.8,7687.55L12322.8,7688.57L12325.1,7688.57L12325.1,7690.67L12318.9,7687.09L12317.1,7683.61L12313.2,7683.61L12313.2,7679.65L12314.7,7679.65L12314.3,7671.76L12316.1,7670.6L12316.1,7668.74L12312.2,7668.74L12312.2,7666.54L12317.4,7667.84L12316.3,7665.01L12318.5,7662.78L12315.9,7662.78L12317,7659.86L12313.9,7658.07L12314.8,7654.29L12312.4,7652.02L12309.9,7654.35L12311.2,7652.04L12308.7,7651.18L12303.3,7653.04L12303.7,7655.03L12298.7,7658.92L12291,7661.54L12286,7660.19L12285.3,7658.06L12294.3,7659.07L12294.3,7656.6L12290.4,7657.64L12289.3,7655.98L12293.2,7654.77L12302.3,7646.04L12300.2,7644.75L12302.7,7641.46L12298.8,7644.67L12296.3,7643.77L12294.7,7648.01L12289.9,7650.47L12290.5,7654.85L12286.5,7654.85L12284.9,7657.5L12280.9,7659.75L12285.4,7659.81L12285.4,7661.76L12275.3,7666.89L12276.6,7664.77L12274.5,7664.77L12274.5,7662.78L12276.6,7662.78L12279.6,7659.81L12277.9,7659.81L12274,7662.49L12268.3,7663.88L12271.8,7666.44L12267.5,7667.56L12267.5,7667.74L12267.2,7667.74L12270.6,7671.43L12267.5,7673.98L12266.1,7672.6L12269,7670.8L12266.7,7668.48L12262.1,7669.73L12251.6,7679.67L12252.8,7681.68L12251.2,7681.4L12247.7,7681.63L12247.7,7683.34L12252.3,7682.47L12252.8,7690.91L12253.9,7692.77L12251.3,7694.38L12253.7,7697.29L12247.7,7699.38L12247.7,7706.43L12244.7,7706.43L12244.7,7708.81L12242.3,7706.43L12240.6,7706.43L12241.6,7707.92L12237.1,7707.92L12237.1,7705.44L12242,7705.44L12240.8,7702.46L12242.7,7702.46L12246.7,7699.05L12246.6,7695.02L12243.5,7699.49L12240.7,7699.49L12239.6,7702.37L12231.3,7706.19L12227.7,7707.42L12228.6,7709.9L12234.3,7709.5L12228.8,7714.27L12228.8,7716.07L12223.9,7715.13L12223.9,7712.38L12220.9,7712.38L12218.6,7717.34L12216.9,7717.34L12216.9,7713.37L12219.7,7713.37L12219.4,7706.93L12224.9,7707.57L12224.8,7705.94L12223.1,7703.17L12216.4,7707.75L12212.5,7711.24L12200.5,7718.83L12181.2,7731.59L12181.2,7734.7L12179.4,7731.79L12177.3,7737.13L12172.3,7738.39L12173.3,7740.02L12171.3,7741.27L12171.3,7738.84L12169.8,7740.32L12169.7,7741.65L12168.1,7745.12L12165.4,7745.12L12166.7,7741.88L12154.9,7749.31L12148.5,7754.18L12149.8,7756.34L12147.7,7755.06L12145.2,7758.1L12140.4,7768.42L12137.1,7772.19L12142.4,7771.2L12142.3,7772.4L12142.5,7774.88L12146.6,7774.88L12146.3,7777.36L12146.5,7780.83L12149.5,7780.83L12149.5,7778.73L12147.5,7779.98L12148.3,7772.96L12149.8,7770.62L12144,7771.96L12146.7,7770.17L12142,7766.89L12145,7764.99L12149.5,7764.96L12149.5,7767.49L12153.5,7770.89L12153.8,7768.93L12154,7766.44L12151.5,7766.44L12152,7764.46L12154.3,7764.72L12155.4,7761.98L12152.5,7761.98L12152.5,7759.01L12150.5,7759.01L12150.5,7757.01L12154.6,7759.5L12157.5,7755.53L12159.5,7759.01L12162.4,7759.01L12162.4,7757.24L12167.4,7755.97L12166.2,7754.05L12168,7754.05L12169.2,7755.2L12165.9,7759.01L12162.4,7759.01L12162.4,7760.99L12160.3,7760.99L12157.2,7757.92L12156.3,7758.85L12160.6,7764.74L12156.6,7768.76L12155.4,7767.6L12155.4,7769.92L12159.5,7769.92L12158.3,7767.93L12163.6,7767.93L12168.4,7764.11L12163.9,7763.24L12170.4,7762.97L12171.5,7760L12177.3,7760L12180.9,7756.4L12182.9,7758.6L12183.7,7760.83L12192.9,7756.53L12195.4,7750.57L12195.1,7747.6L12197.4,7751.57L12197.8,7752.07L12204.2,7748.88L12206,7743.98L12213.5,7744.32L12215.2,7744.13L12212.5,7740.78L12216.1,7742.14L12217.7,7742.14L12216.7,7746.11L12215,7746.11L12215,7749.09L12219.9,7749.09L12219.9,7746.28L12217.4,7745.27L12224.5,7745.12L12226.7,7742.94L12230.8,7744.26L12230.8,7745.9L12227.9,7747.04L12227.9,7744.72L12225.4,7747.35L12227.9,7748.26L12227.9,7749.85L12224.4,7751.07L12221.9,7752.23L12223.1,7749.06L12219.9,7750.29L12219.9,7752.06L12217.9,7752.06L12210.6,7759.5L12212.3,7758.03L12215.2,7760.42L12217.7,7757.02L12220,7757.02L12218.9,7755.18L12220.9,7753.93L12220.9,7758.01L12224,7758.01L12222.7,7760.08L12225.1,7762.91L12224,7765.45L12223.9,7761.98L12223.1,7761.98L12219.9,7763.19L12219.9,7765.95L12218.1,7765.95L12214.6,7762.48L12221,7761.85L12220.4,7758.67L12217.6,7757.74L12218.8,7760.79L12212,7761.58L12210.2,7759.77L12207.6,7761.37L12213.5,7763.88L12211.4,7763.97L12211.4,7767.79L12213,7766.82L12213,7768.6L12211.8,7769.78L12208.9,7768.69L12210.1,7764.91L12202.1,7766.2L12202.1,7763.97L12195,7763.97L12188.7,7767.18L12185.3,7770.11L12183.1,7768.75L12180.3,7771.13L12175.3,7769.88L12175.3,7771.9L12178.7,7771.9L12176.3,7774.28L12173.9,7771.9L12172.4,7771.9L12173.5,7774.82L12166.8,7777.69L12159.3,7780.96L12155.4,7781.25L12155.4,7782.81L12150.5,7782.81L12150.5,7785.44L12156.9,7784.66L12154,7786.75L12155.8,7786.78L12161.2,7785.06L12166.7,7783.35L12167.6,7779.86L12169.2,7780.88L12177.5,7778.35L12180.1,7772.4L12180.7,7773.08L12188.2,7771.68L12188.2,7770.26L12205.2,7770.64L12207.2,7772.73L12215.3,7769.9L12216.4,7770.99L12212,7772.14L12210.8,7776.75L12212.1,7778.85L12214,7778.85L12214,7775.87L12211.8,7775.87L12214.5,7773.28L12217.9,7771.96L12217.9,7766.82L12219.9,7768.02L12227.9,7765.87L12226.7,7761.01L12229.8,7759.78L12229.8,7757.87L12227,7755.04L12224.9,7755.04L12224.9,7753.05L12227.4,7752.82L12228.7,7753L12238.3,7750.12L12238.9,7751.9L12245.9,7751.03L12248.6,7748.33L12247.4,7747.16L12252.2,7745.3L12255.6,7741.13L12255.6,7738.67L12253.7,7741.88L12248.5,7740.89L12249.5,7737.18L12247.7,7736.07L12247.7,7734.21L12250.7,7734.21L12250.7,7731.63L12243.9,7732.42L12245,7735.43L12240.6,7733.08L12238.2,7735.11L12233.8,7734.78L12233.8,7733.08L12237.8,7734.34L12237.8,7732.42L12243.6,7730.4L12244.6,7731.42L12250.7,7730.08L12249.6,7728.25L12251.7,7728.25L12251.7,7725.16L12253.7,7726.45L12252.1,7728.75L12251.5,7734.21L12253.2,7734.21L12255.6,7731.82L12255.6,7734.21L12258.8,7734.21L12257.7,7731.25L12262.5,7730.05L12265.1,7731.57L12261.3,7727.26L12265.2,7727.26L12267.8,7729.74L12266.4,7727.26L12270.7,7727.26L12269.7,7723.29L12271.5,7723.29L12271.5,7725.28L12273.6,7725.28L12272.4,7721.31L12278.6,7721.31L12277.9,7716.85L12283.7,7717.26L12287.8,7714.35L12278.4,7715.23L12278.4,7713.61L12282.9,7712.25L12291.8,7711.63L12295.3,7711.39L12295.3,7708.41L12297.3,7708.41L12297.3,7710.74L12294,7714.37L12296.3,7714.37L12296.3,7712.6L12301.8,7711.23L12304.9,7707.88L12304.1,7705.44L12302,7705.44L12303.2,7708.36L12298.9,7711.35L12298.2,7710.69L12299.4,7708.41L12298.8,7708.38L12297.3,7707.46L12295.9,7706.54L12297,7705.39L12299.5,7708.35L12299.4,7708.41L12299.5,7708.41L12299.5,7708.35ZM12168.1,7786.18L12167.5,7785.58L12164.9,7786.62L12168.7,7786.78L12168.1,7786.18ZM11955.4,7785.3L11956,7783.82L11962.5,7779.84L11960.3,7779.84L11953.2,7784.63L11952.1,7783.47L11952.1,7785.46L11953.4,7786.78L11954.8,7786.78L11955.4,7785.3ZM12103.9,7785.79L12103.9,7783.81L12103,7783.81L12101.8,7785.79L12103.9,7785.79ZM12430.2,7784.68L12426.7,7780.05L12425.5,7781.98L12421.4,7776.36L12417.9,7778.49L12417.2,7780.83L12420.8,7782.05L12428.6,7785.7L12430.2,7784.68ZM12442.3,7781.82L12446.1,7781.82L12446.1,7779.84L12442.3,7779.84L12441.1,7782.98L12441.4,7785.29L12442.3,7781.82ZM11943,7782.77L11945.1,7780.75L11945.1,7778.85L11944.3,7778.85L11938.3,7784.8L11940.8,7784.8L11943,7782.77ZM12148.4,7784.8L12149.6,7782.81L12147.5,7782.81L12147.5,7784.8L12148.4,7784.8ZM13041.4,7784.8L13040.2,7782.81L13038.2,7782.81L13039.4,7784.8L13041.4,7784.8ZM13036.6,7782.54L13033.2,7780.65L13031.9,7781.93L13034.7,7783.67L13036.6,7782.54ZM12215.4,7781.48L12217.2,7780.14L12214.8,7778.65L12211.2,7781.94L12210.3,7779.34L12208.8,7780.7L12210.1,7782.81L12213.6,7782.81L12215.4,7781.48ZM12135.3,7779.52L12135.1,7778.6L12137.9,7777.58L12136.7,7780.83L12141.1,7780.67L12138.6,7779.68L12141.6,7773.98L12141.6,7773.33L12136.9,7772.94L12132.3,7777.85L12132.1,7782.55L12135.5,7780.43L12135.3,7779.52ZM12918,7779.65L12917.4,7778.35L12917.3,7782.15L12918.5,7780.95L12918,7779.65ZM11948,7781.82L11949.2,7779.84L11947.2,7779.84L11946,7781.82L11948,7781.82ZM12143.9,7780.21L12144.8,7777.61L12142.2,7778.47L12141.3,7781.08L12143.9,7780.21ZM12901.4,7780.83L12901.4,7778.85L12899.4,7778.85L12899.4,7780.83L12901.4,7780.83ZM12250.4,7780.83L12252.9,7777.85L12248.8,7777.85L12247.7,7779.56L12249,7780.83L12250.4,7780.83ZM12207,7780.83L12207,7778.85L12205,7778.85L12205,7780.83L12207,7780.83ZM11978.4,7779.84L11979,7778.85L11977.4,7778.98L11973.4,7780.69L11977.8,7780.83L11978.4,7779.84ZM12080,7779.62L12080,7778.85L12077.1,7778.85L12077.1,7780.77L12080,7779.62ZM13028.2,7777.72L13024.9,7775.83L13018.3,7772.79L13016.1,7773.53L13022.7,7776.86L13025.1,7776.86L13028.6,7780.69L13031.4,7779.61L13028.2,7777.72ZM12154.9,7778.85L12154.3,7777.85L12150,7777.88L12153,7779.81L12155.6,7779.84L12154.9,7778.85ZM11989.8,7777.62L11989.8,7774.92L11984.9,7777.15L11985.8,7778.66L11989.8,7777.62ZM12222.9,7777.85L12222.9,7775.87L12220.8,7775.87L12222,7777.85L12222.9,7777.85ZM12416.3,7777.85L12416.3,7775.87L12414.3,7775.87L12414.3,7777.85L12416.3,7777.85ZM12136.6,7776.86L12136.6,7774.76L12138.6,7775.99L12138.6,7776.86L12136.6,7776.86ZM12255.5,7776.86L12256.6,7775.1L12251.2,7774.07L12255,7776.86L12255.5,7776.86ZM12359.9,7776.86L12358.7,7774.88L12355.7,7774.88L12356.9,7776.86L12359.9,7776.86ZM12415.3,7774.37L12416.6,7775.87L12420.3,7775.87L12420.3,7773.89L12418.2,7773.89L12416.1,7767.77L12412.4,7768.74L12412.4,7767.34L12414.7,7764.96L12413.3,7764.96L12409.4,7767.42L12405.4,7764.96L12403.5,7764.96L12406.9,7768.93L12409.5,7768.93L12408.3,7770.85L12411.7,7776.08L12414.1,7772.87L12415.3,7774.37ZM12209,7775.87L12209,7773.89L12207,7773.89L12207,7775.87L12209,7775.87ZM12897.4,7775.87L12897.4,7773.89L12895.3,7773.89L12896.6,7775.87L12897.4,7775.87ZM12259.1,7770.08L12257.5,7769.74L12252.6,7770.97L12253.8,7772.89L12255.7,7772.89L12254.5,7770.91L12257.6,7770.91L12257.4,7772.4L12257.7,7774.38L12260.7,7770.41L12259.1,7770.08ZM12219.6,7771.72L12219.1,7770.41L12218.9,7774.22L12220.1,7773.02L12219.6,7771.72ZM12118.6,7773.89L12128.2,7766.2L12137.1,7754.83L12148,7743.33L12148.5,7741.15L12146.6,7741.15L12144.5,7745.12L12142.1,7745.12L12144.5,7742.74L12144.5,7739.91L12141.2,7742.64L12144,7737.75L12148.6,7733.94L12147.4,7729.01L12152.2,7730.2L12153.4,7728.93L12151.1,7726.12L12153,7724.78L12155.5,7719.01L12153.3,7717.6L12157.6,7714.57L12155.4,7713.26L12155.4,7711.8L12164.3,7701.97L12164.1,7699.98L12165.7,7696.02L12168.6,7692.59L12170.1,7693.5L12171.3,7687.6L12179.5,7678.65L12177.9,7678.65L12181.5,7674.69L12179.2,7674.69L12179.2,7672.85L12182.2,7669.87L12182.2,7666.14L12188.4,7659.81L12190.2,7659.81L12190.2,7660.74L12186.4,7668.24L12185.1,7672.7L12187.2,7672.7L12187.2,7670.6L12188.9,7671.68L12190.2,7663.89L12192.4,7662.49L12191.1,7667.94L12193.1,7667.25L12197.6,7658.32L12202.6,7658.82L12199.6,7656.68L12202.1,7655.67L12202.1,7653.86L12200.4,7653.86L12193.2,7660.8L12192.3,7660.8L12192.9,7655.94L12190.1,7654.9L12185.3,7656.75L12182.4,7662.29L12178.7,7666.26L12172.5,7675.18L12165.1,7683.12L12160.5,7689.07L12154.2,7700.98L12152,7704.99L12138.4,7725.27L12136.6,7726.39L12136.6,7730.43L12132.9,7735.69L12131.5,7739.66L12130.6,7743.98L12121.7,7759.05L12118.6,7766.44L12117.8,7769.42L12116.5,7773.89L12118.6,7773.89ZM11997.3,7771.24L11997.2,7768.59L11994.9,7767.81L11992.7,7771.9L11995.8,7771.9L11994.6,7773.89L11997.3,7773.89L11997.3,7771.24ZM12366.4,7770.16L12366.9,7768.43L12369,7762.87L12372.2,7764.27L12378.6,7765.17L12378.6,7763.37L12376.3,7760.99L12378.6,7760.99L12378.6,7758.01L12376.2,7757.98L12379.1,7756.13L12374.3,7751.07L12371.2,7750.99L12364.2,7747L12370.2,7748.39L12374.2,7748.47L12377.6,7752.36L12377.6,7750.35L12373.5,7745.12L12375.2,7745.13L12382.8,7747.25L12386.5,7743.25L12394,7744.37L12396.5,7747.45L12397.8,7746.12L12400.7,7750.25L12404.2,7749.33L12406.5,7754.24L12409.5,7753.06L12413.2,7755.03L12414.1,7751.57L12415.6,7756.03L12417.8,7756.16L12424.8,7756.98L12420.8,7753.9L12411.9,7748.71L12407.1,7744.13L12404.4,7744.13L12404.4,7740.32L12401.9,7739.17L12404.5,7737.98L12402.2,7735.2L12400.5,7735.2L12396.2,7731.73L12392.2,7727.26L12389.9,7727.26L12387.6,7724.94L12391.8,7722.8L12391.6,7720.81L12383.6,7719.04L12383.6,7716.83L12380.1,7714.62L12373.7,7713.22L12373.7,7715.39L12378,7721.99L12385.1,7725.18L12378.6,7725.28L12378.6,7723.32L12370.5,7722.02L12369.5,7719.46L12365.2,7719.73L12363.9,7721.63L12353.8,7721.27L12353.8,7723.29L12351,7723.29L12347.9,7727.62L12350.2,7730.33L12352.7,7729.35L12351.6,7732.38L12342.4,7731.97L12339.9,7732.22L12339.9,7735.14L12343,7733.97L12347.2,7737.68L12346.1,7733.21L12348.5,7733.21L12353.8,7735.69L12353.8,7738.06L12351.4,7739.55L12357.3,7742.05L12354.8,7742.14L12354.8,7744.13L12359.3,7744.28L12356.7,7745.31L12353.3,7743.74L12351.4,7743.54L12347.2,7741.22L12345.7,7742.64L12346.4,7739.71L12341.9,7739.03L12341.9,7741.15L12336.9,7741.15L12339.8,7746.67L12337.8,7750.24L12338.8,7754.05L12334,7755.25L12334.1,7756.53L12336.5,7759.78L12344.1,7761.87L12343,7759.01L12345.9,7759.01L12349.9,7761.49L12351.8,7758.51L12351.9,7762.22L12354.6,7759.9L12355.9,7761.98L12353.8,7761.98L12353.8,7764.03L12357.7,7761.98L12358.7,7761.98L12357.5,7765.45L12355.7,7766.62L12358.1,7771.9L12365.8,7771.9L12366.4,7770.16ZM11956.1,7770.91L11956.1,7768.93L11953,7768.93L11954.2,7770.91L11956.1,7770.91ZM12878,7769.34L12878.6,7767.77L12878.6,7767L12875.6,7768.15L12875.6,7770.91L12877.4,7770.91L12878,7769.34ZM12002.7,7768.81L12002.7,7766.94L11997.3,7766.94L12001.2,7769.74L12002.7,7768.81ZM12237.4,7766.22L12236.8,7765.62L12235.6,7766.81L12237.1,7769.32L12238,7766.82L12237.4,7766.22ZM12876,7765.72L12877.1,7764.99L12872.6,7764.96L12872.6,7767.6L12874.1,7769.05L12874.9,7766.44L12876,7765.72ZM12264.6,7766.42L12265.8,7764.91L12264.6,7763.72L12261.6,7764.9L12261.6,7767.93L12263.3,7767.93L12264.6,7766.42ZM12098.9,7766.94L12098.9,7763.85L12096.9,7765.09L12098,7766.94L12098.9,7766.94ZM12182.2,7765.95L12182.2,7763.97L12180.2,7763.97L12180.2,7765.95L12182.2,7765.95ZM12869.7,7765.95L12869.7,7764.13L12868.5,7761.21L12864.7,7762.21L12864.7,7763.87L12868.2,7765.89L12869.7,7765.95ZM12007.1,7761.87L12006.5,7760.99L12003.9,7760.99L12002.7,7763.97L11999.2,7764.11L12003.2,7765.66L12007.6,7762.76L12007.1,7761.87ZM12188.6,7764.36L12190.2,7763.75L12190.2,7760.99L12192.1,7760.99L12192.3,7763.47L12194,7759.5L12194.1,7758.01L12191.5,7758.01L12188.2,7761.65L12189.7,7763.29L12187.7,7762.16L12183.8,7764.96L12187,7764.96L12188.6,7764.36ZM12411.4,7764.96L12411.4,7762.64L12410.1,7763.95L12407.4,7761.74L12407.4,7763.8L12409.9,7764.8L12411.4,7764.96ZM12455.6,7763.44L12453.6,7761.98L12451.5,7761.98L12448.6,7758.01L12446.3,7758.01L12443.9,7755.04L12441.1,7755.04L12441.1,7756.89L12444.7,7758.04L12448.6,7761.58L12456.5,7764.86L12457.5,7764.89L12455.6,7763.44ZM12365.9,7763.97L12364.6,7761.98L12366.7,7761.98L12366.7,7763.97L12365.9,7763.97ZM12200.9,7759L12205.1,7755.06L12210.5,7753.7L12204.7,7752.15L12196.6,7760L12195.1,7760L12195.1,7762.97L12196.6,7762.95L12200.9,7759ZM12272,7759.27L12273.2,7757.71L12275.3,7759.04L12276.5,7757.1L12274,7753.05L12270,7753.12L12266.8,7755.53L12263.4,7762.24L12270.9,7760.82L12272,7759.27ZM12205.2,7761.98L12208.4,7758.73L12208.8,7756.06L12205.3,7757.95L12204.2,7761.98L12205.2,7761.98ZM12889.2,7757.83L12888.7,7756.53L12888.5,7760.33L12889.7,7759.13L12889.2,7757.83ZM12117.1,7757.52L12116.5,7756.04L12114.8,7757.15L12113.6,7754.05L12111.8,7754.05L12111.8,7757.87L12115.3,7758.78L12117.7,7759.01L12117.1,7757.52ZM12257.6,7756.79L12257.6,7755.04L12253.8,7755.04L12250.4,7753.74L12253.9,7757.77L12257.6,7756.79ZM12224.7,7756.34L12226,7755.82L12227.2,7757.02L12223.4,7756.86L12224.7,7756.34ZM12184.7,7756.86L12182.1,7755.82L12191.2,7751.43L12189.8,7750.08L12192.1,7750.08L12192.1,7753.05L12188.2,7753.05L12188.2,7755.97L12184.9,7754.7L12186.3,7757.02L12184.7,7756.86ZM12268,7756.86L12273.7,7754.81L12275.9,7757.02L12268,7756.86ZM12233.7,7757.02L12234.9,7755.04L12231.7,7755.04L12232.9,7757.02L12233.7,7757.02ZM12242.5,7755.43L12241.9,7754.83L12239.3,7755.87L12243.1,7756.03L12242.5,7755.43ZM12333,7754.92L12333,7753.05L12330,7753.05L12330,7754.71L12331.3,7755.98L12333,7754.92ZM12436.3,7752.06L12437.4,7752.06L12440.2,7755.53L12438.2,7751.3L12435.2,7750.16L12434.2,7751.88L12435.6,7755.53L12436.3,7752.06ZM12311.6,7752.81L12310.9,7750.57L12309.2,7749.91L12309.2,7747.33L12305.2,7746.3L12301.2,7747.35L12304.5,7751.07L12309.4,7751.07L12308.4,7755.04L12312.3,7755.04L12311.6,7752.81ZM12042.4,7754.05L12042.4,7752.06L12040.4,7752.06L12040.4,7754.05L12042.4,7754.05ZM11984.8,7753.05L11986.3,7752.09L11984.3,7752.2L11980.4,7753.91L11983.3,7754.02L11984.8,7753.05ZM12162.8,7752.56L12160.9,7751.13L12166.4,7751.07L12166.4,7752.94L12164.7,7753.98L12162.8,7752.56ZM12284.3,7750.65L12283.4,7749.7L12279.9,7753.28L12284.3,7750.65ZM12178.1,7751.62L12181.5,7750.08L12184.8,7750.08L12185.2,7744.71L12186.7,7743.36L12191.1,7742.01L12191.1,7743.89L12186.9,7745L12188,7747.85L12185.7,7750.19L12189.7,7748.84L12185.3,7752.1L12179.7,7751.89L12174.8,7753.16L12178.1,7751.62ZM12157.5,7753.05L12156.3,7751.07L12159.5,7751.07L12158.3,7753.05L12157.5,7753.05ZM12277.5,7753.05L12277.7,7751.07L12278.2,7749.09L12278.4,7747.1L12283.1,7747.1L12285.5,7739.2L12289.3,7737.15L12288.2,7734.21L12284.6,7734.21L12283.9,7732.48L12278.9,7731.19L12282.6,7733.71L12285.9,7736.03L12284.4,7737.5L12280.8,7734.21L12277.7,7734.21L12276.5,7737.34L12276.5,7739.02L12279.4,7742L12276.5,7744.98L12276.5,7746.25L12273.9,7748.77L12271,7749.92L12276.7,7750.08L12275.5,7753.05L12277.5,7753.05ZM12005.8,7753.05L12005,7750.57L12002.3,7750.57L12001.5,7753.05L12005.8,7753.05ZM11998.3,7750.55L12001.2,7748.04L12003.2,7746.2L12005.7,7743.13L12003.2,7743.2L11999.7,7745.83L11999.7,7748.09L11996.9,7748.09L11995.8,7751.07L11992.8,7751.07L11992.8,7753.05L11995.4,7753.05L11998.3,7750.55ZM12259,7750.7L12258.8,7749.11L12260.6,7750.19L12260.6,7747.1L12263.1,7747.04L12259.6,7745.02L12259.6,7742.14L12257.5,7742.14L12258.7,7745.85L12253.6,7749.13L12253.6,7752.92L12259.1,7752.29L12259,7750.7ZM12408.7,7751.37L12410.4,7750.92L12412.9,7751.9L12406.9,7751.83L12408.7,7751.37ZM12451,7750.84L12451,7750.08L12447.1,7750.08L12447.1,7751.88L12451,7750.84ZM12081,7751.07L12081,7749.09L12079.1,7749.09L12079.1,7751.07L12081,7751.07ZM12230.1,7750.24L12228.9,7748.36L12238.2,7747.08L12241.2,7750.08L12238.8,7750.08L12238.8,7747.96L12235.3,7748.99L12230.1,7750.24ZM12242.7,7750.08L12242.7,7748.09L12244.7,7748.09L12244.7,7750.08L12242.7,7750.08ZM12442.1,7749.87L12442.1,7748.16L12437.7,7745.81L12436.5,7744.03L12432.2,7743.7L12433.1,7741.3L12428.3,7738.17L12424.1,7738.17L12420.7,7736.33L12417.8,7738.14L12421.8,7738.2L12419.4,7739.71L12426.3,7746.4L12431.4,7749.09L12435.3,7749.09L12433.9,7746.61L12437.1,7749.58L12442.1,7749.87ZM12267.4,7745.12L12267.4,7743.63L12265.7,7747.6L12265.6,7749.58L12267.5,7746.61L12267.4,7745.12ZM12174.3,7747.67L12176.8,7746.18L12178.7,7746.11L12176.8,7747.87L12171.8,7749.17L12174.3,7747.67ZM12304.2,7749.09L12304.2,7747.1L12306.3,7747.1L12305.1,7749.09L12304.2,7749.09ZM12197,7748.09L12198.2,7746.11L12201.9,7746.11L12203.2,7744.13L12204.9,7744.13L12203.8,7748.09L12197,7748.09ZM12018.4,7748.09L12021.5,7741.84L12021.5,7739.02L12018.4,7742.14L12016.6,7742.14L12016.6,7748.09L12018.4,7748.09ZM12296.3,7746.98L12293.5,7744.13L12291.3,7744.13L12291.3,7740.75L12288.9,7743.28L12294.7,7747.98L12296.3,7746.98ZM12029.2,7746.5L12028.6,7745.9L12026,7746.94L12029.8,7747.1L12029.2,7746.5ZM12864.7,7747.1L12864.7,7746.32L12861.7,7745.18L12861.7,7747.1L12864.7,7747.1ZM12381.7,7746.11L12380.5,7744.13L12383.6,7744.13L12383.6,7746.11L12381.7,7746.11ZM12172.3,7745.12L12172.3,7743.13L12175.4,7743.13L12174.2,7745.12L12172.3,7745.12ZM12243.3,7744.27L12242.8,7743.42L12247.7,7744.36L12247.7,7745.12L12243.8,7745.12L12243.3,7744.27ZM12360.7,7745.12L12361.9,7743.13L12362.8,7743.13L12362.8,7745.12L12360.7,7745.12ZM12178.1,7744.13L12179.4,7742.14L12180.2,7742.14L12180.2,7744.13L12178.1,7744.13ZM12236.7,7744.13L12237.9,7742.14L12238.8,7742.14L12238.8,7744.13L12236.7,7744.13ZM12097.9,7743.13L12100.4,7742.34L12094.1,7742.14L12092.8,7744.13L12095.4,7743.93L12097.9,7743.13ZM12231.6,7742.46L12232.9,7741.94L12234.1,7743.13L12230.3,7742.98L12231.6,7742.46ZM12200.1,7743.13L12200.1,7741.48L12201.3,7740.3L12204.2,7741.43L12201.6,7743.1L12200.1,7743.13ZM12323.1,7743.13L12323.1,7741.15L12321.1,7741.15L12321.1,7743.13L12323.1,7743.13ZM12187.3,7740.57L12187.3,7738.67L12188.4,7741.27L12187.2,7742.47L12187.3,7740.57ZM12242.9,7742.14L12241.6,7740.16L12243.6,7740.16L12244.8,7742.14L12242.9,7742.14ZM12024.5,7742.14L12024.5,7741.27L12022.5,7740.04L12022.5,7742.14L12024.5,7742.14ZM12425.8,7741.99L12428.2,7740.98L12430.7,7741.99L12425.8,7741.99ZM12299.4,7740.89L12298.8,7737.7L12295.6,7737.08L12294.3,7740.34L12295.3,7741.95L12299.4,7740.89ZM12179.3,7739.58L12179.4,7737.68L12180.4,7740.28L12179.2,7741.48L12179.3,7739.58ZM12465.1,7739.64L12465.2,7738.67L12454.5,7732.3L12450.2,7732.22L12448.8,7729.93L12451.5,7731.61L12448.7,7727.76L12444.8,7723.29L12436.3,7723.29L12435.4,7720.81L12433,7723.12L12434.3,7725.28L12436.9,7725.28L12439.3,7728.15L12446.6,7730.48L12450.6,7733.8L12456.5,7736.69L12463.3,7741.2L12465.1,7740.6L12465.1,7739.64ZM12317.3,7740.16L12322.1,7740.16L12322.1,7737.96L12317.1,7739.2L12317.1,7737.18L12312.2,7737.18L12312.2,7738.77L12314.6,7741.19L12317.3,7740.16ZM12412.8,7740.55L12414.3,7739.94L12414.3,7738.67L12407.9,7738.87L12405.9,7739.2L12408.9,7741.12L12411.2,7741.15L12412.8,7740.55ZM12233.3,7740.39L12236.7,7736.8L12237.9,7738.01L12233.3,7740.39ZM12191.1,7740.39L12191.1,7737.18L12194.1,7737.18L12194.1,7734.42L12197.2,7733.23L12196.1,7731.41L12200.6,7732.64L12197.1,7733.36L12197.1,7736.03L12199.6,7737.03L12196,7737.18L12191.1,7740.39ZM12229.8,7740.16L12229.8,7738.17L12231.9,7738.17L12230.7,7740.16L12229.8,7740.16ZM12274.5,7740.16L12274.4,7738.67L12271.9,7735.33L12266.8,7734.04L12260.1,7737.49L12268,7739.95L12274.5,7740.16ZM12306.2,7738.17L12306.2,7737.18L12303,7737.18L12304.1,7734.37L12301.1,7733.21L12299,7733.21L12301.1,7735.69L12301.1,7737.6L12304.7,7739.03L12306.2,7739.17L12306.2,7738.17ZM12147.3,7739.17L12148.4,7736.29L12145.5,7737.39L12145.5,7739.17L12147.3,7739.17ZM12238.8,7738.17L12238.8,7736.19L12241.9,7736.19L12240.6,7738.17L12238.8,7738.17ZM12354.3,7738.02L12356.8,7737.02L12359.3,7738.02L12354.3,7738.02ZM12189.2,7737.61L12189.2,7734.32L12191.3,7733.02L12192.5,7734.25L12189.2,7737.61ZM12182.2,7737.18L12182.2,7736.21L12185.6,7732.22L12187.6,7732.22L12192.1,7727.91L12192.1,7731.23L12190.2,7731.23L12186.3,7734.7L12183.3,7737.18L12182.2,7737.18ZM12252.7,7737.18L12252.7,7736.31L12250.7,7735.08L12250.7,7737.18L12252.7,7737.18ZM12388.6,7736.19L12388.6,7735.41L12391.5,7734.27L12391.5,7736.19L12388.6,7736.19ZM12155.9,7732.82L12158.3,7730.44L12160.9,7729.52L12159.1,7727.76L12158.2,7730.24L12154.9,7730.25L12152.6,7735.2L12153.5,7735.2L12155.9,7732.82ZM12106.8,7735.2L12106.8,7733.21L12106,7733.21L12104.7,7735.2L12106.8,7735.2ZM12419.3,7735.2L12419.3,7733.35L12413.5,7729.25L12412.4,7729.25L12412.4,7731.1L12416.5,7732.4L12415.4,7735.2L12419.3,7735.2ZM12047.3,7731.95L12048.8,7731.39L12044.3,7731.23L12044.4,7734.7L12045.8,7732.52L12047.3,7731.95ZM12384.1,7734.18L12387.1,7732.25L12389,7732.25L12386.1,7734.18L12384.1,7734.18ZM12295.8,7731.5L12296.4,7727.26L12292.4,7727.26L12293.5,7730.03L12289.2,7733L12291.8,7733.98L12295.8,7731.5ZM12262.6,7733.21L12262.6,7731.23L12260.6,7731.23L12260.6,7733.21L12262.6,7733.21ZM12202.1,7731.28L12203.6,7730.27L12201.6,7730.18L12205.3,7728.02L12206.9,7730.68L12206.5,7730.95L12200.6,7732.28L12202.1,7731.28ZM12209.3,7731.54L12211,7731.09L12211,7728.25L12213,7728.25L12213,7732.22L12207.5,7731.99L12209.3,7731.54ZM12286.4,7732.22L12286.4,7730.24L12284.3,7730.24L12285.5,7732.22L12286.4,7732.22ZM12255,7731.23L12253.9,7730.12L12254.9,7726.27L12256.6,7726.27L12256.6,7731.23L12255,7731.23ZM12411.1,7730.63L12410.5,7730.03L12407.9,7731.07L12411.7,7731.23L12411.1,7730.63ZM12056.6,7729.74L12057.2,7728.25L12051.2,7728.25L12052.4,7730.27L12054.3,7729.13L12054.3,7731.23L12056,7731.23L12056.6,7729.74ZM12229.5,7730.28L12230.3,7729.45L12237.2,7728L12234.8,7730.93L12228.6,7731.11L12229.5,7730.28ZM12220.7,7728.57L12222,7728.05L12223.2,7729.25L12219.4,7729.09L12220.7,7728.57ZM12194.8,7728.59L12194.1,7727.92L12194.1,7726.59L12199,7724.36L12200.4,7726.57L12196.7,7729.25L12195.4,7729.25L12194.8,7728.59ZM12156.3,7729.25L12157.5,7727.26L12155.4,7727.26L12155.4,7729.25L12156.3,7729.25ZM12239,7728.56L12240.7,7728.11L12240.7,7726.69L12248.7,7726.38L12248.7,7728.02L12244.2,7729.22L12237.3,7729.02L12239,7728.56ZM12167.2,7724.58L12170.6,7722.3L12167.8,7722.31L12161.4,7726.24L12161.4,7728.37L12163.9,7726.85L12167.2,7724.58ZM12410.7,7726.19L12411.2,7724.13L12408.6,7725.14L12404.9,7722.36L12403.4,7722.3L12403.4,7724.32L12409.9,7728.25L12410.1,7728.26L12410.7,7726.19ZM12258.7,7727.37L12257.4,7726.52L12259.4,7725.29L12260.5,7728.25L12260.1,7728.22L12258.7,7727.37ZM12226.9,7728.25L12226.9,7726.27L12229,7726.27L12227.7,7728.25L12226.9,7728.25ZM12286.9,7727.25L12289.6,7726.24L12287.2,7723.42L12289.4,7719.33L12287.4,7719.33L12284.2,7724.2L12285.5,7726.32L12283.2,7725.77L12282.2,7728.25L12284.3,7728.25L12286.9,7727.25ZM12382.6,7728.25L12382.6,7726.46L12386.6,7727.49L12386.6,7728.25L12382.6,7728.25ZM12039.4,7726.32L12041.8,7724.42L12040.4,7722.98L12036.9,7726.95L12034.1,7726.01L12035.5,7728.25L12036.9,7728.21L12039.4,7726.32ZM12324.8,7725.88L12325.2,7725.49L12319.1,7721.18L12319.1,7722.55L12316.1,7720.07L12313.3,7722.45L12314.2,7725.28L12315,7728.03L12324.4,7726.27L12324.8,7725.88ZM12443.1,7727.26L12443.1,7725.16L12445.1,7726.39L12445.1,7727.26L12443.1,7727.26ZM12280.8,7725.65L12281.7,7723.05L12279.1,7723.91L12278.2,7726.52L12280.8,7725.65ZM12353.8,7726.27L12353.8,7724.61L12358.9,7722.3L12359.8,7722.3L12359.8,7724.29L12356.8,7724.29L12356.8,7726.27L12353.8,7726.27ZM12311.1,7726.27L12312.3,7724.29L12309.1,7724.29L12310.3,7726.27L12311.1,7726.27ZM12293.3,7725.16L12293.3,7723.29L12290.3,7723.29L12290.3,7724.95L12291.6,7726.22L12293.3,7725.16ZM12056.7,7726.11L12054.3,7725.11L12051.8,7726.11L12056.7,7726.11ZM12253.6,7725.28L12253.6,7723.41L12256.1,7721.89L12251.2,7720.52L12256.5,7720.32L12260.1,7715.7L12262.6,7716.52L12262.6,7711.39L12265.1,7711.59L12270,7713.18L12267.4,7713.37L12264.6,7716.21L12264.6,7717.41L12268.1,7715.5L12270.5,7716.94L12267.4,7721.31L12264.6,7721.31L12264.6,7719.33L12259.5,7719.33L12260.7,7721.31L12257.8,7721.31L12256.8,7725.28L12253.6,7725.28ZM12222,7722.88L12223.1,7720.49L12227.4,7719.35L12230.3,7719.45L12225.5,7721.37L12227.8,7723.61L12230.8,7721.07L12230.8,7718.22L12232.7,7719.39L12231.8,7721.91L12226.1,7725.28L12221,7725.28L12222,7722.88ZM12201.3,7723.6L12203.1,7723.15L12203.1,7719L12204.4,7720.36L12204.7,7724.29L12199.6,7724.06L12201.3,7723.6ZM12237.7,7724.29L12238.9,7722.3L12236.8,7722.3L12236.8,7719.39L12233.8,7720.53L12233.8,7719.24L12237.8,7714.98L12237.8,7718L12241.8,7717.71L12244.1,7715.36L12248.1,7715.36L12245.8,7713.06L12242.8,7715.53L12240.7,7714.19L12243,7711.41L12244.7,7712.5L12244.7,7709.41L12245.7,7709.41L12249.6,7712.73L12247.4,7716.72L12243.7,7720.69L12243.7,7723.51L12240.6,7722.32L12241.9,7724.29L12237.7,7724.29ZM12302,7721.7L12301.4,7721.1L12298.8,7722.15L12302.6,7722.3L12302,7721.7ZM12439,7722.3L12440.3,7720.32L12437.2,7720.32L12437.2,7722.3L12439,7722.3ZM12402.4,7722.3L12402.4,7720.32L12400.5,7720.32L12400.5,7722.3L12402.4,7722.3ZM12351.2,7719.08L12351.8,7716.85L12348.5,7714.37L12343.4,7714.34L12340.5,7712.47L12340.2,7709.9L12339.9,7707.42L12337,7707.42L12337,7705.68L12339.7,7703.42L12343.4,7704.78L12339.6,7700.48L12334.5,7700.45L12336.9,7698.92L12333.1,7696.55L12332,7698.31L12328,7697.26L12322.8,7702.46L12321.3,7702.46L12312.9,7699.49L12309.8,7699.49L12313.7,7702.4L12309.1,7702.46L12310.3,7704.45L12307.2,7704.45L12307.2,7706.66L12312.1,7705.73L12314.2,7711.87L12310.8,7714.33L12308.2,7712.14L12308.2,7716.35L12312.8,7716.35L12315.4,7718.83L12316.3,7716.35L12319.1,7716.35L12318.6,7713.99L12322.1,7713.23L12322.1,7717.29L12327.3,7715.32L12333.9,7714.46L12336.9,7717.42L12343.4,7717.84L12344.7,7719.66L12349.8,7716.35L12350.7,7716.35L12349.6,7720.43L12346.9,7719.39L12346.9,7721.31L12350.6,7721.31L12351.2,7719.08ZM12304.2,7721.31L12304.2,7716.94L12302,7719.15L12303.4,7721.31L12304.2,7721.31ZM12430.8,7718.75L12428.8,7717.34L12432.7,7714.36L12429.2,7715.57L12429.2,7712.78L12431.6,7710.4L12428.3,7710.4L12426.2,7706.43L12423.8,7706.59L12426.2,7707.59L12426.2,7711.39L12428.2,7711.39L12426.5,7715.85L12431.6,7721.29L12432.7,7720.16L12430.8,7718.75ZM12174.9,7720.32L12177.3,7717.94L12177.3,7716.33L12173.3,7718.81L12173.3,7720.32L12174.9,7720.32ZM12207,7719.33L12207,7718.25L12211.4,7712.38L12213.9,7712.38L12213.2,7718.41L12211.7,7719.82L12213.1,7715.53L12210.7,7714.06L12212,7716.17L12210.8,7719.33L12207,7719.33ZM12363.3,7718.37L12362.6,7717.34L12365.7,7717.34L12365.7,7715.36L12368.8,7715.36L12367.7,7713.46L12364.8,7714.57L12363.1,7710.08L12361.8,7713.37L12363.8,7713.37L12363.8,7716.23L12361.4,7717.69L12360.6,7715.28L12357.8,7717.59L12357.8,7716.23L12355.8,7717.48L12356.7,7718.91L12363.9,7719.4L12363.3,7718.37ZM12435,7716.65L12435.2,7713.97L12432.4,7717.82L12433.3,7719.33L12434.7,7719.33L12435,7716.65ZM12439.8,7718.54L12441,7717.79L12439.3,7714.99L12436.2,7717.57L12437.3,7719.33L12438.6,7719.3L12439.8,7718.54ZM12358.8,7715.36L12358.8,7714.48L12356.8,7713.26L12356.8,7715.36L12358.8,7715.36ZM12271.8,7713.68L12273.5,7713.22L12276,7714.21L12270,7714.14L12271.8,7713.68ZM12191.6,7713.34L12194.6,7711.42L12191.6,7711.42L12188.7,7713.34L12191.6,7713.34ZM12325.6,7711.39L12325,7710.4L12326.6,7710.43L12329.5,7712.35L12326.2,7712.38L12325.6,7711.39ZM12188.4,7711.27L12188.8,7710.15L12199.1,7709.15L12199.1,7707.42L12202,7707.42L12204.5,7703.45L12206.2,7703.45L12215.3,7697.01L12218.8,7693.67L12224.4,7690.06L12227.4,7687.7L12235.8,7680.81L12237.5,7680.14L12238.8,7674.69L12234.8,7674.69L12230.9,7678.55L12225,7681.63L12216.4,7687.32L12209,7689.97L12209,7691.32L12215.9,7688.94L12217.3,7687.58L12221.9,7687.58L12221.9,7689.41L12212.2,7692.63L12205,7699.61L12196.1,7703.55L12196.1,7706.66L12201,7703.45L12203.1,7703.45L12203,7704.94L12197.7,7707.42L12194.4,7707.42L12187.3,7710.37L12186.1,7712.38L12188,7712.38L12188.4,7711.27ZM12255.6,7711.6L12255.6,7709.64L12259.6,7708.6L12260.7,7710.4L12258.8,7710.4L12255.6,7711.6ZM12274.5,7710.4L12276,7709.44L12277.5,7709.41L12277.5,7711.39L12273,7711.36L12274.5,7710.4ZM12239.6,7710.71L12240.9,7710.19L12242.1,7711.39L12238.3,7711.23L12239.6,7710.71ZM12284.2,7709.72L12285.5,7709.2L12286.7,7710.4L12282.9,7710.24L12284.2,7709.72ZM12264.6,7709.41L12264.6,7707.42L12272,7707.62L12267,7709.21L12264.6,7709.41ZM12247.7,7709.41L12247.7,7707.42L12249.9,7707.42L12249,7702.59L12250.4,7700.23L12252.6,7701.54L12250.3,7706.44L12251.8,7707.86L12253.2,7705.56L12258.7,7703.45L12261.6,7703.45L12261.6,7705.19L12253.6,7706.45L12253.6,7709.41L12247.7,7709.41ZM12421.3,7709.41L12421.3,7706.43L12418.3,7706.43L12418.3,7708.08L12419.6,7709.41L12421.3,7709.41ZM12166.4,7709.41L12166.4,7708.53L12164.4,7707.31L12164.4,7709.41L12166.4,7709.41ZM12345.9,7707.21L12345.9,7703.45L12343.7,7703.45L12344.8,7706.19L12342.4,7708.53L12345.9,7707.21ZM12233.7,7708.41L12234.9,7706.43L12235.8,7706.43L12235.8,7708.41L12233.7,7708.41ZM12278.7,7707.76L12277.5,7707.26L12277.5,7705.44L12280.4,7705.44L12280.4,7708.41L12279.9,7708.26L12278.7,7707.76ZM12356.2,7707.39L12353.8,7705.04L12353.8,7707.09L12355.2,7708.41L12356.2,7707.39ZM12352.9,7704.78L12351.5,7701.12L12350.1,7704.94L12351.1,7706.6L12352.9,7704.78ZM12265.8,7705.22L12263.6,7704.14L12263.6,7702.53L12266.5,7703.67L12266.5,7700.6L12268.2,7699.56L12277,7698.48L12274.5,7699.66L12275.6,7701.44L12269.8,7700.28L12268.5,7702.36L12275.7,7703.73L12272.5,7705.55L12270.6,7704.41L12269.4,7706.43L12268,7706.3L12265.8,7705.22ZM12246.1,7702.36L12245.5,7701.37L12242.7,7703.7L12242.7,7705.51L12246.8,7703.36L12246.1,7702.36ZM12282.7,7705.44L12282.7,7702.55L12284.4,7703.57L12284.4,7705.44L12282.7,7705.44ZM12073.9,7705.44L12076.4,7702.42L12073.1,7703.67L12073.1,7705.44L12073.9,7705.44ZM12228.8,7701.91L12227.7,7700.6L12224.9,7701.68L12224.9,7703.29L12227.4,7704.15L12229.9,7703.22L12228.8,7701.91ZM12343.9,7700.48L12343.9,7698.49L12341.9,7698.49L12341.9,7700.48L12343.9,7700.48ZM12281.4,7699.49L12281.4,7697.57L12284.4,7698.71L12284.4,7699.49L12281.4,7699.49ZM12233.4,7697.04L12235.3,7695.58L12232.1,7695.52L12229.6,7698.49L12231.4,7698.49L12233.4,7697.04ZM12342.2,7691.97L12342.9,7690.74L12347.4,7691.7L12343.7,7688.71L12339.6,7690.23L12338.1,7694.43L12341.4,7693.19L12342.2,7691.97ZM12243.1,7691.41L12243.1,7691.5L12240.3,7693.69L12243.2,7692.85L12243.1,7691.5L12243.2,7691.38L12243.1,7691.41ZM12261.9,7691.94L12264.7,7690.43L12267,7691.39L12263.6,7691.55L12263.6,7693.53L12259.1,7693.46L12261.9,7691.94ZM12243.1,7691.41L12243,7690.47L12242.7,7688.08L12244.8,7691.55L12248.7,7691.55L12248.7,7689.38L12244.9,7688.38L12245.9,7685.6L12244.2,7685.68L12236.4,7692.56L12243.1,7691.41ZM12305.2,7692.54L12305.2,7690.56L12302.3,7690.56L12302.3,7692.54L12305.2,7692.54ZM12259.2,7690.61L12257.2,7689.91L12259.6,7688.46L12261.5,7689.61L12263.5,7686.1L12263.6,7689.32L12261.1,7691.31L12259.2,7690.61ZM12296.9,7688.06L12296.6,7685.56L12294.8,7685.6L12294.8,7687.42L12293.3,7688.91L12293.3,7690.56L12297.2,7690.56L12296.9,7688.06ZM12273.2,7687.98L12272.6,7687.38L12270,7688.42L12273.8,7688.57L12273.2,7687.98ZM12308.3,7688.57L12307.1,7686.59L12313,7686.59L12314.3,7688.57L12308.3,7688.57ZM12308.4,7684.61L12309.4,7680.64L12310.2,7680.64L12310.2,7684.61L12308.4,7684.61ZM12172.9,7680.18L12174.5,7677.66L12175.3,7677.66L12175.3,7680.16L12171.2,7682.7L12172.9,7680.18ZM12264.4,7681.95L12265.7,7681.43L12266.9,7682.62L12263.1,7682.47L12264.4,7681.95ZM12120.6,7682.62L12121.8,7680.64L12118.7,7680.64L12118.7,7682.62L12120.6,7682.62ZM12258.6,7680.64L12258.6,7678.65L12260.4,7678.65L12264.1,7677.5L12260.2,7680.64L12258.6,7680.64ZM12105.8,7676.86L12105.8,7675.18L12103.9,7678.16L12103.9,7679.76L12105.8,7678.54L12105.8,7676.86ZM12261.4,7675.99L12262.7,7675.47L12263.9,7676.67L12260.1,7676.52L12261.4,7675.99ZM12274.9,7674L12275.5,7672.82L12272.2,7671L12277.7,7669.63L12278.8,7670.78L12274.2,7675.18L12274.9,7674ZM12176.2,7674.69L12177.4,7672.7L12178.3,7672.7L12178.3,7674.69L12176.2,7674.69ZM12168.3,7666.64L12168.3,7664.13L12172.8,7659.94L12175.3,7656.91L12175.3,7655.53L12179.9,7649.39L12181.3,7646.91L12179.3,7646.91L12173.9,7655.34L12168.6,7662.29L12163.2,7672.21L12168.3,7666.64ZM12176.3,7668.49L12176.3,7666.51L12173.3,7668.98L12173.3,7670.96L12176.3,7668.49ZM12279.4,7670.4L12279.9,7669.92L12283.9,7669.23L12285.5,7667.25L12284.7,7670.22L12278.9,7670.89L12279.4,7670.4ZM12409.4,7668.74L12409.4,7666.75L12407.4,7666.75L12407.4,7668.74L12409.4,7668.74ZM12334,7667.74L12334,7665.93L12331.5,7665.04L12333,7663.41L12335.4,7665.76L12337.5,7665.69L12332.8,7661.79L12330.2,7661.79L12329.2,7659.31L12326.3,7662.88L12327.3,7666.64L12332.5,7667.45L12334,7667.74ZM12267.5,7667.56L12267.5,7665.76L12266.7,7665.76L12265.4,7667.74L12267.2,7667.74L12267.1,7667.66L12267.5,7667.56ZM12290.7,7664.73L12291.8,7664.62L12292.5,7667.25L12290.7,7664.73ZM12290.7,7664.73L12290.4,7664.77L12290.3,7666.75L12285.4,7666.75L12285.4,7665.76L12285.4,7664.77L12290.3,7664.77L12290.4,7664.77L12290.4,7664.27L12290.7,7664.73ZM12121.1,7664.25L12121.7,7662.74L12117.7,7664.84L12117.7,7665.76L12120.5,7665.76L12121.1,7664.25ZM12124.6,7659.81L12125.8,7657.82L12123.7,7657.82L12123.7,7659.81L12124.6,7659.81ZM12304.5,7658.16L12303.2,7657.66L12303.2,7656.07L12308.2,7655.12L12308.2,7658.82L12305.7,7658.66L12304.5,7658.16ZM12131.1,7655.2L12131.7,7653.57L12128.2,7656.27L12127.3,7656.83L12130.4,7656.83L12131.1,7655.2ZM12299,7655.84L12301.5,7652.86L12298.3,7652.86L12298.3,7655.84L12299,7655.84ZM12196.1,7653.64L12196.1,7652.86L12193.1,7652.86L12193.1,7654.78L12196.1,7653.64ZM12139.6,7652.75L12139.6,7650.88L12137.6,7650.88L12137.6,7653.97L12139.6,7652.75ZM12191,7643.93L12184.9,7649.9L12186.1,7651.16L12189.5,7648.41L12188,7652.86L12190,7652.86L12190.6,7650.97L12191.2,7649.08L12194.1,7647.97L12194.1,7645.92L12191.9,7646.42L12191,7643.93L12191.2,7643.76L12190.9,7643.44L12191,7643.93ZM12182.1,7651.87L12187.4,7642.85L12186.2,7641.62L12185.7,7642.45L12181.6,7648.4L12180.3,7651.87L12182.1,7651.87ZM12202.8,7650.28L12202.2,7649.68L12199.6,7650.72L12203.4,7650.88L12202.8,7650.28ZM12149.5,7647.83L12149.5,7647.19L12144.6,7648.13L12145.6,7649.89L12149.5,7647.83ZM12157.4,7649.89L12157.4,7646.91L12154.4,7646.91L12154.4,7648.73L12156.9,7649.73L12157.4,7649.89ZM12157.4,7642.94L12162.9,7639.61L12165.4,7636.61L12165.4,7635.01L12163.4,7635.01L12163.4,7637.49L12155.4,7642.01L12155.4,7643.94L12152.5,7643.94L12152.5,7646.15L12157.4,7642.94ZM12191.2,7643.76L12192.3,7644.77L12197,7640.66L12196.1,7639.07L12191.2,7643.76ZM12151.4,7643.94L12152.7,7641.82L12151.8,7640.91L12149.2,7643.94L12151.4,7643.94ZM12220.8,7643.94L12222,7641.95L12220,7641.95L12218.8,7643.94L12220.8,7643.94ZM12300.3,7640.96L12300.3,7640.09L12298.3,7638.86L12298.3,7640.96L12300.3,7640.96ZM12228.8,7637.87L12228.8,7636.06L12225.9,7637.2L12227,7639.01L12228.8,7637.87ZM12171.3,7636.99L12172.8,7636.03L12169.4,7636L12168.2,7637.98L12169.8,7637.95L12171.3,7636.99ZM12309.9,7631.04L12311.9,7631.04L12314.2,7625.85L12320.1,7627.02L12320.1,7625.25L12317.6,7624.1L12320.1,7622.94L12320.1,7619.01L12315.8,7619.63L12315.1,7617.38L12321,7617.68L12322.4,7619.14L12325.1,7619.14L12325.1,7616.94L12322.3,7618.01L12321.1,7616.82L12324.5,7613.06L12321.6,7611.23L12325.1,7611.2L12325.1,7610.37L12326.4,7606.94L12320.6,7608.38L12319.2,7610.7L12320.2,7614.18L12318,7614.18L12312.1,7618.55L12317.4,7623.04L12312.4,7625.31L12309.9,7630.05L12306.6,7630.05L12304.2,7632.43L12304.2,7634.32L12307.9,7631.04L12309.9,7631.04ZM12236.8,7634.02L12236.8,7632.03L12234.8,7632.03L12234.8,7634.02L12236.8,7634.02ZM12203.6,7630.63L12206.5,7628.24L12205.4,7627.15L12199.1,7631.01L12199.1,7633.02L12200.6,7633.01L12203.6,7630.63ZM12176.3,7633.02L12176.3,7631.04L12174.3,7631.04L12174.3,7633.02L12176.3,7633.02ZM12308.1,7625.09L12310.2,7625.09L12310.2,7622.97L12305.7,7624.34L12305,7624.94L12306.5,7629.52L12308.1,7625.09ZM12204,7625.09L12204,7624.21L12202.2,7623.07L12201,7625.09L12204,7625.09ZM12366.7,7625.09L12366.7,7624.21L12364.7,7622.99L12364.7,7625.09L12366.7,7625.09ZM12356.8,7613.19L12356.8,7610.39L12352.5,7611.53L12356.3,7613.05L12356.8,7613.19ZM12386.5,7613.19L12387.7,7611.2L12384.5,7611.2L12385.7,7613.19L12386.5,7613.19ZM12331.3,7610.21L12330.8,7608.23L12329.2,7608.23L12329.9,7611.7L12330,7612.19L12331.8,7612.19L12331.3,7610.21ZM12226.9,7608.11L12226.9,7606.12L12224.9,7607.35L12224.9,7609.33L12226.9,7608.11ZM12360.8,7609.22L12360.8,7607.23L12358.8,7607.23L12358.8,7609.22L12360.8,7609.22ZM12330,7606.28L12331.5,7605.36L12330.5,7604.42L12326.7,7607.23L12328.5,7607.2L12330,7606.28ZM12360.1,7604.78L12360.7,7603.33L12358.8,7602.16L12358.8,7606.24L12359.6,7606.24L12360.1,7604.78ZM12348.4,7603.46L12347.8,7602.9L12345.4,7605.37L12349,7604.01L12348.4,7603.46ZM12326.2,7603.48L12324.9,7603.04L12322.8,7605.14L12327.5,7603.91L12326.2,7603.48ZM12331.2,7600.97L12329,7598.67L12329,7597.01L12333,7600.61L12334.4,7599.19L12331.5,7597.34L12334,7597.31L12334,7594.34L12336,7594.34L12336,7592.35L12332,7592.35L12332,7596.32L12326.3,7596.32L12325,7599.58L12325.6,7600.18L12331.5,7603.25L12333.3,7603.27L12331.2,7600.97ZM12371.7,7598.88L12371.7,7597.71L12369.3,7595.33L12367.2,7595.36L12370.2,7597.28L12367.7,7597.31L12367.7,7599.17L12371.7,7598.88ZM12338.5,7597.79L12339.2,7592.86L12335,7596.63L12335,7598.45L12338.5,7597.79ZM12366.7,7596.32L12366.7,7594.45L12364.7,7593.23L12364.7,7596.32L12366.7,7596.32ZM12276.5,7584.6L12276.5,7583.61L12272.6,7584.61L12271.5,7587.57L12272.6,7589.44L12276.5,7584.6ZM12345.4,7589.31L12341.6,7586.42L12340.7,7587.26L12342,7589.38L12345.4,7589.31ZM12364.7,7589.38L12364.7,7587.72L12363.6,7586.54L12360.6,7587.67L12363.3,7589.35L12364.7,7589.38ZM12349.9,7587.39L12349.9,7585.47L12346.9,7586.61L12346.9,7587.39L12349.9,7587.39ZM12344.9,7582.93L12344.9,7580.94L12343.1,7583.75L12339.8,7580.45L12339,7580.45L12339,7581.36L12343.3,7585.41L12344.9,7582.93ZM12344.9,7579.46L12344.9,7577.59L12342.8,7576.28L12341.7,7577.34L12343,7579.46L12344.9,7579.46ZM12348.9,7579.46L12348.9,7576.6L12346.8,7575.29L12345.7,7576.4L12346.8,7579.46L12348.9,7579.46ZM12292.3,7573.35L12293.7,7572.88L12291.7,7571.6L12287.3,7574.63L12288.7,7576.78L12290.8,7573.83L12292.3,7573.35ZM12340.9,7575.49L12340.9,7573.51L12339,7573.51L12339,7575.49L12340.9,7575.49ZM12627.6,7573.51L12627.6,7572.73L12624.5,7571.54L12625.8,7573.51L12627.6,7573.51ZM12385.4,7571.34L12385,7570.16L12382.6,7569.37L12383.8,7572.51L12385.7,7572.51L12385.4,7571.34ZM12335.1,7563.59L12337,7563.59L12337,7561.6L12335.4,7561.6L12331.5,7564.74L12335.1,7563.59ZM12360.8,7562.59L12360.8,7560.61L12356.7,7560.61L12357.9,7562.59L12360.8,7562.59ZM12280,7561.05L12281.9,7559.51L12277,7561.87L12276.1,7562.59L12278.1,7562.59L12280,7561.05ZM12311.2,7561.6L12321.1,7556.15L12322.1,7553.38L12321.3,7552.51L12317.1,7554.76L12318.2,7556.64L12313,7556.64L12307.5,7560.55L12305.9,7559.12L12307.3,7561.6L12311.2,7561.6ZM12363.8,7561.6L12363.8,7558.06L12359.8,7558.06L12359.8,7559.52L12363.3,7561.54L12363.8,7561.6ZM12317.9,7550.65L12321.1,7547.74L12321.1,7546.57L12314.7,7547.96L12313.1,7550.69L12311,7550.69L12307.3,7555.15L12307.2,7557.76L12314.7,7553.55L12317.9,7550.65ZM12377.6,7556.64L12377.6,7553.55L12375.7,7554.78L12375.7,7556.64L12377.6,7556.64ZM12373.3,7554.12L12373.9,7552.59L12373,7551.67L12369.4,7555.65L12372.7,7555.65L12373.3,7554.12ZM12383.6,7542.75L12383.6,7541.88L12381.6,7540.65L12381.6,7542.75L12383.6,7542.75ZM12412.2,7538.84L12411.2,7535.93L12408.4,7533.58L12408.4,7540.61L12410.9,7541.61L12413.2,7541.76L12412.2,7538.84ZM12387.9,7534.85L12387.5,7534.38L12385.6,7537.3L12385.6,7539.17L12388.4,7535.32L12387.9,7534.85ZM12376.6,7535.81L12376.6,7533.83L12380.7,7533.83L12379.5,7531.84L12374.5,7531.84L12375.8,7533.83L12373.7,7533.83L12373.7,7535.81L12376.6,7535.81ZM12396.3,7527.27L12396.7,7525.4L12394.3,7527.72L12391.5,7526.67L12391.5,7530.79L12396,7529.14L12396.3,7527.27ZM12334.7,7525.29L12334.1,7524.69L12331.5,7525.73L12335.3,7525.89L12334.7,7525.29ZM12416.2,7522.91L12417.4,7520.93L12415.3,7520.93L12415.3,7522.91L12416.2,7522.91ZM12402.3,7522.91L12403.6,7520.93L12401.4,7520.93L12401.4,7522.91L12402.3,7522.91ZM12406.4,7518.95L12406.4,7518.03L12401.9,7515.65L12404.7,7518.95L12406.4,7518.95ZM12405,7506.32L12404.4,7505.72L12403.2,7506.91L12404.8,7509.43L12405.6,7506.92L12405,7506.32ZM12401.3,7505.18L12402.6,7504.34L12399.7,7503.21L12398.5,7504.4L12398.5,7506.05L12400,7506.02L12401.3,7505.18Z" style="fill:url(#_Linear4);fill-rule:nonzero;"/>
                            </g>
                        </g>
                    </g>
                    <g transform="matrix(1.28133,0,0,1.28133,-1890.86,-831.189)">
                        <path d="M12346.7,8949.84L9273.37,8949.84L9273.37,9136.65L12346.7,9136.65L12346.7,8949.84ZM12346.7,8789.23L9273.37,8789.23L9273.37,8899.49L12346.7,8899.49L12346.7,8789.23ZM12346.7,8694.44L9273.37,8694.44L9273.37,8759.51L12346.7,8759.51L12346.7,8694.44ZM12346.7,8638.48L9273.37,8638.48L9273.37,8676.9L12346.7,8676.9L12346.7,8638.48Z" style="fill:white;"/>
                    </g>
                </g>
                <path d="M11768.6,7840.12C12559.4,7840.12 13201.5,8482.21 13201.5,9273.09C13201.5,10064 12559.4,10706.1 11768.6,10706.1C10977.7,10706.1 10335.6,10064 10335.6,9273.09C10335.6,8482.21 10977.7,7840.12 11768.6,7840.12ZM11768.6,7852.81C12160.5,7852.81 12515.6,8011.91 12772.6,8269C13029.7,8526.08 13188.8,8881.15 13188.8,9273.09C13188.8,9665.02 13029.7,10020.1 12772.6,10277.2C12515.6,10534.3 12160.5,10693.4 11768.6,10693.4C11376.6,10693.4 11021.5,10534.3 10764.5,10277.2C10507.4,10020.1 10348.3,9665.02 10348.3,9273.09C10348.3,8881.15 10507.4,8526.08 10764.5,8269C11021.5,8011.91 11376.6,7852.81 11768.6,7852.81Z" style="fill-opacity:0.3;"/>
            </g>
        </g>
        <g transform="matrix(1,0,0,1,-0.151541,-0.600684)">
            <g transform="matrix(0.503967,0,0,0.503967,10011.9,3051.23)">
                <path d="M11768.6,7840.12C12559.4,7840.12 13201.5,8482.21 13201.5,9273.09C13201.5,10064 12559.4,10706.1 11768.6,10706.1C10977.7,10706.1 10335.6,10064 10335.6,9273.09C10335.6,8482.21 10977.7,7840.12 11768.6,7840.12ZM11768.6,7968.25C12128.6,7968.25 12454.8,8114.44 12691,8350.63C12927.2,8586.82 13073.4,8913.01 13073.4,9273.09C13073.4,9633.16 12927.2,9959.36 12691,10195.5C12454.8,10431.7 12128.6,10577.9 11768.6,10577.9C11408.5,10577.9 11082.3,10431.7 10846.1,10195.5C10609.9,9959.36 10463.7,9633.16 10463.7,9273.09C10463.7,8913.01 10609.9,8586.82 10846.1,8350.63C11082.3,8114.44 11408.5,7968.25 11768.6,7968.25Z" style="fill:url(#_Linear5);"/>
            </g>
        </g>
        <g transform="matrix(1,0,0,1,-0.151541,-0.600684)">
            <g transform="matrix(1,0,0,1,1829.51,-2.85214)">
                <g transform="matrix(0.412135,0,0,0.412135,9901.97,4253.71)">
                    <path d="M9406.57,8701.33C9406.57,8764.93 9378.66,8806.39 9322.84,8825.69C9303.38,8832.49 9282.45,8835.89 9260.05,8835.89C9213.04,8835.89 9169.43,8821.66 9129.22,8793.2L9171.09,8714.43C9200.52,8741.06 9229.32,8754.37 9257.47,8754.37C9270.17,8754.37 9280.93,8751.4 9289.76,8745.46C9300.07,8738.79 9305.22,8729.33 9305.22,8717.09C9305.22,8705.96 9299.51,8696.68 9288.11,8689.27C9279.65,8683.7 9265.4,8678.04 9245.35,8672.29C9221.07,8665.14 9205.8,8660.19 9199.55,8657.44C9189.62,8653.22 9181.16,8648.27 9174.17,8642.58C9154.12,8626.08 9144.09,8601.14 9144.09,8567.76C9144.09,8532.91 9154.47,8504.03 9175.22,8481.1C9199.45,8454.14 9231.77,8440.66 9272.17,8440.66C9312.75,8440.66 9352.5,8450.85 9391.42,8471.24L9352.31,8547.25C9330.96,8530.54 9309.42,8522.19 9287.7,8522.19C9277.2,8522.19 9267.82,8524.86 9259.53,8530.21C9250.14,8536.29 9245.45,8544.4 9245.45,8554.53C9245.45,8564.48 9251.61,8573.05 9263.93,8580.24C9269.45,8583.56 9286.01,8589.27 9313.59,8597.38C9348.18,8607.49 9372.82,8621.83 9387.53,8640.4C9400.23,8656.2 9406.57,8676.52 9406.57,8701.33Z" style="fill:rgb(153,153,153);fill-rule:nonzero;"/>
                    <path d="M9796.29,8666.51C9796.29,8689.09 9794.46,8708.37 9790.78,8724.35C9785.09,8749.14 9771.5,8771.72 9750.02,8792.1C9719.54,8820.93 9678.78,8835.34 9627.73,8835.34C9575.77,8835.34 9535.19,8820.65 9506,8791.27C9490.58,8775.85 9480.02,8756.48 9474.33,8733.16C9470.28,8716.64 9468.27,8694.42 9468.27,8666.51L9468.27,8449.75L9566.04,8449.75L9566.04,8653.1C9566.04,8669.43 9566.32,8681.63 9566.87,8689.7C9568.7,8715.2 9580.36,8732.99 9601.84,8743.08C9610.66,8747.3 9620.39,8749.41 9631.04,8749.41C9654.91,8749.41 9672.9,8741.06 9685.02,8724.37C9694.02,8712.08 9698.52,8688.32 9698.52,8653.1L9698.52,8449.75L9796.29,8449.75L9796.29,8666.51Z" style="fill:rgb(153,153,153);fill-rule:nonzero;"/>
                    <path d="M10329.5,8825.7L10231.7,8825.7L10203.9,8609.22L10113.1,8825.7L10074.3,8825.7L9987.68,8609.22L9955.76,8825.7L9858.26,8825.7L9922.16,8449.75L10018.8,8449.75L10094.9,8650.26L10175.3,8449.75L10272.8,8449.75L10329.5,8825.7Z" style="fill:rgb(153,153,153);fill-rule:nonzero;"/>
                    <path d="M10845.9,8825.7L10748.1,8825.7L10720.4,8609.22L10629.6,8825.7L10590.8,8825.7L10504.1,8609.22L10472.2,8825.7L10374.7,8825.7L10438.6,8449.75L10535.2,8449.75L10611.3,8650.26L10691.7,8449.75L10789.2,8449.75L10845.9,8825.7Z" style="fill:rgb(153,153,153);fill-rule:nonzero;"/>
                    <rect x="10907.9" y="8449.75" width="97.774" height="375.949" style="fill:rgb(153,153,153);fill-rule:nonzero;"/>
                    <path d="M11307.5,8531.28L11226.6,8531.28L11226.6,8825.7L11128.8,8825.7L11128.8,8531.28L11049.2,8531.28L11049.2,8449.75L11307.5,8449.75L11307.5,8531.28Z" style="fill:rgb(153,153,153);fill-rule:nonzero;"/>
                </g>
                <g transform="matrix(0.412135,0,0,0.412135,9901.97,4248.71)">
                    <path d="M9406.57,8701.33C9406.57,8764.93 9378.66,8806.39 9322.84,8825.69C9303.38,8832.49 9282.45,8835.89 9260.05,8835.89C9213.04,8835.89 9169.43,8821.66 9129.22,8793.2L9171.09,8714.43C9200.52,8741.06 9229.32,8754.37 9257.47,8754.37C9270.17,8754.37 9280.93,8751.4 9289.76,8745.46C9300.07,8738.79 9305.22,8729.33 9305.22,8717.09C9305.22,8705.96 9299.51,8696.68 9288.11,8689.27C9279.65,8683.7 9265.4,8678.04 9245.35,8672.29C9221.07,8665.14 9205.8,8660.19 9199.55,8657.44C9189.62,8653.22 9181.16,8648.27 9174.17,8642.58C9154.12,8626.08 9144.09,8601.14 9144.09,8567.76C9144.09,8532.91 9154.47,8504.03 9175.22,8481.1C9199.45,8454.14 9231.77,8440.66 9272.17,8440.66C9312.75,8440.66 9352.5,8450.85 9391.42,8471.24L9352.31,8547.25C9330.96,8530.54 9309.42,8522.19 9287.7,8522.19C9277.2,8522.19 9267.82,8524.86 9259.53,8530.21C9250.14,8536.29 9245.45,8544.4 9245.45,8554.53C9245.45,8564.48 9251.61,8573.05 9263.93,8580.24C9269.45,8583.56 9286.01,8589.27 9313.59,8597.38C9348.18,8607.49 9372.82,8621.83 9387.53,8640.4C9400.23,8656.2 9406.57,8676.52 9406.57,8701.33Z" style="fill:white;fill-rule:nonzero;"/>
                    <path d="M9796.29,8666.51C9796.29,8689.09 9794.46,8708.37 9790.78,8724.35C9785.09,8749.14 9771.5,8771.72 9750.02,8792.1C9719.54,8820.93 9678.78,8835.34 9627.73,8835.34C9575.77,8835.34 9535.19,8820.65 9506,8791.27C9490.58,8775.85 9480.02,8756.48 9474.33,8733.16C9470.28,8716.64 9468.27,8694.42 9468.27,8666.51L9468.27,8449.75L9566.04,8449.75L9566.04,8653.1C9566.04,8669.43 9566.32,8681.63 9566.87,8689.7C9568.7,8715.2 9580.36,8732.99 9601.84,8743.08C9610.66,8747.3 9620.39,8749.41 9631.04,8749.41C9654.91,8749.41 9672.9,8741.06 9685.02,8724.37C9694.02,8712.08 9698.52,8688.32 9698.52,8653.1L9698.52,8449.75L9796.29,8449.75L9796.29,8666.51Z" style="fill:white;fill-rule:nonzero;"/>
                    <path d="M10329.5,8825.7L10231.7,8825.7L10203.9,8609.22L10113.1,8825.7L10074.3,8825.7L9987.68,8609.22L9955.76,8825.7L9858.26,8825.7L9922.16,8449.75L10018.8,8449.75L10094.9,8650.26L10175.3,8449.75L10272.8,8449.75L10329.5,8825.7Z" style="fill:white;fill-rule:nonzero;"/>
                    <path d="M10845.9,8825.7L10748.1,8825.7L10720.4,8609.22L10629.6,8825.7L10590.8,8825.7L10504.1,8609.22L10472.2,8825.7L10374.7,8825.7L10438.6,8449.75L10535.2,8449.75L10611.3,8650.26L10691.7,8449.75L10789.2,8449.75L10845.9,8825.7Z" style="fill:white;fill-rule:nonzero;"/>
                    <rect x="10907.9" y="8449.75" width="97.774" height="375.949" style="fill:white;fill-rule:nonzero;"/>
                    <path d="M11307.5,8531.28L11226.6,8531.28L11226.6,8825.7L11128.8,8825.7L11128.8,8531.28L11049.2,8531.28L11049.2,8449.75L11307.5,8449.75L11307.5,8531.28Z" style="fill:white;fill-rule:nonzero;"/>
                </g>
            </g>
        </g>
        <g transform="matrix(1,0,0,1,-0.151541,-0.600684)">
            <g transform="matrix(1.13606,0,0,1.13606,-61.0059,-1107.92)">
                <g transform="matrix(0.64575,0,0,0.64575,8467.44,2333.56)">
                    <path d="M8725.17,8966.88L8704.27,9013.91L8574.26,9013.91L8574.26,9011.3L8645.25,8918.65C8655.27,8905.46 8660.28,8893.14 8660.28,8881.68C8660.28,8870.66 8656.07,8862.11 8647.65,8856.02C8639.95,8850.22 8629.79,8847.32 8617.16,8847.32C8609.03,8847.32 8599.38,8849.42 8588.2,8853.63L8588.2,8809.67C8601.67,8806.32 8615.44,8804.64 8629.5,8804.64C8653.27,8804.64 8672.58,8810.82 8687.43,8823.17C8702.29,8835.53 8709.71,8851.45 8709.71,8870.93C8709.71,8888.66 8703.91,8906.04 8692.29,8923.05L8662.46,8966.88L8725.17,8966.88Z" style="fill:rgb(168,169,61);fill-rule:nonzero;"/>
                    <path d="M8910.28,8966.88L8889.37,9013.91L8759.36,9013.91L8759.36,9011.3L8830.36,8918.65C8840.38,8905.46 8845.38,8893.14 8845.38,8881.68C8845.38,8870.66 8841.17,8862.11 8832.75,8856.02C8825.06,8850.22 8814.9,8847.32 8802.27,8847.32C8794.14,8847.32 8784.48,8849.42 8773.3,8853.63L8773.3,8809.67C8786.78,8806.32 8800.55,8804.64 8814.6,8804.64C8838.37,8804.64 8857.68,8810.82 8872.54,8823.17C8887.39,8835.53 8894.82,8851.45 8894.82,8870.93C8894.82,8888.66 8889.01,8906.04 8877.4,8923.05L8847.56,8966.88L8910.28,8966.88Z" style="fill:rgb(168,169,61);fill-rule:nonzero;"/>
                </g>
                <g transform="matrix(0.64575,0,0,0.64575,8467.44,2327.56)">
                    <path d="M8725.17,8966.88L8704.27,9013.91L8574.26,9013.91L8574.26,9011.3L8645.25,8918.65C8655.27,8905.46 8660.28,8893.14 8660.28,8881.68C8660.28,8870.66 8656.07,8862.11 8647.65,8856.02C8639.95,8850.22 8629.79,8847.32 8617.16,8847.32C8609.03,8847.32 8599.38,8849.42 8588.2,8853.63L8588.2,8809.67C8601.67,8806.32 8615.44,8804.64 8629.5,8804.64C8653.27,8804.64 8672.58,8810.82 8687.43,8823.17C8702.29,8835.53 8709.71,8851.45 8709.71,8870.93C8709.71,8888.66 8703.91,8906.04 8692.29,8923.05L8662.46,8966.88L8725.17,8966.88Z" style="fill:white;fill-rule:nonzero;"/>
                    <path d="M8910.28,8966.88L8889.37,9013.91L8759.36,9013.91L8759.36,9011.3L8830.36,8918.65C8840.38,8905.46 8845.38,8893.14 8845.38,8881.68C8845.38,8870.66 8841.17,8862.11 8832.75,8856.02C8825.06,8850.22 8814.9,8847.32 8802.27,8847.32C8794.14,8847.32 8784.48,8849.42 8773.3,8853.63L8773.3,8809.67C8786.78,8806.32 8800.55,8804.64 8814.6,8804.64C8838.37,8804.64 8857.68,8810.82 8872.54,8823.17C8887.39,8835.53 8894.82,8851.45 8894.82,8870.93C8894.82,8888.66 8889.01,8906.04 8877.4,8923.05L8847.56,8966.88L8910.28,8966.88Z" style="fill:white;fill-rule:nonzero;"/>
                </g>
            </g>
        </g>
    </g>
    <defs>
        <linearGradient id="_Linear1" x1="0" y1="0" x2="1" y2="0" gradientUnits="userSpaceOnUse" gradientTransform="matrix(3.60687e-12,-1580.8,1580.8,3.60687e-12,11768.6,9713.14)"><stop offset="0" style="stop-color:rgb(234,195,1);stop-opacity:1"/><stop offset="0.18" style="stop-color:rgb(158,168,103);stop-opacity:1"/><stop offset="0.52" style="stop-color:rgb(83,141,204);stop-opacity:1"/><stop offset="1" style="stop-color:rgb(0,152,180);stop-opacity:1"/></linearGradient>
        <linearGradient id="_Linear4" x1="0" y1="0" x2="1" y2="0" gradientUnits="userSpaceOnUse" gradientTransform="matrix(3.3886e-14,-553.401,553.401,3.3886e-14,12575.9,8147.69)"><stop offset="0" style="stop-color:rgb(255,212,0);stop-opacity:1"/><stop offset="1" style="stop-color:rgb(0,86,180);stop-opacity:1"/></linearGradient>
        <linearGradient id="_Linear5" x1="0" y1="0" x2="1" y2="0" gradientUnits="userSpaceOnUse" gradientTransform="matrix(1.29142e-13,2109.05,-2109.05,1.29142e-13,11768.6,8292.14)"><stop offset="0" style="stop-color:white;stop-opacity:0.3"/><stop offset="1" style="stop-color:white;stop-opacity:0"/></linearGradient>
    </defs>
</svg>
