<?xml version="1.0" encoding="utf-8"?>
<!-- Generator: Adobe Illustrator 24.1.2, SVG Export Plug-In . SVG Version: 6.00 Build 0)  -->
<svg version="1.1" id="Layer_1" xmlns:serif="http://www.serif.com/"
	 xmlns="http://www.w3.org/2000/svg" xmlns:xlink="http://www.w3.org/1999/xlink" x="0px" y="0px" viewBox="0 0 337.5 337.5"
	 style="enable-background:new 0 0 337.5 337.5;" xml:space="preserve">
<style type="text/css">
	.st0{fill-rule:evenodd;clip-rule:evenodd;fill:url(#SVGID_1_);}
	.st1{fill:#FFFFFF;}
	.st2{font-family:'Rockwell-Regular';}
	.st3{font-size:32.4572px;}
	.st4{fill-rule:evenodd;clip-rule:evenodd;fill:#FFFFFF;}
	
		.st5{fill:none;stroke:#FFFFFF;stroke-width:9.7863;stroke-linecap:round;stroke-linejoin:round;stroke-miterlimit:10;stroke-opacity:0.4;}
	.st6{clip-path:url(#SVGID_3_);}
</style>
<linearGradient id="SVGID_1_" gradientUnits="userSpaceOnUse" x1="33.6309" y1="371.3565" x2="34.881" y2="371.3565" gradientTransform="matrix(1.240364e-14 202.567 202.567 -1.240364e-14 -75055.8438 -6770.1035)">
	<stop  offset="0" style="stop-color:#400E89"/>
	<stop  offset="1" style="stop-color:#0E8985"/>
</linearGradient>
<rect class="st0" width="337.5" height="337.5"/>
<g>
	<text transform="matrix(1 0 0 1 99.9212 273.3927)" class="st1 st2 st3">SUMMIT</text>
	<path class="st4" d="M123.5,187c0,0,6.6-3.3,7.7-5.3c1.1-2,3.2-0.9,4.3-1.5c1.2-0.6,4.1-1.1,5.2-2.4c1.1-1.3,0.8-3.3,1.6-3.9
		s2.4-0.1,3.8-0.5c1.4-0.4,4.9,0.3,6.2,0.1c1.3-0.3,4-0.1,4.7-0.2c0.8-0.1,1.8-2,4.4-3.3c2.6-1.4,4.2-2.8,5.7-3.8
		c1.5-1,4.1-2.2,5.1-2.6c1-0.4,1.2-2,2.9-4.6c1.7-2.6,3.2-4.9,3.9-6.1c0.7-1.2,2.5-3.7,3.3-3.6c0.7,0.1,2.9,5,3.6,6.6
		c0.7,1.6,1.1,2.8,2,3.7c0.9,0.9,2.5,7.8,4.1,6.5c1.6-1.4,2.7-3.3,3.6-4.4c0.9-1,5.2-6.6,8.9-9.4s3.7-3.2,5-5.2
		c1.3-2,1.9-3.1,2.9-4.3c1.1-1.2,2.4-4,3.4-5.8c1-1.8,3-4.5,4-4.6c1-0.1,1.7,2.1,2.7,3.5c1,1.5,1.6,3.2,2.3,4.6
		c0.7,1.4,2.5,4.6,3.1,5.6c0.6,1,0.1,2.6,0.9,3.2c0.8,0.6,0,3.3,2,4c2,0.7,2.4,0.8,2.8,1.3c0.4,0.5,1,3.3,2.1,4.3
		c1.1,1.1,2.9,5.7,4.4,5.7s3.4-1.3,4.4-4.2c1.1-2.9,1.2-3.6,2.3-5.2c1.2-1.6,4.8-6,6.5-5.7c1.7,0.3,4.5,2.9,5.7,4.3
		c1.2,1.4,2,2.4,2.7,1.5c0.7-0.9,1.8-1.2,2.7-0.4c0.9,0.8,3.7,5.8,7,7.2c3.2,1.5,2.8,1.8,4.9,2c2.2,0.2,3.1-0.5,3.6,0.3
		c0.5,0.7-0.3,1.5,0.6,2.7c0.8,1.2,2.2,2.1,4,2.5c1.8,0.4,2.9,0.8,4.3,0c1.4-0.8,2-0.7,3.1,1.1c1.1,1.8,7.9,8.7,11.8,11.4v5H123.5
		L123.5,187z"/>
	<g id="pwa-logo" serif:id="pwa logo">
		<g>
			<path class="st1" d="M189.5,130.2l2.5-6.4h7.3l-3.5-9.8l4.4-11l12.5,33.2h-9.2l-2.1-5.9H189.5"/>
			<path class="st1" d="M181.7,136.1L195,103h-8.9l-9.1,21.4l-6.5-21.4h-6.8l-7,21.4l-4.9-9.8l-4.5,13.7l4.5,7.8h8.7l6.3-19.2
				l6,19.2L181.7,136.1"/>
			<path class="st1" d="M133.1,124.7h5.5c1.7,0,3.1-0.2,4.4-0.6l1.4-4.3l3.9-12.2c-0.3-0.5-0.6-0.9-1-1.4c-2-2.2-5-3.4-8.9-3.4
				h-13.7v33.2h8.4L133.1,124.7L133.1,124.7z M140.4,110.6c0.8,0.8,1.2,1.9,1.2,3.2c0,1.3-0.3,2.4-1,3.2c-0.8,0.9-2.2,1.3-4.2,1.3
				h-3.2v-8.9h3.2C138.2,109.4,139.6,109.8,140.4,110.6"/>
		</g>
	</g>
	<rect y="215.5" class="st4" width="337.5" height="16.4"/>
	<rect y="201.4" class="st4" width="337.5" height="9.7"/>
	<rect y="193.1" class="st4" width="337.5" height="5.7"/>
	<rect y="188.2" class="st4" width="337.5" height="3.4"/>
	<path class="st5" d="M134,181c-16.5-11.2-27.3-30.1-27.3-51.5c0-34.3,27.9-62.2,62.2-62.2c34.3,0,62.2,27.9,62.2,62.2
		c0,22.2-11.7,41.8-29.3,52.8"/>
	<g>
		<defs>
			<circle id="SVGID_2_" cx="168.7" cy="128.1" r="63.4"/>
		</defs>
		<clipPath id="SVGID_3_">
			<use xlink:href="#SVGID_2_"  style="overflow:visible;"/>
		</clipPath>
		<g class="st6">
			<g transform="matrix(0.999897,0,0,0.999897,0,-2.36848e-13)">
				
					<image style="overflow:visible;enable-background:new    ;" width="3008" height="2718" id="_Image3" xlink:href="1E1F7F9CE9ABD4A9.png"  transform="matrix(4.216339e-02 0 0 4.216339e-02 105.3361 64.7178)">
				</image>
			</g>
		</g>
	</g>
</g>
</svg>
