<svg id="Layer_1" data-name="Layer 1" xmlns="http://www.w3.org/2000/svg" viewBox="0 0 40.64 3.83"><defs><style>.cls-1{isolation:isolate;}.cls-2{fill:#3d3d3d;}</style></defs><g class="cls-1"><path class="cls-2" d="M2.38,1.18H1.93A.91.91,0,0,0,1.71.67.57.57,0,0,0,1.26.46.62.62,0,0,0,.7.83a2.32,2.32,0,0,0-.21,1,1.22,1.22,0,0,1,.89-.41,1,1,0,0,1,.51.14A1,1,0,0,1,2.27,2a1.23,1.23,0,0,1,.14.62,1.59,1.59,0,0,1-.13.66,1.17,1.17,0,0,1-.38.47,1.12,1.12,0,0,1-.61.17,1.18,1.18,0,0,1-.67-.2,1.39,1.39,0,0,1-.45-.63A2.94,2.94,0,0,1,0,2,2.65,2.65,0,0,1,.34.54a1.09,1.09,0,0,1,1-.53,1,1,0,0,1,.77.33A1.24,1.24,0,0,1,2.38,1.18ZM1.27,3.44a.61.61,0,0,0,.49-.23.87.87,0,0,0,.18-.56.81.81,0,0,0-.16-.52.59.59,0,0,0-.47-.2,1.08,1.08,0,0,0-.79.5C.6,3.1.85,3.44,1.27,3.44Z"/><path class="cls-2" d="M6.68.82a.72.72,0,0,1-.11.4.88.88,0,0,1-.26.25,2.81,2.81,0,0,1-.42.2l.77,1A3,3,0,0,0,7,1.84h.77V2.3h-.4A2.13,2.13,0,0,1,7,3.1l.2.26h.57v.47H6.87L6.62,3.5a1.63,1.63,0,0,1-1,.39,1.4,1.4,0,0,1-.68-.17,1.2,1.2,0,0,1-.65-1.09A1.08,1.08,0,0,1,4.49,2a1.64,1.64,0,0,1,.64-.47A1.09,1.09,0,0,1,4.87.84.73.73,0,0,1,5,.41.88.88,0,0,1,5.34.12a1,1,0,0,1,.9,0,.89.89,0,0,1,.32.29A.75.75,0,0,1,6.68.82Zm-1,2.6a.92.92,0,0,0,.66-.3L5.41,1.84A1.43,1.43,0,0,0,5,2.16a.71.71,0,0,0-.14.43A.88.88,0,0,0,4.94,3a.89.89,0,0,0,.31.3A.85.85,0,0,0,5.67,3.42Zm0-2.1a1.65,1.65,0,0,0,.44-.25A.34.34,0,0,0,6.18.81a.33.33,0,0,0-.1-.25.37.37,0,0,0-.29-.1.39.39,0,0,0-.28.1A.34.34,0,0,0,5.44,1,2.32,2.32,0,0,0,5.62,1.32Z"/><path class="cls-2" d="M10.87,3.36h.44v.46H9.83V3.37h.5a5.43,5.43,0,0,1,.31-1.48A6.45,6.45,0,0,1,11.31.55H10v.52H9.55v-1H11.9V.46a4.26,4.26,0,0,0-.52.88A7.54,7.54,0,0,0,11,2.41,4.11,4.11,0,0,0,10.87,3.36Z"/><path class="cls-2" d="M16.54,2.52a1.38,1.38,0,0,1-.18.7,1.33,1.33,0,0,1-.5.5,1.38,1.38,0,0,1-.69.19,1.42,1.42,0,0,1-.71-.19,1.24,1.24,0,0,1-.49-.5,1.38,1.38,0,0,1-.18-.7A1.41,1.41,0,0,1,14,1.81a1.22,1.22,0,0,1,.49-.49,1.38,1.38,0,0,1,2.08,1.2Zm-1.37.89a.79.79,0,0,0,.42-.12.8.8,0,0,0,.3-.33A.93.93,0,0,0,16,2.52a.92.92,0,0,0-.11-.43.86.86,0,0,0-.3-.33.8.8,0,0,0-.43-.12.79.79,0,0,0-.42.12.87.87,0,0,0-.3.33.92.92,0,0,0-.11.43.93.93,0,0,0,.11.44.82.82,0,0,0,.31.33A.79.79,0,0,0,15.17,3.41Z"/><path class="cls-2" d="M18.64.6l-.46.07c0-.17-.08-.25-.2-.25a.17.17,0,0,0-.16.08.82.82,0,0,0,0,.32v.39h.45v.46h-.45v1.7h.49v.46H16.88V3.37h.38V1.67h-.38V1.21h.38V.81a.92.92,0,0,1,.18-.59A.62.62,0,0,1,18,0a.69.69,0,0,1,.46.15A.8.8,0,0,1,18.64.6Z"/><path class="cls-2" d="M23.86,1.94a2,2,0,0,1-.25,1,1.72,1.72,0,0,1-.7.69,2.12,2.12,0,0,1-1,.24,1.93,1.93,0,0,1-1-.25,1.76,1.76,0,0,1-.68-.7,2.12,2.12,0,0,1-.24-1,1.92,1.92,0,0,1,.25-1,1.71,1.71,0,0,1,.68-.68,2,2,0,0,1,1-.25,2,2,0,0,1,1,.26,1.86,1.86,0,0,1,.7.69A2,2,0,0,1,23.86,1.94ZM21.92,3.39a1.24,1.24,0,0,0,.69-.2,1.37,1.37,0,0,0,.47-.54,1.57,1.57,0,0,0,.16-.71,1.55,1.55,0,0,0-.17-.71,1.29,1.29,0,0,0-.49-.52,1.27,1.27,0,0,0-.69-.2,1.29,1.29,0,0,0-.68.19,1.24,1.24,0,0,0-.45.51,1.6,1.6,0,0,0-.16.73,1.65,1.65,0,0,0,.16.75,1.22,1.22,0,0,0,.46.52A1.33,1.33,0,0,0,21.92,3.39Z"/><path class="cls-2" d="M26.33,1.4V1.21h.46v1h-.46a.59.59,0,0,0-.23-.43.77.77,0,0,0-.46-.15.75.75,0,0,0-.4.11.83.83,0,0,0-.28.33,1.05,1.05,0,0,0-.1.44,1,1,0,0,0,.22.67.71.71,0,0,0,.58.26.79.79,0,0,0,.78-.51l.43.2a1.26,1.26,0,0,1-1.23.79,1.38,1.38,0,0,1-.7-.19,1.26,1.26,0,0,1-.47-.5,1.58,1.58,0,0,1-.16-.72,1.36,1.36,0,0,1,.17-.69,1.15,1.15,0,0,1,.46-.49,1.2,1.2,0,0,1,.65-.18A1.13,1.13,0,0,1,26.33,1.4Z"/><path class="cls-2" d="M28.5,1.21v.46H28V3a.52.52,0,0,0,.05.28.18.18,0,0,0,.15.06.86.86,0,0,0,.28,0V3.8a1.34,1.34,0,0,1-.39.07.57.57,0,0,1-.46-.16.82.82,0,0,1-.15-.56V1.67h-.34V1.21h.34V.82L28,.35v.86Z"/><path class="cls-2" d="M31.6,2.52a1.38,1.38,0,0,1-.18.7,1.33,1.33,0,0,1-.5.5,1.38,1.38,0,0,1-.69.19,1.42,1.42,0,0,1-.71-.19,1.24,1.24,0,0,1-.49-.5,1.38,1.38,0,0,1-.18-.7A1.41,1.41,0,0,1,29,1.81a1.22,1.22,0,0,1,.49-.49,1.36,1.36,0,0,1,.71-.18A1.37,1.37,0,0,1,31.6,2.52Zm-1.37.89a.79.79,0,0,0,.42-.12A.8.8,0,0,0,31,3a.92.92,0,0,0,.1-.44.91.91,0,0,0-.1-.43.86.86,0,0,0-.3-.33.8.8,0,0,0-.43-.12.79.79,0,0,0-.42.12.8.8,0,0,0-.3.33.92.92,0,0,0-.11.43A.93.93,0,0,0,29.5,3a.8.8,0,0,0,.3.33A.82.82,0,0,0,30.23,3.41Z"/><path class="cls-2" d="M33.81,1.14a1.15,1.15,0,0,1,.65.19,1.25,1.25,0,0,1,.45.49,1.42,1.42,0,0,1,.17.67,1.47,1.47,0,0,1-.17.69,1.23,1.23,0,0,1-.46.5,1.13,1.13,0,0,1-.65.19,1.41,1.41,0,0,1-.54-.11,1,1,0,0,1-.41-.33v.4h-1V3.37h.46V.53h-.46V.08h1v1.5A1.26,1.26,0,0,1,33.81,1.14ZM33.7,3.42a.71.71,0,0,0,.43-.14.83.83,0,0,0,.3-.34,1.07,1.07,0,0,0,.11-.46A1,1,0,0,0,34.43,2a.81.81,0,0,0-.3-.31.76.76,0,0,0-.42-.12.75.75,0,0,0-.43.12.8.8,0,0,0-.3.33,1,1,0,0,0-.11.47A1,1,0,0,0,33,3a1,1,0,0,0,.3.32A.79.79,0,0,0,33.7,3.42Z"/><path class="cls-2" d="M38.23,2.65H36a.91.91,0,0,0,.3.59.83.83,0,0,0,.59.22A1,1,0,0,0,37.77,3l.46.2a1.41,1.41,0,0,1-.56.5,1.67,1.67,0,0,1-.76.18,1.54,1.54,0,0,1-.75-.18,1.27,1.27,0,0,1-.51-.49,1.43,1.43,0,0,1-.19-.72,1.35,1.35,0,0,1,.19-.71,1.28,1.28,0,0,1,.49-.49,1.37,1.37,0,0,1,.69-.18,1.29,1.29,0,0,1,.72.19,1.23,1.23,0,0,1,.49.52A1.92,1.92,0,0,1,38.23,2.65ZM36.84,1.57a.76.76,0,0,0-.51.2.86.86,0,0,0-.28.51h1.64a.9.9,0,0,0-.31-.51A.82.82,0,0,0,36.84,1.57Z"/><path class="cls-2" d="M39.57,2.78v.59h.57v.46H38.53V3.37h.53V1.67h-.53V1.21h.94V1.8a1,1,0,0,1,.39-.48,1.2,1.2,0,0,1,.66-.14h.12V1.7h-.11a1.25,1.25,0,0,0-.62.11.5.5,0,0,0-.27.33A2.13,2.13,0,0,0,39.57,2.78Z"/></g></svg>