<?xml version="1.0" encoding="utf-8"?>
<!-- Generator: Adobe Illustrator 24.1.2, SVG Export Plug-In . SVG Version: 6.00 Build 0)  -->
<svg version="1.1" id="Layer_1" xmlns="http://www.w3.org/2000/svg" xmlns:xlink="http://www.w3.org/1999/xlink" x="0px" y="0px"
	 viewBox="0 0 108.9 33" style="enable-background:new 0 0 108.9 33;" xml:space="preserve">
<style type="text/css">
	.st0{clip-path:url(#SVGID_2_);fill:#400E89;}
	.st1{clip-path:url(#SVGID_2_);fill:#400F89;}
	.st2{clip-path:url(#SVGID_2_);fill:#3F1089;}
	.st3{clip-path:url(#SVGID_2_);fill:#3F1189;}
	.st4{clip-path:url(#SVGID_2_);fill:#3E1289;}
	.st5{clip-path:url(#SVGID_2_);fill:#3E1389;}
	.st6{clip-path:url(#SVGID_2_);fill:#3E1489;}
	.st7{clip-path:url(#SVGID_2_);fill:#3D1589;}
	.st8{clip-path:url(#SVGID_2_);fill:#3D1689;}
	.st9{clip-path:url(#SVGID_2_);fill:#3C1789;}
	.st10{clip-path:url(#SVGID_2_);fill:#3C1889;}
	.st11{clip-path:url(#SVGID_2_);fill:#3B1989;}
	.st12{clip-path:url(#SVGID_2_);fill:#3B1A89;}
	.st13{clip-path:url(#SVGID_2_);fill:#3B1B89;}
	.st14{clip-path:url(#SVGID_2_);fill:#3A1C89;}
	.st15{clip-path:url(#SVGID_2_);fill:#3A1D89;}
	.st16{clip-path:url(#SVGID_2_);fill:#391E88;}
	.st17{clip-path:url(#SVGID_2_);fill:#391F88;}
	.st18{clip-path:url(#SVGID_2_);fill:#392088;}
	.st19{clip-path:url(#SVGID_2_);fill:#382188;}
	.st20{clip-path:url(#SVGID_2_);fill:#382288;}
	.st21{clip-path:url(#SVGID_2_);fill:#372388;}
	.st22{clip-path:url(#SVGID_2_);fill:#372488;}
	.st23{clip-path:url(#SVGID_2_);fill:#372588;}
	.st24{clip-path:url(#SVGID_2_);fill:#362688;}
	.st25{clip-path:url(#SVGID_2_);fill:#362788;}
	.st26{clip-path:url(#SVGID_2_);fill:#352888;}
	.st27{clip-path:url(#SVGID_2_);fill:#352988;}
	.st28{clip-path:url(#SVGID_2_);fill:#352A88;}
	.st29{clip-path:url(#SVGID_2_);fill:#342B88;}
	.st30{clip-path:url(#SVGID_2_);fill:#342C88;}
	.st31{clip-path:url(#SVGID_2_);fill:#332D88;}
	.st32{clip-path:url(#SVGID_2_);fill:#332E88;}
	.st33{clip-path:url(#SVGID_2_);fill:#322F88;}
	.st34{clip-path:url(#SVGID_2_);fill:#323088;}
	.st35{clip-path:url(#SVGID_2_);fill:#323188;}
	.st36{clip-path:url(#SVGID_2_);fill:#313288;}
	.st37{clip-path:url(#SVGID_2_);fill:#313388;}
	.st38{clip-path:url(#SVGID_2_);fill:#303488;}
	.st39{clip-path:url(#SVGID_2_);fill:#303588;}
	.st40{clip-path:url(#SVGID_2_);fill:#303688;}
	.st41{clip-path:url(#SVGID_2_);fill:#2F3788;}
	.st42{clip-path:url(#SVGID_2_);fill:#2F3888;}
	.st43{clip-path:url(#SVGID_2_);fill:#2E3988;}
	.st44{clip-path:url(#SVGID_2_);fill:#2E3A88;}
	.st45{clip-path:url(#SVGID_2_);fill:#2E3B88;}
	.st46{clip-path:url(#SVGID_2_);fill:#2D3C87;}
	.st47{clip-path:url(#SVGID_2_);fill:#2D3D87;}
	.st48{clip-path:url(#SVGID_2_);fill:#2C3E87;}
	.st49{clip-path:url(#SVGID_2_);fill:#2C3F87;}
	.st50{clip-path:url(#SVGID_2_);fill:#2C4087;}
	.st51{clip-path:url(#SVGID_2_);fill:#2B4187;}
	.st52{clip-path:url(#SVGID_2_);fill:#2B4287;}
	.st53{clip-path:url(#SVGID_2_);fill:#2A4387;}
	.st54{clip-path:url(#SVGID_2_);fill:#2A4487;}
	.st55{clip-path:url(#SVGID_2_);fill:#294587;}
	.st56{clip-path:url(#SVGID_2_);fill:#294687;}
	.st57{clip-path:url(#SVGID_2_);fill:#294787;}
	.st58{clip-path:url(#SVGID_2_);fill:#284887;}
	.st59{clip-path:url(#SVGID_2_);fill:#284987;}
	.st60{clip-path:url(#SVGID_2_);fill:#274A87;}
	.st61{clip-path:url(#SVGID_2_);fill:#274C87;}
	.st62{clip-path:url(#SVGID_2_);fill:#274D87;}
	.st63{clip-path:url(#SVGID_2_);fill:#264E87;}
	.st64{clip-path:url(#SVGID_2_);fill:#264F87;}
</style>
<g>
	<g>
		<defs>
			<path id="SVGID_1_" d="M0,33c0,0,4-2,4.6-3.2c0.7-1.2,1.9-0.5,2.6-0.9c0.7-0.4,2.5-0.7,3.2-1.4c0.7-0.8,0.5-2,1-2.4
				c0.5-0.4,1.5-0.1,2.3-0.3c0.8-0.2,3,0.2,3.7,0c0.8-0.2,2.4-0.1,2.9-0.1c0.5-0.1,1.1-1.2,2.7-2c1.6-0.8,2.6-1.7,3.4-2.3
				c0.9-0.6,2.5-1.4,3.1-1.6c0.6-0.2,0.7-1.2,1.8-2.8c1-1.6,1.9-3,2.4-3.7c0.4-0.7,1.5-2.2,2-2.2c0.4,0.1,1.8,3,2.2,4
				c0.4,1,0.7,1.7,1.2,2.2c0.5,0.5,1.5,4.7,2.5,3.9c1-0.8,1.7-2,2.2-2.7c0.5-0.6,3.1-4,5.4-5.7c2.2-1.7,2.3-1.9,3-3.1
				c0.8-1.2,1.1-1.9,1.8-2.6c0.6-0.7,1.4-2.4,2-3.5c0.6-1.1,1.8-2.7,2.4-2.8c0.6,0,1,1.2,1.6,2.1s1,1.9,1.4,2.8
				c0.4,0.8,1.5,2.8,1.9,3.4c0.4,0.6,0.1,1.6,0.5,1.9c0.5,0.4,0,2,1.2,2.4c1.2,0.4,1.5,0.5,1.7,0.8c0.2,0.3,0.6,2,1.3,2.6
				c0.7,0.6,1.7,3.5,2.6,3.5c0.9,0,2-0.8,2.7-2.5c0.6-1.7,0.7-2.2,1.4-3.2c0.7-1,2.9-3.6,3.9-3.4c1,0.2,2.7,1.7,3.4,2.6
				c0.7,0.9,1.2,1.5,1.6,0.9s1.1-0.8,1.7-0.2c0.6,0.5,2.3,3.5,4.2,4.4c1.9,0.9,1.7,1.1,3,1.2s1.9-0.3,2.2,0.2
				c0.3,0.4-0.2,0.9,0.3,1.6c0.5,0.7,1.3,1.3,2.4,1.5s1.8,0.5,2.6,0c0.8-0.5,1.2-0.4,1.9,0.6c0.7,1.1,4.8,5.3,7.1,6.9v3L0,33L0,33z"
				/>
		</defs>
		<clipPath id="SVGID_2_">
			<use xlink:href="#SVGID_1_"  style="overflow:visible;"/>
		</clipPath>
		<rect class="st0" width="108.9" height="0.7"/>
		<rect y="0.7" class="st0" width="108.9" height="0.5"/>
		<rect y="1.2" class="st1" width="108.9" height="0.5"/>
		<rect y="1.7" class="st2" width="108.9" height="0.5"/>
		<rect y="2.2" class="st3" width="108.9" height="0.5"/>
		<rect y="2.7" class="st4" width="108.9" height="0.5"/>
		<rect y="3.2" class="st5" width="108.9" height="0.5"/>
		<rect y="3.7" class="st6" width="108.9" height="0.5"/>
		<rect y="4.2" class="st7" width="108.9" height="0.5"/>
		<rect y="4.7" class="st8" width="108.9" height="0.5"/>
		<rect y="5.2" class="st9" width="108.9" height="0.5"/>
		<rect y="5.7" class="st10" width="108.9" height="0.5"/>
		<rect y="6.2" class="st11" width="108.9" height="0.5"/>
		<rect y="6.7" class="st12" width="108.9" height="0.5"/>
		<rect y="7.2" class="st13" width="108.9" height="0.5"/>
		<rect y="7.7" class="st14" width="108.9" height="0.5"/>
		<rect y="8.2" class="st15" width="108.9" height="0.5"/>
		<rect y="8.7" class="st16" width="108.9" height="0.5"/>
		<rect y="9.2" class="st17" width="108.9" height="0.5"/>
		<rect y="9.7" class="st18" width="108.9" height="0.5"/>
		<rect y="10.2" class="st19" width="108.9" height="0.5"/>
		<rect y="10.7" class="st20" width="108.9" height="0.5"/>
		<rect y="11.2" class="st21" width="108.9" height="0.5"/>
		<rect y="11.7" class="st22" width="108.9" height="0.5"/>
		<rect y="12.2" class="st23" width="108.9" height="0.5"/>
		<rect y="12.7" class="st24" width="108.9" height="0.5"/>
		<rect y="13.2" class="st25" width="108.9" height="0.5"/>
		<rect y="13.7" class="st26" width="108.9" height="0.5"/>
		<rect y="14.2" class="st27" width="108.9" height="0.5"/>
		<rect y="14.7" class="st28" width="108.9" height="0.5"/>
		<rect y="15.2" class="st29" width="108.9" height="0.5"/>
		<rect y="15.7" class="st30" width="108.9" height="0.5"/>
		<rect y="16.2" class="st31" width="108.9" height="0.5"/>
		<rect y="16.7" class="st32" width="108.9" height="0.5"/>
		<rect y="17.2" class="st33" width="108.9" height="0.5"/>
		<rect y="17.7" class="st34" width="108.9" height="0.5"/>
		<rect y="18.1" class="st35" width="108.9" height="0.5"/>
		<rect y="18.6" class="st36" width="108.9" height="0.5"/>
		<rect y="19.1" class="st37" width="108.9" height="0.5"/>
		<rect y="19.6" class="st38" width="108.9" height="0.5"/>
		<rect y="20.1" class="st39" width="108.9" height="0.5"/>
		<rect y="20.6" class="st40" width="108.9" height="0.5"/>
		<rect y="21.1" class="st41" width="108.9" height="0.5"/>
		<rect y="21.6" class="st42" width="108.9" height="0.5"/>
		<rect y="22.1" class="st43" width="108.9" height="0.5"/>
		<rect y="22.6" class="st44" width="108.9" height="0.5"/>
		<rect y="23.1" class="st45" width="108.9" height="0.5"/>
		<rect y="23.6" class="st46" width="108.9" height="0.5"/>
		<rect y="24.1" class="st47" width="108.9" height="0.5"/>
		<rect y="24.6" class="st48" width="108.9" height="0.5"/>
		<rect y="25.1" class="st49" width="108.9" height="0.5"/>
		<rect y="25.6" class="st50" width="108.9" height="0.5"/>
		<rect y="26.1" class="st51" width="108.9" height="0.5"/>
		<rect y="26.6" class="st52" width="108.9" height="0.5"/>
		<rect y="27.1" class="st53" width="108.9" height="0.5"/>
		<rect y="27.6" class="st54" width="108.9" height="0.5"/>
		<rect y="28.1" class="st55" width="108.9" height="0.5"/>
		<rect y="28.6" class="st56" width="108.9" height="0.5"/>
		<rect y="29.1" class="st57" width="108.9" height="0.5"/>
		<rect y="29.6" class="st58" width="108.9" height="0.5"/>
		<rect y="30.1" class="st59" width="108.9" height="0.5"/>
		<rect y="30.6" class="st60" width="108.9" height="0.5"/>
		<rect y="31.1" class="st61" width="108.9" height="0.5"/>
		<rect y="31.6" class="st62" width="108.9" height="0.5"/>
		<rect y="32.1" class="st63" width="108.9" height="0.5"/>
		<rect y="32.6" class="st64" width="108.9" height="0.4"/>
	</g>
</g>
</svg>
