<?xml version="1.0" encoding="utf-8"?>
<svg viewBox="0 0 109 33.2" xmlns="http://www.w3.org/2000/svg">
  <defs>
    <linearGradient id="_Linear4" x1="0" y1="0" x2="1" y2="0" gradientUnits="userSpaceOnUse" gradientTransform="matrix(0, -52.919636, 52.919636, 0, 87.848826, 63.834213)">
      <stop offset="0" style="stop-color:rgb(255,212,0);stop-opacity:1"/>
      <stop offset="1" style="stop-color:rgb(0,86,180);stop-opacity:1"/>
    </linearGradient>
  </defs>
  <path d="M -0.068 44.012 L -0.068 33.14 L 0.83 33.029 L 1.68 32.853 L 4.148 32.443 L 5.862 32.16 L 8.509 31.786 L 10.977 31.611 L 11.837 31.49 L 13.511 31.114 L 13.615 31.215 L 13.09 31.414 L 13.167 31.489 L 14.018 31.33 L 14.351 31.2 L 14.351 31.393 L 14.114 31.481 L 14.774 31.436 L 15.595 31.41 L 15.472 31.218 L 14.917 31.218 L 14.917 31.034 L 13.732 31.121 L 15.348 30.736 L 16.58 30.441 L 17.805 30.191 L 17.862 30.244 L 17.737 30.563 L 16.933 30.445 L 16.82 30.629 L 17.901 30.765 L 18.283 30.865 L 19.173 30.889 L 19.754 31.323 L 19.956 31.2 L 19.583 30.848 L 19.049 30.719 L 18.857 30.609 L 18.569 30.589 L 18.092 30.538 L 18.569 30.384 L 18.139 30.365 L 18.139 30.176 L 18.895 30.176 L 19.995 30.814 L 20.682 31.037 L 22.232 30.084 L 22.328 30.084 L 24.298 28.843 L 25.025 28.583 L 26.611 27.788 L 28.229 27.22 L 29.288 27.11 L 29.547 26.849 L 30.522 26.223 L 30.781 25.908 L 30.963 25.908 L 32.051 25.272 L 33.019 25.04 L 33.64 24.58 L 33.792 24.58 L 34.617 24.196 L 35.026 24.117 L 35.026 24.251 L 34.271 24.58 L 34.082 24.58 L 34.082 24.77 L 33.697 24.77 L 33.697 24.949 L 34.118 25.246 L 33.697 25.246 L 33.697 25.528 L 33.498 25.528 L 33.612 25.719 L 33.314 25.719 L 33.314 25.908 L 33.554 25.912 L 32.943 26.476 L 32.635 26.476 L 32.742 26.211 L 32.416 26.274 L 32.215 26.286 L 31.967 26.807 L 31.901 27.33 L 32.09 27.33 L 32.09 27.142 L 32.339 27.142 L 32.742 26.807 L 33.46 26.241 L 33.928 25.719 L 34.32 25.714 L 34.031 25.529 L 34.262 25.528 L 34.184 25.134 L 34.069 24.77 L 34.367 24.77 L 34.367 24.629 L 34.835 24.408 L 34.835 24.552 L 35.648 24.552 L 35.265 24.412 L 35.554 24.311 L 36.087 24.193 L 35.983 23.916 L 36.173 23.916 L 36.059 23.726 L 35.772 23.726 L 35.897 23.916 L 35.697 23.916 L 35.554 23.935 L 35.17 24.131 L 35.265 24.031 L 36.182 23.338 L 36.662 23.152 L 37.007 23.259 L 37.122 22.885 L 37.667 22.542 L 38.487 21.844 L 38.767 21.781 L 39.244 21.356 L 39.368 21.356 L 41.149 20.27 L 41.309 20.003 L 41.453 20.24 L 41.673 20.106 L 41.558 19.739 L 41.854 19.627 L 41.854 19.387 L 42.142 19.148 L 42.142 19.361 L 42.341 19.361 L 42.237 19.009 L 44.436 16.943 L 44.753 16.769 L 45.298 16.316 L 45.546 16.411 L 45.451 16.155 L 45.821 16.036 L 46.272 15.604 L 48.548 14.257 L 49.496 13.885 L 49.878 13.729 L 49.17 14.395 L 48.692 14.615 L 48.692 14.839 L 49.037 14.524 L 49.188 14.524 L 49.829 14.04 L 50.203 13.967 L 50.824 13.624 L 50.92 13.509 L 51.676 13.269 L 52.154 12.845 L 52.431 12.715 L 52.879 12.459 L 53.1 12.012 L 54.372 11.354 L 54.296 11.281 L 53.474 11.702 L 53.148 11.87 L 53.043 11.87 L 53.175 11.631 L 52.527 12.201 L 52.106 12.437 L 51.895 12.437 L 52.813 11.715 L 53.844 11.006 L 54.095 11.102 L 54.048 10.893 L 55.09 10.338 L 55.386 10.067 L 55.51 10.191 L 55.184 10.448 L 55.712 10.226 L 55.712 10.082 L 55.472 9.973 L 55.892 10.081 L 55.892 9.877 L 56.228 9.496 L 56.449 9.496 L 56.685 9.204 L 56.953 9.304 L 56.81 9.085 L 57.116 9.203 L 57.021 8.956 L 57.939 8.54 L 58.942 7.908 L 59.354 7.526 L 61.546 6.081 L 61.965 5.789 L 62.164 5.906 L 62.108 5.687 L 62.681 5.367 L 64.011 4.475 L 65.15 3.677 L 66.66 2.772 L 69.702 1.24 L 70.455 1.135 L 70.18 1.331 L 70.323 1.468 L 70.552 1.234 L 70.552 1.014 L 71.374 0.779 L 73.277 0.568 L 74.349 0.483 L 76.241 0.69 L 77.761 1.232 L 79.75 2.13 L 81.082 2.93 L 83.863 4.278 L 84.074 4.278 L 84.074 4.47 L 84.207 4.439 L 84.59 4.584 L 88.483 6.489 L 90.279 7.396 L 91.896 8.258 L 93.035 8.857 L 93.129 8.989 L 94.832 9.684 L 95.787 10.155 L 96.037 10.16 L 95.891 10.379 L 96.122 10.244 L 97.183 10.641 L 98.062 11.034 L 99.201 11.567 L 100.34 11.951 L 102.521 12.741 L 104.892 13.552 L 106.786 14.315 L 110.868 15.927 L 112.484 16.439 L 113.048 16.683 L 114.34 17.103 L 116.845 18.204 L 120.823 19.942 L 122.151 20.49 L 124.906 21.629 L 128.414 22.885 L 129.936 23.358 L 133.636 24.572 L 135.337 25.076 L 136.859 25.508 L 139.231 26.211 L 145.235 54.933 L 145.235 70.529 L -1.731 70.529 L -1.731 44.012 L -0.068 44.012 Z M 68.229 44.012 L 68.229 43.929 L 68.037 43.929 L 68.037 44.012 L 68.229 44.012 Z M 73.536 44.012 L 73.659 44.012 L 73.536 43.893 L 73.536 44.012 Z M 79.512 43.84 L 79.655 43.751 L 79.54 43.641 L 79.235 43.761 L 79.235 43.929 L 79.377 43.927 L 79.512 43.84 Z M 72.31 43.836 L 72.31 43.647 L 72.024 43.647 L 72.024 43.836 L 72.31 43.836 Z M 71.624 43.455 L 71.612 43.169 L 71.26 43.279 L 71.26 43.077 L 71.078 43.077 L 71.078 43.521 L 71.498 43.728 L 71.633 43.742 L 71.624 43.455 Z M 69.367 43.458 L 69.367 43.372 L 69.176 43.255 L 69.176 43.458 L 69.367 43.458 Z M 72.493 43.267 L 72.493 43.077 L 72.31 43.077 L 72.31 43.267 L 72.493 43.267 Z M 71.958 43.123 L 72.016 42.98 L 71.737 42.98 L 71.737 43.267 L 71.91 43.267 L 71.958 43.123 Z M 68.428 43.172 L 68.315 42.98 L 68.123 42.98 L 68.238 43.172 L 68.428 43.172 Z M 70.886 42.98 L 70.886 42.793 L 70.695 42.793 L 70.695 42.98 L 70.886 42.98 Z M 78.757 42.888 L 78.757 42.699 L 78.565 42.699 L 78.565 42.888 L 78.757 42.888 Z M 56.572 42.033 L 56.457 41.846 L 56.267 41.846 L 56.379 42.033 L 56.572 42.033 Z M 64.755 41.841 L 64.651 41.743 L 64.097 41.664 L 64.669 41.93 L 64.85 41.938 L 64.755 41.841 Z M 65.666 41.846 L 65.666 41.76 L 65.473 41.642 L 65.473 41.846 L 65.666 41.846 Z M 79.341 41.75 L 79.216 41.559 L 79.035 41.559 L 79.149 41.75 L 79.341 41.75 Z M 64.058 41.559 L 64.058 41.368 L 63.865 41.368 L 63.865 41.559 L 64.058 41.559 Z M 94.603 41.559 L 94.603 41.274 L 94.411 41.274 L 94.527 41.559 L 94.603 41.559 Z M 94.258 41.367 L 94.029 41.143 L 94.029 41.337 L 94.151 41.464 L 94.258 41.367 Z M 63.122 41.102 L 63.274 41.038 L 63.103 40.592 L 62.844 40.69 L 62.309 40.136 L 61.871 40.136 L 61.459 39.899 L 60.931 39.377 L 60.808 39.377 L 60.923 39.663 L 60.636 39.663 L 60.636 39.509 L 59.975 39.587 L 59.86 40.019 L 59.163 40.027 L 58.885 39.838 L 59.122 39.741 L 59.122 39.449 L 58.867 39.663 L 58.351 39.187 L 58.236 39.187 L 58.618 39.615 L 58.732 39.935 L 58.437 39.993 L 57.365 39.925 L 57.747 39.778 L 56.371 39.856 L 55.96 39.472 L 55.558 39.472 L 55.346 39.684 L 55.09 39.282 L 54.544 39.282 L 54.782 39.569 L 54.21 39.454 L 54.095 39.643 L 55.04 39.651 L 55.365 39.832 L 55.692 39.627 L 56.428 39.958 L 57.317 39.993 L 57.317 40.093 L 57.882 40.305 L 57.995 40.189 L 59.335 40.25 L 59.966 40.516 L 60.541 40.516 L 60.549 40.751 L 60.685 40.548 L 61.018 40.427 L 61.018 40.66 L 61.448 40.942 L 61.871 41.069 L 61.994 40.876 L 61.754 40.729 L 62.492 40.638 L 62.72 40.822 L 62.997 40.716 L 63.093 40.983 L 62.95 41.074 L 62.424 40.801 L 62.156 40.801 L 62.156 40.964 L 62.777 41.16 L 62.96 41.165 L 63.122 41.102 Z M 55.376 40.706 L 55.32 40.612 L 55.09 40.614 L 55.376 40.797 L 55.434 40.801 L 55.376 40.706 Z M 55.147 40.207 L 55.213 39.957 L 55.109 39.852 L 54.708 39.866 L 54.937 39.958 L 54.821 40.541 L 55.079 40.457 L 55.147 40.207 Z M 54.747 40.16 L 54.708 39.993 L 53.95 39.935 L 53.769 39.757 L 53.569 39.759 L 54.142 40.136 L 54.478 40.137 L 54.478 40.326 L 54.773 40.326 L 54.747 40.16 Z M 60.598 39.901 L 60.778 39.763 L 60.923 39.757 L 60.923 40.04 L 60.416 40.04 L 60.598 39.901 Z M 59.784 39.946 L 59.784 39.579 L 59.621 39.478 L 59.527 39.579 L 59.621 39.946 L 59.784 39.946 Z M 82.841 39.852 L 82.841 39.492 L 82.534 39.375 L 82.649 39.677 L 82.649 39.852 L 82.841 39.852 Z M 58.331 39.55 L 58.283 39.426 L 58.264 39.789 L 58.38 39.674 L 58.331 39.55 Z M 59.403 39.663 L 59.403 39.472 L 59.222 39.472 L 59.222 39.663 L 59.403 39.663 Z M 53.312 39.533 L 53.387 39.403 L 53.807 39.27 L 53.807 39.456 L 53.569 39.552 L 53.998 39.569 L 53.998 39.302 L 53.749 39.207 L 53.243 39.303 L 53.243 39.072 L 52.976 39.175 L 52.574 38.893 L 52.383 39.009 L 52.383 38.808 L 52.097 38.808 L 52.154 38.497 L 51.913 38.412 L 52.03 38.714 L 51.58 38.701 L 51.197 38.544 L 51.532 38.41 L 51.532 38.239 L 51.034 38.239 L 51.283 37.94 L 50.635 38.031 L 50.539 38.072 L 49.496 38.029 L 49.61 38.149 L 50.708 38.536 L 50.844 38.313 L 51.177 38.497 L 50.548 38.622 L 50.203 38.934 L 50.203 39.092 L 50.499 39.092 L 50.586 38.856 L 51.543 38.825 L 51.293 39.127 L 51.629 39.002 L 52.143 39.197 L 51.865 39.393 L 52.383 39.31 L 52.287 39.461 L 53.1 39.641 L 53.235 39.663 L 53.312 39.533 Z M 61.918 39.466 L 61.552 39.187 L 61.401 39.187 L 61.401 39.364 L 61.726 39.449 L 61.918 39.466 Z M 60.636 38.965 L 60.625 38.76 L 60.522 39.045 L 60.33 39.286 L 60.636 39.167 L 60.636 38.965 Z M 20.491 39.282 L 20.731 38.995 L 20.414 39.114 L 20.414 39.282 L 20.491 39.282 Z M 59.881 39.282 L 59.881 38.973 L 59.594 39.212 L 59.594 39.282 L 59.881 39.282 Z M 21.076 39.092 L 21.201 38.892 L 21.114 38.804 L 20.874 39.092 L 21.076 39.092 Z M 56.505 38.94 L 56.581 38.713 L 56.275 38.828 L 56.275 39.013 L 56.505 38.94 Z M 53.512 38.998 L 53.636 38.808 L 53.338 38.808 L 53.338 38.998 L 53.512 38.998 Z M 52.813 38.776 L 52.623 38.65 L 52.287 38.529 L 52.287 38.678 L 52.813 38.883 L 52.994 38.905 L 52.813 38.776 Z M 39.377 36.913 L 39.628 36.916 L 39.959 37.169 L 39.959 37.291 L 39.339 37.302 L 39.818 37.503 L 39.578 37.592 L 39.578 37.752 L 40.151 37.587 L 40.151 37.757 L 41.194 37.732 L 41.424 37.954 L 41.673 37.954 L 41.615 37.623 L 42.045 37.599 L 41.664 37.684 L 41.913 37.928 L 42.381 37.907 L 42.535 37.717 L 42.63 37.954 L 42.898 37.954 L 42.898 37.79 L 43.923 37.815 L 44.236 38.081 L 44.35 37.666 L 44.6 37.878 L 45.413 37.922 L 45.364 38.302 L 45.632 38.302 L 45.546 38.063 L 46.377 38.119 L 46.741 38.309 L 46.98 38.225 L 46.98 38.432 L 47.449 38.316 L 47.775 38.644 L 47.849 38.428 L 48.405 38.428 L 48.405 38.602 L 48.776 38.501 L 48.776 38.697 L 49.782 38.608 L 49.496 38.806 L 49.707 38.808 L 50.001 38.749 L 50.297 38.69 L 50.297 38.537 L 48.798 38.408 L 48.911 38.113 L 48.328 38.231 L 47.64 38.119 L 47.64 37.954 L 47.983 37.954 L 48.214 37.727 L 48.214 37.954 L 48.471 37.954 L 48.377 37.432 L 48.548 37.592 L 48.548 37.799 L 49.113 37.971 L 49.573 37.954 L 49.658 37.869 L 49.352 37.56 L 49.161 37.683 L 49.161 37.461 L 48.862 37.575 L 48.759 37.195 L 48.579 37.195 L 48.328 36.942 L 48.471 36.698 L 48.424 36.097 L 48.921 36.071 L 48.548 36.227 L 48.826 36.326 L 50.203 36.424 L 50.318 36.242 L 49.782 36.27 L 49.007 35.984 L 47.88 35.752 L 47.152 35.38 L 47.258 35.273 L 48.098 35.509 L 48.358 35.408 L 48.012 35.392 L 48.128 35.203 L 47.83 35.203 L 47.88 34.969 L 47.381 35.023 L 47.152 34.452 L 46.865 34.739 L 46.98 34.854 L 46.778 35.096 L 45.833 35.009 L 45.642 35.127 L 45.957 35.475 L 45.806 35.726 L 46.119 35.465 L 46.024 35.299 L 46.492 35.299 L 46.778 35.583 L 46.98 35.583 L 46.98 35.774 L 47.314 35.776 L 47.057 35.934 L 47.372 36.246 L 47.46 36.246 L 47.412 36.009 L 47.974 35.948 L 47.611 36.217 L 47.755 36.445 L 47.555 36.691 L 48.071 36.943 L 47.506 37.077 L 47.784 37.124 L 47.946 37.093 L 48.358 37.236 L 47.689 37.338 L 46.128 37.244 L 46.128 37.386 L 46.454 37.39 L 46.109 37.596 L 45.554 37.485 L 45.058 37.674 L 44.371 37.444 L 44.189 37.291 L 43.193 37.291 L 43.078 37.48 L 42.85 37.475 L 43.222 37.198 L 43.106 37.089 L 42.428 37.216 L 42.428 37.363 L 42.696 37.338 L 42.706 37.529 L 42.17 37.484 L 41.615 37.196 L 41.099 37.195 L 41.099 37.047 L 40.573 36.856 L 40.258 36.924 L 40.2 37.213 L 39.732 36.807 L 39.386 36.862 L 39.377 36.913 Z M 56.313 38.559 L 56.371 38.408 L 55.796 38.491 L 55.796 38.334 L 55.281 38.337 L 54.994 38.52 L 55.568 38.537 L 55.939 38.701 L 56.255 38.714 L 56.313 38.559 Z M 59.784 38.714 L 59.784 38.536 L 59.584 38.411 L 59.479 38.51 L 59.603 38.714 L 59.784 38.714 Z M 59.344 38.476 L 59.392 38.353 L 58.904 38.23 L 58.808 38.334 L 59.144 38.334 L 58.932 38.589 L 59.048 38.701 L 59.297 38.603 L 59.344 38.476 Z M 23.046 38.466 L 22.989 38.41 L 22.739 38.508 L 23.102 38.523 L 23.046 38.466 Z M 52.832 38.466 L 52.775 38.41 L 52.527 38.508 L 52.889 38.523 L 52.832 38.466 Z M 58.388 38.251 L 58.437 38.074 L 57.702 38.074 L 57.702 38.239 L 58.283 38.239 L 58.158 38.428 L 58.34 38.428 L 58.388 38.251 Z M 45.173 38.334 L 45.173 38.156 L 44.991 38.039 L 44.991 38.334 L 45.173 38.334 Z M 54.945 38.239 L 55.184 38.163 L 54.573 38.144 L 54.573 37.954 L 55.223 37.954 L 55.337 38.144 L 55.796 38.144 L 55.796 37.968 L 55.5 37.67 L 55.281 37.666 L 55.568 37.484 L 55.156 37.48 L 54.927 37.195 L 54.573 37.195 L 54.573 36.911 L 54.754 36.911 L 54.754 36.645 L 54.478 36.537 L 54.478 36.911 L 54.325 36.911 L 54.095 36.682 L 54.095 36.973 L 54.869 37.405 L 54.794 37.476 L 52.527 37.555 L 51.913 37.693 L 51.913 37.372 L 52.249 37.476 L 52.527 37.294 L 51.58 37.307 L 51.101 37.462 L 51.57 37.48 L 51.913 37.793 L 53.291 37.922 L 53.521 37.623 L 53.521 37.821 L 54.153 38.051 L 54.526 38.065 L 54.286 38.16 L 54.392 38.334 L 54.708 38.316 L 54.945 38.239 Z M 53.807 38.239 L 53.807 38.051 L 53.618 38.051 L 53.618 38.239 L 53.807 38.239 Z M 16.59 37.884 L 16.543 37.84 L 16.342 37.967 L 16.342 38.167 L 16.626 37.928 L 16.59 37.884 Z M 57.413 38.002 L 57.298 37.861 L 56.953 37.861 L 56.83 37.67 L 56.325 37.662 L 55.854 37.406 L 55.616 37.501 L 55.616 37.624 L 56.131 37.836 L 57.365 38.129 L 57.528 38.144 L 57.413 38.002 Z M 40.948 37.907 L 40.889 37.764 L 40.727 37.764 L 40.831 38.051 L 40.992 38.051 L 40.948 37.907 Z M 39.493 37.954 L 39.377 37.764 L 39.187 37.764 L 39.309 37.954 L 39.493 37.954 Z M 54.478 37.936 L 54.478 37.785 L 54.773 37.67 L 54.85 37.67 L 54.85 37.839 L 54.478 37.936 Z M 46.329 37.861 L 46.205 37.67 L 46.702 37.67 L 46.588 37.861 L 46.329 37.861 Z M 50.297 37.764 L 50.297 37.599 L 49.904 37.495 L 50.134 37.764 L 50.297 37.764 Z M 40.287 37.571 L 40.229 37.467 L 40.344 37.349 L 40.544 37.553 L 40.353 37.674 L 40.287 37.571 Z M 47.412 37.644 L 46.98 37.56 L 46.98 37.366 L 47.277 37.48 L 47.736 37.48 L 47.736 37.67 L 47.412 37.644 Z M 43.711 37.578 L 43.519 37.51 L 44.034 37.413 L 44.034 37.564 L 43.9 37.646 L 43.711 37.578 Z M 84.446 37.468 L 84.446 37.291 L 84.169 37.291 L 84.169 37.448 L 84.285 37.571 L 84.446 37.468 Z M 57.116 37.48 L 57.231 37.291 L 56.953 37.291 L 56.83 37.48 L 57.116 37.48 Z M 39.206 37.393 L 39.206 37.195 L 38.842 37.195 L 38.776 37.037 L 38.164 36.916 L 38.267 37.179 L 38.022 37.262 L 38.345 37.213 L 38.432 37.347 L 39.206 37.393 Z M 49.323 37.354 L 49.304 37.053 L 49.887 36.998 L 50.403 37.195 L 50.289 37.386 L 50.565 37.386 L 50.642 37.154 L 51.484 37.18 L 50.681 37.04 L 50.556 36.911 L 50.778 36.911 L 50.778 36.645 L 51.083 36.528 L 51.426 36.839 L 51.752 36.714 L 51.389 36.463 L 50.49 36.365 L 50.49 36.493 L 50.708 36.718 L 50.604 36.832 L 49.437 36.886 L 49.332 36.712 L 48.968 37.129 L 48.968 37.259 L 49.065 37.354 L 49.323 37.354 Z M 45.937 37.386 L 45.937 37.195 L 45.737 37.195 L 45.851 37.386 L 45.937 37.386 Z M 87.487 37.291 L 87.487 37.101 L 87.296 37.101 L 87.296 37.291 L 87.487 37.291 Z M 42.237 37.291 L 42.237 37.101 L 41.953 37.101 L 41.953 37.291 L 42.237 37.291 Z M 53.425 37.291 L 53.425 37.101 L 53.243 37.101 L 53.243 37.291 L 53.425 37.291 Z M 40.536 37.044 L 40.544 36.862 L 40.64 37.115 L 40.526 37.228 L 40.536 37.044 Z M 37.658 37.139 L 37.599 37.08 L 37.351 37.18 L 37.715 37.195 L 37.658 37.139 Z M 39.377 36.94 L 39.377 37.049 L 39.628 37.116 L 39.377 36.94 L 39.377 36.913 L 39.339 36.913 L 39.377 36.94 Z M 48.968 37.101 L 48.968 36.942 L 48.501 36.724 L 48.501 36.843 L 48.826 37.095 L 48.968 37.101 Z M 46.645 37.087 L 46.407 36.99 L 46.176 37.087 L 46.645 37.087 Z M 32.168 37.005 L 32.292 36.803 L 32.186 36.698 L 31.881 36.814 L 32.006 37.005 L 32.168 37.005 Z M 37.053 36.931 L 37.102 36.857 L 36.595 36.819 L 36.873 37.002 L 37.007 37.005 L 37.053 36.931 Z M 86.722 37.005 L 86.722 36.721 L 86.436 36.721 L 86.674 36.999 L 86.722 37.005 Z M 53.109 36.668 L 53.166 36.332 L 53.062 36.226 L 52.718 36.372 L 53.054 36.45 L 53.054 36.702 L 52.565 36.821 L 52.392 36.714 L 51.913 36.837 L 51.913 36.959 L 53.043 37 L 53.109 36.668 Z M 53.856 36.893 L 53.664 36.782 L 53.551 36.602 L 53.312 36.749 L 53.856 36.99 L 54.048 37 L 53.856 36.893 Z M 46.951 36.753 L 46.99 36.817 L 47.266 36.817 L 47.266 36.632 L 46.951 36.753 Z M 84.543 36.817 L 84.543 36.638 L 84.341 36.512 L 84.237 36.615 L 84.369 36.817 L 84.543 36.817 Z M 48.021 36.817 L 48.021 36.52 L 48.214 36.638 L 48.214 36.817 L 48.021 36.817 Z M 46.951 36.749 L 47.085 36.39 L 46.865 36.609 L 46.951 36.749 L 46.942 36.754 L 46.951 36.753 L 46.951 36.749 Z M 79.216 36.721 L 79.341 36.531 L 79.035 36.531 L 79.149 36.721 L 79.216 36.721 Z M 46.427 36.556 L 46.109 36.518 L 46.215 36.246 L 45.937 36.246 L 45.937 36.438 L 45.604 36.45 L 45.986 36.615 L 46.741 36.596 L 46.427 36.556 Z M 82.859 36.353 L 82.908 36.171 L 82.457 36.085 L 82.448 36.296 L 82.268 35.855 L 82.075 35.976 L 82.172 36.136 L 81.769 36.03 L 81.989 36.438 L 82.086 36.438 L 81.97 36.246 L 82.219 36.254 L 82.59 36.531 L 82.81 36.531 L 82.859 36.353 Z M 83.443 36.303 L 83.385 36.144 L 83.184 36.211 L 83.109 36.42 L 83.45 36.497 L 83.509 36.463 L 83.443 36.303 Z M 23.456 36.124 L 23.456 35.957 L 23.084 36.151 L 22.604 36.151 L 22.604 36.344 L 23.456 36.296 L 23.456 36.124 Z M 45.154 36.286 L 45.096 36.228 L 44.849 36.326 L 45.21 36.342 L 45.154 36.286 Z M 37.448 36.102 L 37.733 36.033 L 37.923 35.888 L 38.9 35.757 L 38.993 36.105 L 39.119 35.695 L 39.483 35.602 L 39.483 35.849 L 39.752 35.949 L 40.085 35.588 L 40.718 35.466 L 40.718 35.312 L 41.194 35.4 L 41.194 35.108 L 41.395 35.108 L 41.788 35.319 L 41.953 35.062 L 42.104 35.285 L 43.038 34.995 L 43.328 34.897 L 43.078 34.805 L 43.307 34.54 L 43.836 34.54 L 43.939 34.376 L 44.714 34.253 L 44.82 33.972 L 45.21 33.972 L 45.011 33.763 L 44.6 33.986 L 44.073 33.867 L 43.822 34.165 L 43.471 34.053 L 43.471 34.24 L 42.514 34.559 L 42.237 34.451 L 42.237 34.73 L 42.045 34.73 L 42.045 34.35 L 41.778 34.35 L 41.654 34.54 L 41.854 34.54 L 41.854 34.826 L 41.3 34.826 L 40.976 34.948 L 41.07 34.684 L 41.367 34.706 L 41.272 34.464 L 40.67 34.373 L 40.506 34.472 L 40.954 34.836 L 40.526 34.715 L 40.526 34.897 L 40.954 35.037 L 40.526 35.121 L 40.526 35.251 L 39.529 35.28 L 38.47 35.475 L 38.022 35.418 L 37.275 35.273 L 37.427 35.515 L 36.941 35.392 L 36.346 35.726 L 36.423 36.145 L 36.28 36.058 L 36.182 36.306 L 37.16 36.171 L 37.448 36.102 Z M 52.422 36.174 L 52.459 36.105 L 52.211 35.87 L 52.086 36.057 L 52.336 36.072 L 51.962 36.233 L 52.372 36.246 L 52.422 36.174 Z M 17.737 36.096 L 17.68 36.036 L 17.43 36.139 L 17.796 36.151 L 17.737 36.096 Z M 50.184 35.994 L 50.012 35.947 L 50.012 35.695 L 50.73 35.749 L 50.393 35.666 L 50.49 35.511 L 49.916 35.426 L 49.916 36.057 L 50.346 36.035 L 50.184 35.994 Z M 38.632 36.057 L 38.632 35.869 L 38.546 35.869 L 38.432 36.057 L 38.632 36.057 Z M 46.502 35.943 L 46.502 35.869 L 46.226 35.869 L 46.226 36.052 L 46.502 35.943 Z M 24.958 35.962 L 25.08 35.76 L 24.995 35.673 L 24.757 35.962 L 24.958 35.962 Z M 39.386 35.962 L 39.386 35.774 L 39.309 35.774 L 39.187 35.962 L 39.386 35.962 Z M 83.979 35.962 L 83.979 35.774 L 83.546 35.776 L 83.834 35.959 L 83.979 35.962 Z M 49.256 35.869 L 49.256 35.678 L 49.065 35.678 L 49.065 35.869 L 49.256 35.869 Z M 41.953 35.869 L 41.953 35.783 L 41.759 35.668 L 41.759 35.869 L 41.953 35.869 Z M 49.707 35.653 L 49.686 35.439 L 49.304 35.318 L 48.464 35.299 L 48.566 35.401 L 49.304 35.477 L 49.562 35.489 L 49.457 35.754 L 49.573 35.869 L 49.725 35.869 L 49.707 35.653 Z M 80.745 35.774 L 80.745 35.583 L 80.669 35.583 L 80.544 35.774 L 80.745 35.774 Z M 83.214 35.489 L 83.214 35.273 L 83.546 35.03 L 83.423 34.902 L 83.021 35.299 L 83.021 35.489 L 83.214 35.489 Z M 25.798 35.429 L 25.741 35.373 L 25.493 35.474 L 25.857 35.489 L 25.798 35.429 Z M 81.415 35.392 L 81.415 35.203 L 81.225 35.203 L 81.225 35.392 L 81.415 35.392 Z M 38.249 35.392 L 38.249 35.203 L 38.05 35.203 L 38.172 35.392 L 38.249 35.392 Z M 38.632 35.203 L 38.632 35.014 L 38.45 35.014 L 38.336 35.203 L 38.632 35.203 Z M 58.493 35.203 L 58.264 34.976 L 58.042 35.203 L 58.493 35.203 Z M 44.359 35.004 L 45.364 35.131 L 45.489 34.812 L 45.719 34.9 L 45.986 34.715 L 45.354 34.793 L 45.27 34.653 L 45.728 34.212 L 45.642 34.065 L 45.354 34.065 L 45.392 34.303 L 45.364 34.54 L 45.058 34.54 L 45.307 34.839 L 45.038 35.004 L 44.801 34.802 L 43.948 34.929 L 43.948 34.75 L 44.801 34.623 L 44.801 34.471 L 44.371 34.515 L 44.273 34.56 L 43.989 34.587 L 43.529 34.916 L 43.891 35.184 L 44.359 35.004 Z M 81.11 34.847 L 81.139 34.649 L 80.774 34.745 L 80.871 35.118 L 81.082 35.045 L 81.11 34.847 Z M 12.497 35.096 L 12.26 34.999 L 12.03 35.096 L 12.497 35.096 Z M 38.153 35.014 L 38.153 34.941 L 37.876 34.83 L 37.876 35.014 L 38.153 35.014 Z M 82.352 35.014 L 82.467 34.826 L 82.268 34.826 L 82.268 35.014 L 82.352 35.014 Z M 19.231 34.45 L 19.507 34.163 L 19.41 34.064 L 18.79 34.373 L 18.876 34.715 L 18.617 34.615 L 18.617 34.826 L 18.319 34.826 L 18.427 35 L 18.951 34.738 L 19.231 34.45 Z M 74.941 34.92 L 75.046 34.651 L 74.76 34.54 L 74.577 34.54 L 74.778 34.92 L 74.941 34.92 Z M 43.461 34.826 L 43.576 34.634 L 43.374 34.634 L 43.374 34.826 L 43.461 34.826 Z M 48.339 34.759 L 48.128 34.717 L 48.233 34.444 L 47.868 34.444 L 47.611 34.208 L 47.736 34.54 L 47.429 34.54 L 47.668 34.826 L 48.548 34.799 L 48.339 34.759 Z M 46.492 34.826 L 46.608 34.634 L 46.32 34.634 L 46.32 34.826 L 46.492 34.826 Z M 19.372 34.826 L 19.372 34.634 L 19.202 34.634 L 19.078 34.826 L 19.372 34.826 Z M 37.658 34.767 L 37.599 34.71 L 37.351 34.81 L 37.715 34.826 L 37.658 34.767 Z M 37.876 34.634 L 37.876 34.461 L 37.638 34.382 L 37.876 34.086 L 37.608 33.986 L 37.494 34.097 L 37.494 34.406 L 37.724 34.634 L 37.876 34.634 Z M 52.718 34.54 L 52.775 34.444 L 52.336 34.449 L 52.057 34.632 L 52.662 34.634 L 52.718 34.54 Z M 4.36 34.577 L 4.303 34.521 L 4.054 34.621 L 4.416 34.634 L 4.36 34.577 Z M 82.307 34.195 L 82.371 33.992 L 82.075 33.883 L 82.065 34.018 L 82.025 34.626 L 82.246 34.396 L 82.307 34.195 Z M 4.722 34.444 L 4.781 34.35 L 4.485 34.35 L 4.485 34.54 L 4.665 34.54 L 4.722 34.444 Z M 79.331 34.54 L 79.331 34.35 L 79.14 34.35 L 79.14 34.54 L 79.331 34.54 Z M 49.448 34.425 L 49.448 34.35 L 49.056 34.35 L 49.17 34.532 L 49.448 34.425 Z M 55.04 34.35 L 55.04 34.16 L 54.754 34.16 L 54.754 34.35 L 55.04 34.35 Z M 117.935 34.35 L 117.935 34.16 L 117.697 34.138 L 117.542 34.166 L 117.447 33.806 L 117.005 33.569 L 116.785 33.701 L 117.314 34.237 L 117.697 34.329 L 117.935 34.35 Z M 80.946 34.184 L 80.957 34.114 L 81.015 33.794 L 80.65 33.466 L 80.65 33.686 L 80.362 33.686 L 80.479 33.874 L 80.889 33.88 L 80.63 34.044 L 80.764 34.254 L 80.938 34.254 L 80.946 34.184 Z M 20.606 33.924 L 20.491 33.78 L 20.731 33.78 L 20.635 33.681 L 20.329 33.797 L 20.558 34.059 L 20.731 34.065 L 20.606 33.924 Z M 80.086 34.065 L 80.086 33.981 L 79.894 33.865 L 79.894 34.065 L 80.086 34.065 Z M 19.947 33.948 L 19.947 33.874 L 19.563 33.874 L 19.563 34.039 L 19.947 34.018 L 19.947 33.948 Z M 79.512 33.874 L 79.512 33.496 L 79.331 33.496 L 79.331 33.874 L 79.512 33.874 Z M 46.397 33.569 L 46.817 33.35 L 46.865 33.022 L 46.579 33.022 L 46.483 33.402 L 45.89 33.677 L 45.22 33.873 L 45.976 33.784 L 46.397 33.569 Z M 81.225 33.58 L 81.225 33.389 L 81.033 33.508 L 81.033 33.697 L 81.225 33.58 Z M 81.501 33.686 L 81.616 33.496 L 81.415 33.496 L 81.415 33.686 L 81.501 33.686 Z M 20.693 33.496 L 20.808 33.306 L 20.606 33.306 L 20.606 33.496 L 20.693 33.496 Z M 21.18 33.496 L 21.18 33.212 L 20.99 33.212 L 20.99 33.496 L 21.18 33.496 Z M 81.033 33.212 L 80.889 33.12 L 80.639 33.117 L 80.764 33.306 L 81.175 33.304 L 81.033 33.212 Z M 21.667 33.306 L 21.964 33.005 L 21.524 33.069 L 21.447 33.306 L 21.667 33.306 Z M 132.823 33.306 L 132.823 33.117 L 132.622 33.117 L 132.746 33.306 L 132.823 33.306 Z M 44.562 33.197 L 44.32 33.101 L 44.082 33.197 L 44.562 33.197 Z M 80.086 33.117 L 80.086 32.928 L 79.894 32.928 L 79.894 33.117 L 80.086 33.117 Z M 18.513 33.022 L 18.626 32.831 L 18.427 32.831 L 18.427 33.022 L 18.513 33.022 Z M 79.331 32.928 L 79.331 32.737 L 78.949 32.737 L 78.949 32.928 L 79.331 32.928 Z M 132.365 32.831 L 132.25 32.644 L 132.059 32.644 L 132.173 32.831 L 132.365 32.831 Z M 78.098 32.737 L 78.098 32.653 L 77.906 32.538 L 77.906 32.737 L 78.098 32.737 Z M 80.222 32.389 L 80.346 32.436 L 80.298 31.838 L 80.135 31.874 L 80.01 32.309 L 80.01 32.69 L 80.105 32.345 L 80.222 32.389 Z M 40.287 32.258 L 40.229 32.167 L 40.431 32.145 L 40.621 32.097 L 40.812 32.075 L 40.812 31.846 L 40.601 32.059 L 40.363 31.966 L 39.932 32.568 L 40.344 32.347 L 40.287 32.258 Z M 79.352 32.404 L 79.358 32.309 L 79.044 32.249 L 79.157 32.556 L 79.341 32.496 L 79.352 32.404 Z M 78.47 32.453 L 78.47 32.297 L 79.091 31.99 L 78.757 31.978 L 78.757 31.801 L 78.46 31.504 L 78.193 31.504 L 78.193 31.868 L 77.955 31.972 L 78.46 31.866 L 78.691 32.009 L 78.146 32.453 L 78.47 32.453 Z M 21.37 32.337 L 21.37 32.148 L 21.066 32.261 L 20.981 32.261 L 21.084 32.447 L 21.37 32.337 Z M 20.797 32.359 L 20.797 32.274 L 20.606 32.156 L 20.606 32.359 L 20.797 32.359 Z M 25.923 32.261 L 25.923 32.075 L 25.741 32.075 L 25.626 32.261 L 25.923 32.261 Z M 79.655 32.168 L 79.713 32.076 L 79.502 31.741 L 79.598 32.052 L 79.388 32.261 L 79.598 32.261 L 79.655 32.168 Z M 82.361 32.167 L 82.361 31.978 L 82.172 31.978 L 82.172 32.167 L 82.361 32.167 Z M 49.707 31.997 L 49.543 31.965 L 49.675 31.741 L 49.686 31.553 L 50.393 31.553 L 50.393 31.314 L 50.25 31.32 L 49.496 31.494 L 49.37 31.282 L 48.872 31.604 L 48.894 31.838 L 48.988 31.6 L 49.448 31.6 L 49.448 31.809 L 49.161 31.699 L 49.161 31.941 L 49.686 32.136 L 49.878 32.029 L 49.707 31.997 Z M 76.968 32.021 L 76.96 31.883 L 76.815 31.87 L 76.739 32.097 L 76.968 32.021 Z M 28.658 32.075 L 28.782 31.883 L 28.496 31.883 L 28.381 32.075 L 28.658 32.075 Z M 24.165 31.978 L 24.22 31.886 L 23.924 32 L 23.924 32.075 L 24.107 32.075 L 24.165 31.978 Z M 11.312 32.075 L 11.312 31.777 L 11.121 31.897 L 11.225 32.075 L 11.312 32.075 Z M 48.128 32.075 L 48.012 31.883 L 48.214 31.883 L 48.214 32.075 L 48.128 32.075 Z M 76.328 31.838 L 76.375 31.695 L 76.099 31.695 L 76.099 31.978 L 76.271 31.978 L 76.328 31.838 Z M 32.99 31.578 L 33.084 31.475 L 32.723 31.605 L 32.598 31.419 L 32.359 31.813 L 32.896 31.681 L 32.99 31.578 Z M 51.283 31.38 L 51.14 31.296 L 50.681 31.412 L 50.681 31.6 L 50.968 31.6 L 50.968 31.409 L 51.149 31.409 L 51.034 31.712 L 51.437 31.462 L 51.283 31.38 Z M 82.219 31.6 L 82.162 31.504 L 81.749 31.508 L 82.025 31.691 L 82.275 31.695 L 82.219 31.6 Z M 29.901 31.6 L 30.044 31.508 L 29.73 31.504 L 29.607 31.695 L 29.768 31.691 L 29.901 31.6 Z M 33.976 31.6 L 34.09 31.409 L 33.784 31.409 L 33.899 31.6 L 33.976 31.6 Z M 76.48 31.528 L 76.336 31.475 L 76.201 31.266 L 76.194 31.6 L 76.623 31.583 L 76.48 31.528 Z M 47.067 31.504 L 47.18 31.314 L 46.98 31.314 L 46.98 31.504 L 47.067 31.504 Z M 78 31.504 L 78 31.244 L 77.732 31.022 L 77.61 31.218 L 77.81 31.218 L 77.81 31.504 L 78 31.504 Z M 54.228 31.218 L 53.998 30.991 L 53.998 31.447 L 54.228 31.218 Z M 48.32 31.409 L 48.203 31.218 L 48.405 31.218 L 48.405 31.409 L 48.32 31.409 Z M 49.829 31.314 L 49.829 31.125 L 49.637 31.125 L 49.637 31.314 L 49.829 31.314 Z M 78.46 31.314 L 78.574 31.125 L 78.267 31.125 L 78.393 31.314 L 78.46 31.314 Z M 45.632 30.984 L 45.537 30.823 L 45.325 31.032 L 44.991 31.032 L 44.991 31.206 L 45.508 31.266 L 45.632 30.984 Z M 78.46 30.855 L 78.327 30.812 L 78.193 30.602 L 78.193 30.919 L 78.069 31.244 L 78.593 30.897 L 78.46 30.855 Z M 49.399 31.218 L 49.736 30.839 L 49.736 30.555 L 49.505 30.555 L 49.63 30.67 L 49.026 31.218 L 49.399 31.218 Z M 76.682 31.218 L 76.566 31.032 L 76.384 31.032 L 76.384 31.218 L 76.682 31.218 Z M 55.109 31.162 L 55.051 31.106 L 54.802 31.204 L 55.166 31.218 L 55.109 31.162 Z M 50.586 31.125 L 50.586 30.935 L 50.297 30.935 L 50.297 31.125 L 50.586 31.125 Z M 51.13 31.069 L 51.071 31.011 L 50.824 31.111 L 51.188 31.125 L 51.13 31.069 Z M 82.075 31.093 L 82.075 30.841 L 81.913 30.841 L 81.808 31.093 L 82.075 31.093 Z M 46.176 30.948 L 46.787 30.824 L 46.787 30.65 L 47.266 30.65 L 47.266 30.461 L 48.021 30.461 L 48.021 30.249 L 47.372 30.371 L 47.277 30.128 L 47.123 30.338 L 46.101 30.597 L 46.014 30.841 L 45.737 30.841 L 45.862 31.037 L 46.176 30.948 Z M 48.596 31.032 L 48.289 31.032 L 48.384 30.65 L 48.233 30.65 L 47.362 31.024 L 47.362 31.24 L 47.813 31.125 L 48.165 30.993 L 47.64 31.681 L 47.64 31.894 L 47.813 31.791 L 47.907 32.167 L 48.071 32.166 L 48.281 32.108 L 48.501 32.053 L 48.501 31.727 L 48.968 31.282 L 48.968 31.112 L 48.596 31.231 L 48.596 31.032 L 48.872 31.032 L 49.573 30.272 L 49.81 30.272 L 49.927 30.085 L 49.686 30.159 L 49.161 30.274 L 49.161 30.555 L 48.968 30.555 L 48.968 30.26 L 48.789 30.373 L 48.882 30.627 L 48.596 30.738 L 48.596 31.032 Z M 51.504 31.032 L 51.474 30.655 L 51.369 30.548 L 51.274 31.032 L 51.504 31.032 Z M 37.11 30.915 L 37.11 30.841 L 36.834 30.841 L 36.834 31.024 L 37.11 30.915 Z M 51.083 30.871 L 50.968 30.824 L 50.968 30.524 L 50.844 30.641 L 50.958 30.935 L 51.197 30.919 L 51.083 30.871 Z M 50.184 30.878 L 50.126 30.82 L 49.878 30.919 L 50.242 30.935 L 50.184 30.878 Z M 79.426 30.828 L 79.131 30.534 L 79.025 30.638 L 79.281 30.916 L 79.426 30.828 Z M 121.07 30.889 L 120.745 30.65 L 120.595 30.65 L 120.595 30.915 L 121.07 30.889 Z M 81.674 30.782 L 81.616 30.724 L 81.367 30.825 L 81.733 30.841 L 81.674 30.782 Z M 25.895 30.409 L 25.836 30.349 L 25.617 30.795 L 25.961 30.465 L 25.895 30.409 Z M 32.463 30.474 L 32.463 30.164 L 32.655 30.281 L 32.541 29.988 L 32.761 29.988 L 32.626 29.768 L 32.388 30.091 L 32.32 29.916 L 31.948 30.068 L 32.272 30.084 L 32.159 30.365 L 32.404 30.365 L 32.176 30.592 L 32.176 30.757 L 32.463 30.474 Z M 76.529 30.629 L 76.605 30.696 L 76.471 30.461 L 76.099 30.461 L 76.099 30.753 L 76.454 30.562 L 76.529 30.629 Z M 50.297 30.743 L 50.297 30.461 L 50.518 30.461 L 50.413 30.349 L 50.029 30.467 L 49.927 30.743 L 50.297 30.743 Z M 32.847 30.743 L 32.847 30.555 L 32.646 30.555 L 32.761 30.743 L 32.847 30.743 Z M 40.411 30.687 L 40.353 30.629 L 40.104 30.731 L 40.468 30.743 L 40.411 30.687 Z M 75.821 30.65 L 75.821 30.355 L 75.62 30.473 L 75.735 30.65 L 75.821 30.65 Z M 62.729 30.3 L 62.96 30.177 L 63.391 30.176 L 63.391 29.872 L 63.103 29.98 L 63.103 29.797 L 63.439 29.794 L 63.149 29.61 L 63.486 29.607 L 63.486 29.797 L 63.696 29.797 L 63.464 29.512 L 63.103 29.512 L 63.103 29.34 L 62.375 29.691 L 62.126 29.997 L 62.539 30.104 L 62.539 30.292 L 62.089 30.21 L 62.176 30.542 L 62.492 30.425 L 62.729 30.3 Z M 31.612 30.461 L 31.612 30.287 L 31.948 30.205 L 31.594 30.056 L 31.422 30.32 L 31.422 30.461 L 31.612 30.461 Z M 38.966 30.36 L 39.331 30.085 L 39.244 30.002 L 38.804 30.365 L 38.966 30.36 Z M 40.908 30.365 L 40.908 30.176 L 40.612 30.176 L 40.727 30.365 L 40.908 30.365 Z M 79.044 30.365 L 79.044 30.293 L 78.757 30.056 L 78.873 30.365 L 79.044 30.365 Z M 26.774 30.365 L 26.774 30.176 L 26.573 30.176 L 26.678 30 L 26.506 29.888 L 26.38 30.089 L 26.611 30.365 L 26.774 30.365 Z M 75.412 30.213 L 75.353 30.157 L 75.105 30.256 L 75.466 30.272 L 75.412 30.213 Z M 78.011 30.009 L 77.944 29.466 L 77.848 30.176 L 78.011 30.009 Z M 63.81 29.98 L 63.762 29.892 L 63.486 29.892 L 63.486 30.066 L 63.723 30.149 L 63.865 30.068 L 63.81 29.98 Z M 50.203 30.084 L 50.203 29.892 L 50.012 29.892 L 50.012 30.084 L 50.203 30.084 Z M 41.511 29.797 L 41.598 29.714 L 41.472 29.375 L 41.337 29.559 L 40.962 29.765 L 40.889 30.014 L 41.433 29.879 L 41.511 29.797 Z M 24.345 29.928 L 24.43 29.678 L 24.173 29.763 L 24.097 30.009 L 24.345 29.928 Z M 77.141 29.988 L 77.141 29.809 L 76.96 29.691 L 76.96 29.988 L 77.141 29.988 Z M 39.665 29.892 L 39.78 29.701 L 39.589 29.701 L 39.474 29.892 L 39.665 29.892 Z M 45.46 29.892 L 45.46 29.701 L 45.374 29.701 L 45.257 29.892 L 45.46 29.892 Z M 46.196 29.701 L 46.176 29.512 L 45.908 29.512 L 46.034 29.638 L 45.814 29.892 L 46.205 29.892 L 46.196 29.701 Z M 47.266 29.561 L 47.266 29.417 L 46.492 29.417 L 46.617 29.608 L 46.32 29.723 L 46.407 29.869 L 47.266 29.561 Z M 80.639 29.797 L 80.764 29.607 L 80.564 29.607 L 80.564 29.797 L 80.639 29.797 Z M 44.177 29.781 L 43.948 29.685 L 43.711 29.781 L 44.177 29.781 Z M 117.323 29.518 L 117.255 29.417 L 117.054 29.417 L 117.294 29.708 L 117.38 29.621 L 117.323 29.518 Z M 76.29 29.491 L 76.29 29.306 L 76.069 29.381 L 75.994 29.607 L 76.29 29.491 Z M 132.87 29.417 L 132.815 29.323 L 132.5 29.325 L 132.776 29.508 L 132.929 29.512 L 132.87 29.417 Z M 120.965 29.512 L 120.965 29.25 L 120.595 29.15 L 120.595 29.235 L 120.823 29.505 L 120.965 29.512 Z M 26.631 29.145 L 26.602 29.113 L 26.391 29.239 L 26.391 29.424 L 26.659 29.178 L 26.631 29.145 Z M 52.47 29.273 L 52.527 29.208 L 52.171 29.275 L 52.097 29.071 L 52.431 29.065 L 52.65 29.237 L 52.785 29.025 L 52.679 28.924 L 52.02 28.924 L 51.809 29.057 L 51.913 29.347 L 51.657 29.132 L 51.532 29.258 L 51.532 29.419 L 52.411 29.334 L 52.47 29.273 Z M 49.762 29.276 L 49.716 29.132 L 49.534 29.243 L 49.649 29.417 L 49.818 29.417 L 49.762 29.276 Z M 28.168 29.36 L 28.114 29.303 L 27.864 29.405 L 28.229 29.417 L 28.168 29.36 Z M 50.681 29.003 L 50.595 28.915 L 51.071 28.535 L 51.197 28.724 L 52.202 28.711 L 52.116 28.484 L 52.383 28.379 L 52.383 28.216 L 51.676 28.274 L 50.92 28.35 L 50.681 28.16 L 50.653 28.423 L 50.681 28.565 L 50.479 28.565 L 50.203 28.834 L 50.203 29.132 L 50.586 29.132 L 50.586 29.371 L 50.768 29.086 L 50.681 29.003 Z M 61.42 21.823 L 61.583 21.51 L 61.478 21.355 L 61.17 21.355 L 61.583 20.923 L 61.191 20.676 L 61.075 20.786 L 61.448 21.066 L 61.133 21.069 L 60.509 20.737 L 60.166 20.404 L 60.166 20.215 L 60.119 20.215 L 59.497 20.392 L 59.297 20.015 L 59.527 19.743 L 59.258 19.743 L 58.877 20.007 L 58.168 20.007 L 58.168 19.677 L 58.752 19.659 L 59.316 19.537 L 59.316 19.351 L 58.504 19.431 L 58.923 19.351 L 59.297 18.878 L 59.497 19.222 L 59.621 18.792 L 59.851 18.792 L 59.966 18.911 L 59.681 19.195 L 59.745 19.376 L 59.926 19.361 L 59.926 19.187 L 60.091 19.031 L 60.33 19.366 L 60.625 19.254 L 60.741 18.951 L 60.541 18.754 L 60.541 18.51 L 60.98 18.51 L 61.353 18.23 L 60.989 18.225 L 61.515 17.739 L 61.772 17.838 L 61.772 18.035 L 61.62 18.035 L 61.65 19.031 L 61.468 19.266 L 61.612 19.266 L 61.382 19.54 L 61.448 19.979 L 62.299 20.074 L 62.25 20.309 L 62.874 20.313 L 63.295 20.429 L 63.295 20.112 L 63.952 20.238 L 64.279 20.112 L 63.744 19.833 L 63.647 19.931 L 63.865 19.931 L 63.865 20.131 L 63.274 19.791 L 63.103 19.457 L 62.729 19.457 L 62.729 19.08 L 62.874 19.08 L 62.835 18.323 L 63.007 18.212 L 63.007 18.035 L 62.634 18.035 L 62.634 17.824 L 63.131 17.948 L 63.027 17.679 L 63.236 17.466 L 62.988 17.466 L 63.093 17.185 L 62.798 17.013 L 62.881 16.652 L 62.654 16.436 L 62.415 16.658 L 62.539 16.437 L 62.299 16.355 L 61.783 16.532 L 61.82 16.724 L 61.343 17.096 L 60.607 17.347 L 60.128 17.216 L 60.062 17.013 L 60.923 17.111 L 60.923 16.873 L 60.549 16.974 L 60.446 16.814 L 60.816 16.697 L 61.687 15.865 L 61.489 15.74 L 61.726 15.426 L 61.353 15.731 L 61.114 15.648 L 60.96 16.052 L 60.501 16.286 L 60.561 16.706 L 60.177 16.706 L 60.025 16.959 L 59.64 17.175 L 60.071 17.18 L 60.071 17.367 L 59.105 17.857 L 59.23 17.656 L 59.028 17.656 L 59.028 17.466 L 59.23 17.466 L 59.517 17.18 L 59.354 17.18 L 58.981 17.437 L 58.437 17.569 L 58.771 17.814 L 58.36 17.922 L 58.36 17.94 L 58.331 17.94 L 58.657 18.293 L 58.36 18.537 L 58.225 18.404 L 58.504 18.23 L 58.283 18.01 L 57.844 18.127 L 56.839 19.081 L 56.953 19.272 L 56.801 19.245 L 56.466 19.266 L 56.466 19.431 L 56.905 19.349 L 56.953 20.155 L 57.059 20.334 L 56.81 20.486 L 57.04 20.765 L 56.466 20.964 L 56.466 21.639 L 56.181 21.639 L 56.181 21.866 L 55.948 21.639 L 55.79 21.639 L 55.883 21.781 L 55.452 21.781 L 55.452 21.544 L 55.92 21.544 L 55.805 21.258 L 55.987 21.258 L 56.371 20.933 L 56.362 20.549 L 56.064 20.976 L 55.796 20.976 L 55.692 21.251 L 54.898 21.615 L 54.553 21.734 L 54.64 21.97 L 55.184 21.931 L 54.661 22.39 L 54.661 22.562 L 54.191 22.47 L 54.191 22.208 L 53.903 22.208 L 53.683 22.682 L 53.521 22.682 L 53.521 22.303 L 53.789 22.303 L 53.759 21.687 L 54.286 21.747 L 54.278 21.592 L 54.112 21.327 L 53.474 21.766 L 53.1 22.098 L 51.952 22.823 L 50.106 24.044 L 50.106 24.342 L 49.935 24.064 L 49.736 24.575 L 49.256 24.693 L 49.352 24.852 L 49.161 24.97 L 49.161 24.737 L 49.015 24.879 L 49.007 25.008 L 48.856 25.339 L 48.596 25.339 L 48.721 25.029 L 47.592 25.74 L 46.98 26.205 L 47.105 26.411 L 46.902 26.29 L 46.666 26.579 L 46.205 27.565 L 45.89 27.928 L 46.397 27.83 L 46.388 27.946 L 46.407 28.185 L 46.8 28.185 L 46.77 28.423 L 46.787 28.754 L 47.075 28.754 L 47.075 28.552 L 46.886 28.672 L 46.964 28 L 47.105 27.777 L 46.55 27.906 L 46.808 27.733 L 46.358 27.42 L 46.645 27.239 L 47.075 27.235 L 47.075 27.476 L 47.46 27.803 L 47.487 27.616 L 47.506 27.377 L 47.266 27.377 L 47.314 27.189 L 47.536 27.212 L 47.64 26.952 L 47.362 26.952 L 47.362 26.667 L 47.17 26.667 L 47.17 26.476 L 47.563 26.714 L 47.842 26.334 L 48.033 26.667 L 48.309 26.667 L 48.309 26.497 L 48.789 26.376 L 48.673 26.193 L 48.845 26.193 L 48.959 26.302 L 48.644 26.667 L 48.309 26.667 L 48.309 26.857 L 48.109 26.857 L 47.813 26.562 L 47.726 26.651 L 48.136 27.216 L 47.755 27.599 L 47.64 27.49 L 47.64 27.711 L 48.033 27.711 L 47.917 27.519 L 48.424 27.519 L 48.882 27.155 L 48.454 27.071 L 49.074 27.045 L 49.18 26.762 L 49.736 26.762 L 50.078 26.418 L 50.27 26.627 L 50.346 26.841 L 51.227 26.429 L 51.465 25.86 L 51.437 25.578 L 51.657 25.955 L 51.694 26.003 L 52.306 25.7 L 52.479 25.23 L 53.197 25.262 L 53.359 25.246 L 53.1 24.923 L 53.444 25.053 L 53.598 25.053 L 53.502 25.433 L 53.338 25.433 L 53.338 25.719 L 53.807 25.719 L 53.807 25.45 L 53.569 25.352 L 54.247 25.339 L 54.458 25.131 L 54.85 25.257 L 54.85 25.414 L 54.573 25.523 L 54.573 25.3 L 54.334 25.551 L 54.573 25.639 L 54.573 25.791 L 54.239 25.908 L 53.998 26.019 L 54.112 25.714 L 53.807 25.834 L 53.807 26.001 L 53.618 26.001 L 52.919 26.714 L 53.081 26.572 L 53.359 26.802 L 53.598 26.476 L 53.819 26.476 L 53.713 26.301 L 53.903 26.179 L 53.903 26.571 L 54.199 26.571 L 54.075 26.769 L 54.305 27.039 L 54.199 27.284 L 54.191 26.952 L 54.112 26.952 L 53.807 27.067 L 53.807 27.33 L 53.636 27.33 L 53.3 26.998 L 53.912 26.938 L 53.856 26.636 L 53.589 26.546 L 53.702 26.837 L 53.054 26.912 L 52.879 26.739 L 52.632 26.892 L 53.197 27.133 L 52.994 27.142 L 52.994 27.507 L 53.148 27.413 L 53.148 27.584 L 53.032 27.695 L 52.755 27.592 L 52.87 27.231 L 52.106 27.354 L 52.106 27.142 L 51.426 27.142 L 50.824 27.448 L 50.499 27.729 L 50.289 27.598 L 50.021 27.825 L 49.543 27.707 L 49.543 27.898 L 49.866 27.898 L 49.637 28.127 L 49.408 27.898 L 49.265 27.898 L 49.37 28.177 L 48.731 28.455 L 48.012 28.766 L 47.64 28.793 L 47.64 28.942 L 47.17 28.942 L 47.17 29.194 L 47.784 29.12 L 47.506 29.321 L 47.68 29.323 L 48.195 29.158 L 48.721 28.994 L 48.808 28.66 L 48.959 28.757 L 49.754 28.516 L 50.001 27.946 L 50.059 28.012 L 50.778 27.877 L 50.778 27.742 L 52.402 27.779 L 52.593 27.979 L 53.368 27.709 L 53.474 27.813 L 53.054 27.921 L 52.938 28.363 L 53.062 28.565 L 53.243 28.565 L 53.243 28.279 L 53.032 28.279 L 53.291 28.032 L 53.618 27.906 L 53.618 27.413 L 53.807 27.528 L 54.573 27.323 L 54.458 26.859 L 54.754 26.74 L 54.754 26.56 L 54.487 26.286 L 54.286 26.286 L 54.286 26.098 L 54.526 26.076 L 54.649 26.091 L 55.568 25.817 L 55.626 25.987 L 56.294 25.905 L 56.553 25.644 L 56.437 25.533 L 56.897 25.355 L 57.222 24.957 L 57.222 24.722 L 57.04 25.029 L 56.543 24.934 L 56.639 24.58 L 56.466 24.474 L 56.466 24.296 L 56.752 24.296 L 56.752 24.048 L 56.104 24.123 L 56.208 24.412 L 55.79 24.188 L 55.558 24.382 L 55.137 24.351 L 55.137 24.188 L 55.52 24.309 L 55.52 24.123 L 56.073 23.93 L 56.168 24.029 L 56.752 23.901 L 56.646 23.726 L 56.848 23.726 L 56.848 23.431 L 57.04 23.554 L 56.885 23.773 L 56.83 24.296 L 56.992 24.296 L 57.222 24.066 L 57.222 24.296 L 57.528 24.296 L 57.421 24.013 L 57.882 23.897 L 58.13 24.042 L 57.765 23.63 L 58.139 23.63 L 58.388 23.867 L 58.254 23.63 L 58.665 23.63 L 58.57 23.252 L 58.742 23.252 L 58.742 23.441 L 58.942 23.441 L 58.829 23.063 L 59.42 23.063 L 59.354 22.635 L 59.908 22.675 L 60.301 22.397 L 59.403 22.481 L 59.403 22.325 L 59.832 22.196 L 60.685 22.135 L 61.018 22.113 L 61.018 21.828 L 61.208 21.828 L 61.208 22.05 L 60.893 22.399 L 61.114 22.399 L 61.114 22.228 L 61.641 22.097 L 61.936 21.778 L 61.859 21.544 L 61.658 21.544 L 61.772 21.823 L 61.361 22.109 L 61.295 22.044 L 61.411 21.828 L 61.353 21.825 L 61.208 21.737 L 61.075 21.649 L 61.18 21.54 L 61.42 21.823 L 61.411 21.828 L 61.42 21.828 L 61.42 21.823 Z M 48.856 29.265 L 48.798 29.207 L 48.548 29.306 L 48.911 29.323 L 48.856 29.265 Z M 28.514 29.178 L 28.571 29.039 L 29.194 28.658 L 28.985 28.658 L 28.304 29.115 L 28.198 29.006 L 28.198 29.197 L 28.324 29.323 L 28.458 29.323 L 28.514 29.178 Z M 42.715 29.229 L 42.715 29.038 L 42.63 29.038 L 42.514 29.229 L 42.715 29.229 Z M 73.918 29.121 L 73.582 28.679 L 73.467 28.862 L 73.075 28.327 L 72.743 28.532 L 72.675 28.754 L 73.019 28.87 L 73.765 29.218 L 73.918 29.121 Z M 75.075 28.849 L 75.44 28.849 L 75.44 28.658 L 75.075 28.658 L 74.959 28.959 L 74.988 29.178 L 75.075 28.849 Z M 27.329 28.939 L 27.53 28.746 L 27.53 28.565 L 27.451 28.565 L 26.879 29.132 L 27.119 29.132 L 27.329 28.939 Z M 46.971 29.132 L 47.085 28.942 L 46.886 28.942 L 46.886 29.132 L 46.971 29.132 Z M 132.365 29.132 L 132.25 28.942 L 132.059 28.942 L 132.173 29.132 L 132.365 29.132 Z M 131.905 28.917 L 131.58 28.736 L 131.456 28.859 L 131.724 29.025 L 131.905 28.917 Z M 53.377 28.814 L 53.551 28.687 L 53.321 28.544 L 52.976 28.86 L 52.889 28.609 L 52.748 28.742 L 52.87 28.942 L 53.205 28.942 L 53.377 28.814 Z M 45.719 28.629 L 45.698 28.54 L 45.966 28.442 L 45.851 28.754 L 46.272 28.738 L 46.034 28.645 L 46.32 28.099 L 46.32 28.036 L 45.872 27.999 L 45.43 28.468 L 45.413 28.918 L 45.737 28.715 L 45.719 28.629 Z M 120.565 28.639 L 120.509 28.516 L 120.497 28.88 L 120.611 28.765 L 120.565 28.639 Z M 27.807 28.849 L 27.922 28.658 L 27.731 28.658 L 27.615 28.849 L 27.807 28.849 Z M 46.54 28.695 L 46.626 28.446 L 46.377 28.529 L 46.292 28.778 L 46.54 28.695 Z M 118.976 28.754 L 118.976 28.565 L 118.785 28.565 L 118.785 28.754 L 118.976 28.754 Z M 56.723 28.754 L 56.964 28.468 L 56.572 28.468 L 56.466 28.631 L 56.592 28.754 L 56.723 28.754 Z M 52.574 28.754 L 52.574 28.565 L 52.383 28.565 L 52.383 28.754 L 52.574 28.754 Z M 30.714 28.658 L 30.773 28.565 L 30.618 28.577 L 30.237 28.742 L 30.656 28.754 L 30.714 28.658 Z M 40.431 28.637 L 40.431 28.565 L 40.151 28.565 L 40.151 28.747 L 40.431 28.637 Z M 131.103 28.455 L 130.784 28.276 L 130.155 27.984 L 129.946 28.054 L 130.576 28.374 L 130.807 28.374 L 131.14 28.742 L 131.407 28.636 L 131.103 28.455 Z M 47.592 28.565 L 47.536 28.468 L 47.123 28.471 L 47.412 28.657 L 47.66 28.658 L 47.592 28.565 Z M 31.806 28.446 L 31.806 28.188 L 31.336 28.402 L 31.422 28.546 L 31.806 28.446 Z M 54.095 28.468 L 54.095 28.279 L 53.894 28.279 L 54.01 28.468 L 54.095 28.468 Z M 72.589 28.468 L 72.589 28.279 L 72.397 28.279 L 72.397 28.468 L 72.589 28.468 Z M 45.841 28.374 L 45.841 28.173 L 46.034 28.291 L 46.034 28.374 L 45.841 28.374 Z M 57.213 28.374 L 57.317 28.206 L 56.801 28.107 L 57.165 28.374 L 57.213 28.374 Z M 67.197 28.374 L 67.08 28.185 L 66.794 28.185 L 66.906 28.374 L 67.197 28.374 Z M 72.493 28.136 L 72.616 28.279 L 72.972 28.279 L 72.972 28.089 L 72.769 28.089 L 72.569 27.503 L 72.216 27.597 L 72.216 27.463 L 72.437 27.235 L 72.303 27.235 L 71.929 27.471 L 71.548 27.235 L 71.366 27.235 L 71.69 27.616 L 71.939 27.616 L 71.823 27.8 L 72.149 28.3 L 72.379 27.993 L 72.493 28.136 Z M 52.766 28.279 L 52.766 28.089 L 52.574 28.089 L 52.574 28.279 L 52.766 28.279 Z M 118.596 28.279 L 118.596 28.089 L 118.394 28.089 L 118.519 28.279 L 118.596 28.279 Z M 57.557 27.726 L 57.404 27.692 L 56.934 27.811 L 57.051 27.994 L 57.231 27.994 L 57.116 27.806 L 57.413 27.806 L 57.394 27.946 L 57.421 28.136 L 57.711 27.758 L 57.557 27.726 Z M 53.778 27.883 L 53.732 27.758 L 53.713 28.123 L 53.826 28.005 L 53.778 27.883 Z M 44.121 28.089 L 45.038 27.354 L 45.89 26.266 L 46.932 25.167 L 46.98 24.958 L 46.8 24.958 L 46.596 25.339 L 46.369 25.339 L 46.596 25.112 L 46.596 24.841 L 46.282 25.102 L 46.55 24.634 L 46.99 24.271 L 46.877 23.798 L 47.335 23.914 L 47.449 23.79 L 47.229 23.521 L 47.412 23.393 L 47.65 22.843 L 47.439 22.706 L 47.849 22.418 L 47.64 22.292 L 47.64 22.152 L 48.492 21.212 L 48.471 21.022 L 48.625 20.644 L 48.901 20.315 L 49.044 20.401 L 49.161 19.838 L 49.944 18.982 L 49.793 18.982 L 50.134 18.604 L 49.916 18.604 L 49.916 18.428 L 50.203 18.141 L 50.203 17.785 L 50.794 17.18 L 50.968 17.18 L 50.968 17.269 L 50.604 17.986 L 50.479 18.413 L 50.681 18.413 L 50.681 18.212 L 50.844 18.316 L 50.968 17.57 L 51.177 17.437 L 51.054 17.959 L 51.244 17.892 L 51.676 17.037 L 52.154 17.086 L 51.865 16.883 L 52.106 16.783 L 52.106 16.613 L 51.943 16.613 L 51.254 17.275 L 51.17 17.275 L 51.227 16.811 L 50.958 16.712 L 50.499 16.888 L 50.22 17.419 L 49.866 17.798 L 49.276 18.65 L 48.566 19.41 L 48.128 19.979 L 47.525 21.116 L 47.314 21.501 L 46.014 23.44 L 45.841 23.548 L 45.841 23.935 L 45.489 24.435 L 45.354 24.816 L 45.27 25.23 L 44.418 26.67 L 44.121 27.377 L 44.044 27.664 L 43.923 28.089 L 44.121 28.089 Z M 32.521 27.836 L 32.511 27.584 L 32.292 27.509 L 32.083 27.898 L 32.38 27.898 L 32.263 28.089 L 32.521 28.089 L 32.521 27.836 Z M 67.817 27.733 L 67.866 27.566 L 68.064 27.036 L 68.372 27.171 L 68.983 27.256 L 68.983 27.084 L 68.763 26.857 L 68.983 26.857 L 68.983 26.571 L 68.754 26.568 L 69.031 26.391 L 68.572 25.908 L 68.276 25.899 L 67.606 25.518 L 68.181 25.652 L 68.562 25.657 L 68.889 26.031 L 68.889 25.839 L 68.495 25.339 L 68.659 25.339 L 69.387 25.542 L 69.74 25.161 L 70.455 25.266 L 70.695 25.561 L 70.821 25.435 L 71.098 25.829 L 71.433 25.741 L 71.652 26.211 L 71.939 26.099 L 72.292 26.286 L 72.379 25.955 L 72.522 26.382 L 72.733 26.394 L 73.402 26.473 L 73.019 26.177 L 72.169 25.682 L 71.709 25.246 L 71.45 25.246 L 71.45 24.879 L 71.214 24.77 L 71.459 24.654 L 71.241 24.389 L 71.078 24.389 L 70.665 24.059 L 70.285 23.63 L 70.064 23.63 L 69.844 23.408 L 70.246 23.204 L 70.227 23.016 L 69.462 22.845 L 69.462 22.633 L 69.127 22.421 L 68.513 22.287 L 68.513 22.495 L 68.927 23.126 L 69.606 23.432 L 68.983 23.441 L 68.983 23.254 L 68.209 23.129 L 68.114 22.885 L 67.702 22.91 L 67.578 23.092 L 66.613 23.059 L 66.613 23.252 L 66.347 23.252 L 66.048 23.666 L 66.269 23.923 L 66.507 23.83 L 66.403 24.12 L 65.521 24.079 L 65.283 24.104 L 65.283 24.384 L 65.579 24.273 L 65.981 24.629 L 65.876 24.199 L 66.105 24.199 L 66.613 24.435 L 66.613 24.665 L 66.384 24.807 L 66.946 25.046 L 66.707 25.053 L 66.707 25.246 L 67.138 25.259 L 66.889 25.355 L 66.564 25.208 L 66.384 25.189 L 65.981 24.966 L 65.839 25.102 L 65.904 24.822 L 65.473 24.757 L 65.473 24.958 L 64.996 24.958 L 65.274 25.488 L 65.081 25.829 L 65.178 26.193 L 64.717 26.305 L 64.728 26.429 L 64.958 26.74 L 65.684 26.94 L 65.579 26.667 L 65.856 26.667 L 66.239 26.903 L 66.422 26.62 L 66.433 26.974 L 66.688 26.752 L 66.812 26.952 L 66.613 26.952 L 66.613 27.146 L 66.985 26.952 L 67.08 26.952 L 66.966 27.284 L 66.794 27.394 L 67.023 27.898 L 67.758 27.898 L 67.817 27.733 Z M 28.58 27.806 L 28.58 27.616 L 28.284 27.616 L 28.399 27.806 L 28.58 27.806 Z M 116.738 27.653 L 116.797 27.503 L 116.797 27.43 L 116.511 27.539 L 116.511 27.806 L 116.68 27.806 L 116.738 27.653 Z M 33.039 27.604 L 33.039 27.424 L 32.521 27.424 L 32.896 27.692 L 33.039 27.604 Z M 55.482 27.355 L 55.424 27.297 L 55.308 27.412 L 55.452 27.653 L 55.538 27.413 L 55.482 27.355 Z M 116.549 27.308 L 116.653 27.239 L 116.223 27.235 L 116.223 27.49 L 116.368 27.627 L 116.444 27.377 L 116.549 27.308 Z M 58.082 27.375 L 58.197 27.231 L 58.082 27.117 L 57.796 27.231 L 57.796 27.519 L 57.958 27.519 L 58.082 27.375 Z M 42.237 27.424 L 42.237 27.131 L 42.045 27.248 L 42.15 27.424 L 42.237 27.424 Z M 50.203 27.33 L 50.203 27.142 L 50.012 27.142 L 50.012 27.33 L 50.203 27.33 Z M 115.946 27.33 L 115.946 27.158 L 115.83 26.877 L 115.468 26.972 L 115.468 27.133 L 115.802 27.324 L 115.946 27.33 Z M 33.46 26.94 L 33.401 26.857 L 33.155 26.857 L 33.039 27.142 L 32.704 27.155 L 33.084 27.304 L 33.507 27.026 L 33.46 26.94 Z M 50.816 27.178 L 50.968 27.119 L 50.968 26.857 L 51.149 26.857 L 51.17 27.095 L 51.331 26.714 L 51.339 26.571 L 51.093 26.571 L 50.778 26.919 L 50.92 27.075 L 50.73 26.967 L 50.355 27.235 L 50.664 27.235 L 50.816 27.178 Z M 72.12 27.235 L 72.12 27.014 L 71.997 27.141 L 71.737 26.929 L 71.737 27.125 L 71.977 27.221 L 72.12 27.235 Z M 76.346 27.09 L 76.156 26.952 L 75.956 26.952 L 75.678 26.571 L 75.457 26.571 L 75.227 26.286 L 74.959 26.286 L 74.959 26.464 L 75.305 26.573 L 75.678 26.912 L 76.433 27.226 L 76.529 27.23 L 76.346 27.09 Z M 67.77 27.142 L 67.644 26.952 L 67.845 26.952 L 67.845 27.142 L 67.77 27.142 Z M 51.99 26.667 L 52.392 26.29 L 52.908 26.159 L 52.354 26.012 L 51.58 26.762 L 51.437 26.762 L 51.437 27.045 L 51.58 27.044 L 51.99 26.667 Z M 58.79 26.691 L 58.904 26.544 L 59.105 26.67 L 59.222 26.483 L 58.981 26.098 L 58.6 26.103 L 58.294 26.334 L 57.968 26.976 L 58.686 26.84 L 58.79 26.691 Z M 52.402 26.952 L 52.709 26.64 L 52.748 26.386 L 52.411 26.565 L 52.306 26.952 L 52.402 26.952 Z M 117.81 26.553 L 117.762 26.429 L 117.745 26.793 L 117.858 26.678 L 117.81 26.553 Z M 43.978 26.524 L 43.923 26.382 L 43.758 26.489 L 43.642 26.193 L 43.471 26.193 L 43.471 26.56 L 43.806 26.645 L 44.034 26.667 L 43.978 26.524 Z M 57.413 26.456 L 57.413 26.286 L 57.051 26.286 L 56.723 26.162 L 57.059 26.549 L 57.413 26.456 Z M 54.267 26.411 L 54.392 26.363 L 54.507 26.476 L 54.142 26.462 L 54.267 26.411 Z M 50.441 26.462 L 50.193 26.363 L 51.063 25.942 L 50.929 25.813 L 51.149 25.813 L 51.149 26.098 L 50.778 26.098 L 50.778 26.376 L 50.462 26.254 L 50.595 26.476 L 50.441 26.462 Z M 58.407 26.462 L 58.953 26.265 L 59.163 26.476 L 58.407 26.462 Z M 55.126 26.476 L 55.243 26.286 L 54.937 26.286 L 55.051 26.476 L 55.126 26.476 Z M 55.969 26.324 L 55.912 26.266 L 55.664 26.368 L 56.026 26.382 L 55.969 26.324 Z M 64.623 26.276 L 64.623 26.098 L 64.337 26.098 L 64.337 26.255 L 64.462 26.377 L 64.623 26.276 Z M 74.5 26.001 L 74.608 26.001 L 74.876 26.334 L 74.682 25.929 L 74.396 25.82 L 74.302 25.985 L 74.434 26.334 L 74.5 26.001 Z M 62.578 26.073 L 62.51 25.86 L 62.348 25.798 L 62.348 25.55 L 61.965 25.452 L 61.583 25.551 L 61.896 25.908 L 62.367 25.908 L 62.271 26.286 L 62.645 26.286 L 62.578 26.073 Z M 36.834 26.193 L 36.834 26.001 L 36.643 26.001 L 36.643 26.193 L 36.834 26.193 Z M 31.326 26.098 L 31.469 26.005 L 31.278 26.015 L 30.905 26.177 L 31.183 26.19 L 31.326 26.098 Z M 48.348 26.051 L 48.165 25.912 L 48.692 25.908 L 48.692 26.086 L 48.53 26.187 L 48.348 26.051 Z M 59.966 25.866 L 59.881 25.775 L 59.546 26.119 L 59.966 25.866 Z M 49.81 25.961 L 50.134 25.813 L 50.453 25.813 L 50.49 25.299 L 50.635 25.171 L 51.054 25.041 L 51.054 25.221 L 50.653 25.327 L 50.757 25.599 L 50.539 25.821 L 50.92 25.695 L 50.499 26.006 L 49.965 25.986 L 49.496 26.107 L 49.81 25.961 Z M 47.842 26.098 L 47.726 25.908 L 48.033 25.908 L 47.917 26.098 L 47.842 26.098 Z M 59.316 26.098 L 59.335 25.908 L 59.383 25.719 L 59.403 25.528 L 59.851 25.528 L 60.081 24.773 L 60.446 24.577 L 60.339 24.296 L 59.995 24.296 L 59.926 24.131 L 59.451 24.006 L 59.803 24.247 L 60.119 24.469 L 59.975 24.61 L 59.633 24.296 L 59.335 24.296 L 59.222 24.595 L 59.222 24.755 L 59.497 25.041 L 59.222 25.326 L 59.222 25.446 L 58.971 25.686 L 58.693 25.798 L 59.239 25.813 L 59.122 26.098 L 59.316 26.098 Z M 33.334 26.098 L 33.257 25.86 L 32.999 25.86 L 32.923 26.098 L 33.334 26.098 Z M 32.617 25.857 L 32.896 25.618 L 33.084 25.441 L 33.325 25.148 L 33.084 25.155 L 32.75 25.406 L 32.75 25.623 L 32.482 25.623 L 32.38 25.908 L 32.09 25.908 L 32.09 26.098 L 32.339 26.098 L 32.617 25.857 Z M 57.547 25.873 L 57.528 25.721 L 57.702 25.821 L 57.702 25.528 L 57.939 25.523 L 57.603 25.328 L 57.603 25.053 L 57.404 25.053 L 57.519 25.408 L 57.03 25.721 L 57.03 26.084 L 57.557 26.025 L 57.547 25.873 Z M 71.861 25.937 L 72.024 25.893 L 72.264 25.987 L 71.69 25.981 L 71.861 25.937 Z M 75.908 25.886 L 75.908 25.813 L 75.533 25.813 L 75.533 25.985 L 75.908 25.886 Z M 40.526 25.908 L 40.526 25.719 L 40.344 25.719 L 40.344 25.908 L 40.526 25.908 Z M 54.782 25.829 L 54.669 25.648 L 55.558 25.527 L 55.843 25.813 L 55.616 25.813 L 55.616 25.61 L 55.281 25.708 L 54.782 25.829 Z M 55.987 25.813 L 55.987 25.623 L 56.181 25.623 L 56.181 25.813 L 55.987 25.813 Z M 75.058 25.794 L 75.058 25.629 L 74.635 25.404 L 74.523 25.235 L 74.109 25.203 L 74.195 24.972 L 73.736 24.674 L 73.335 24.674 L 73.011 24.497 L 72.733 24.671 L 73.114 24.677 L 72.886 24.822 L 73.544 25.461 L 74.032 25.719 L 74.407 25.719 L 74.272 25.48 L 74.577 25.765 L 75.058 25.794 Z M 58.351 25.339 L 58.351 25.197 L 58.187 25.578 L 58.179 25.765 L 58.36 25.48 L 58.351 25.339 Z M 49.448 25.582 L 49.686 25.44 L 49.866 25.433 L 49.686 25.602 L 49.208 25.726 L 49.448 25.582 Z M 61.871 25.719 L 61.871 25.528 L 62.07 25.528 L 61.956 25.719 L 61.871 25.719 Z M 51.62 25.623 L 51.733 25.433 L 52.086 25.433 L 52.211 25.246 L 52.372 25.246 L 52.269 25.623 L 51.62 25.623 Z M 34.54 25.623 L 34.835 25.025 L 34.835 24.755 L 34.54 25.053 L 34.367 25.053 L 34.367 25.623 L 34.54 25.623 Z M 61.114 25.518 L 60.846 25.246 L 60.636 25.246 L 60.636 24.92 L 60.406 25.163 L 60.96 25.613 L 61.114 25.518 Z M 35.572 25.471 L 35.515 25.414 L 35.265 25.514 L 35.63 25.528 L 35.572 25.471 Z M 115.468 25.528 L 115.468 25.453 L 115.18 25.345 L 115.18 25.528 L 115.468 25.528 Z M 69.28 25.433 L 69.166 25.246 L 69.462 25.246 L 69.462 25.433 L 69.28 25.433 Z M 49.256 25.339 L 49.256 25.148 L 49.55 25.148 L 49.437 25.339 L 49.256 25.339 Z M 56.046 25.258 L 55.998 25.174 L 56.466 25.265 L 56.466 25.339 L 56.094 25.339 L 56.046 25.258 Z M 67.274 25.339 L 67.388 25.148 L 67.471 25.148 L 67.471 25.339 L 67.274 25.339 Z M 49.81 25.246 L 49.935 25.053 L 50.012 25.053 L 50.012 25.246 L 49.81 25.246 Z M 55.414 25.246 L 55.531 25.053 L 55.616 25.053 L 55.616 25.246 L 55.414 25.246 Z M 42.142 25.148 L 42.381 25.074 L 41.778 25.053 L 41.654 25.246 L 41.903 25.224 L 42.142 25.148 Z M 54.927 25.084 L 55.051 25.034 L 55.166 25.148 L 54.802 25.134 L 54.927 25.084 Z M 51.913 25.148 L 51.913 24.991 L 52.03 24.877 L 52.306 24.987 L 52.057 25.146 L 51.913 25.148 Z M 63.675 25.148 L 63.675 24.958 L 63.486 24.958 L 63.486 25.148 L 63.675 25.148 Z M 50.691 24.904 L 50.691 24.722 L 50.794 24.97 L 50.681 25.084 L 50.691 24.904 Z M 56.008 25.053 L 55.883 24.865 L 56.073 24.865 L 56.188 25.053 L 56.008 25.053 Z M 35.124 25.053 L 35.124 24.97 L 34.932 24.853 L 34.932 25.053 L 35.124 25.053 Z M 73.496 25.04 L 73.727 24.943 L 73.966 25.04 L 73.496 25.04 Z M 61.411 24.934 L 61.353 24.63 L 61.047 24.569 L 60.923 24.881 L 61.018 25.035 L 61.411 24.934 Z M 49.927 24.809 L 49.935 24.629 L 50.029 24.874 L 49.916 24.991 L 49.927 24.809 Z M 77.258 24.815 L 77.265 24.722 L 76.241 24.113 L 75.831 24.104 L 75.697 23.887 L 75.956 24.045 L 75.688 23.679 L 75.312 23.252 L 74.5 23.252 L 74.414 23.016 L 74.187 23.236 L 74.311 23.441 L 74.559 23.441 L 74.789 23.715 L 75.486 23.939 L 75.87 24.256 L 76.433 24.534 L 77.084 24.962 L 77.258 24.905 L 77.258 24.815 Z M 63.122 24.865 L 63.58 24.865 L 63.58 24.653 L 63.103 24.773 L 63.103 24.58 L 62.634 24.58 L 62.634 24.73 L 62.863 24.962 L 63.122 24.865 Z M 72.255 24.902 L 72.397 24.844 L 72.397 24.722 L 71.786 24.741 L 71.594 24.773 L 71.881 24.957 L 72.102 24.958 L 72.255 24.902 Z M 55.09 24.886 L 55.414 24.544 L 55.531 24.658 L 55.09 24.886 Z M 51.054 24.886 L 51.054 24.58 L 51.339 24.58 L 51.339 24.314 L 51.637 24.202 L 51.532 24.029 L 51.962 24.146 L 51.629 24.214 L 51.629 24.469 L 51.865 24.564 L 51.523 24.58 L 51.054 24.886 Z M 54.754 24.865 L 54.754 24.674 L 54.954 24.674 L 54.84 24.865 L 54.754 24.865 Z M 59.028 24.865 L 59.02 24.722 L 58.779 24.401 L 58.294 24.28 L 57.652 24.609 L 58.407 24.845 L 59.028 24.865 Z M 62.061 24.674 L 62.061 24.58 L 61.754 24.58 L 61.859 24.311 L 61.574 24.199 L 61.373 24.199 L 61.574 24.435 L 61.574 24.619 L 61.918 24.757 L 62.061 24.77 L 62.061 24.674 Z M 46.865 24.77 L 46.971 24.494 L 46.695 24.6 L 46.695 24.77 L 46.865 24.77 Z M 55.616 24.674 L 55.616 24.485 L 55.912 24.485 L 55.79 24.674 L 55.616 24.674 Z M 66.66 24.659 L 66.898 24.564 L 67.138 24.659 L 66.66 24.659 Z M 50.871 24.622 L 50.871 24.306 L 51.071 24.183 L 51.188 24.299 L 50.871 24.622 Z M 50.203 24.58 L 50.203 24.487 L 50.528 24.104 L 50.72 24.104 L 51.149 23.692 L 51.149 24.01 L 50.968 24.01 L 50.595 24.342 L 50.308 24.58 L 50.203 24.58 Z M 56.944 24.58 L 56.944 24.496 L 56.752 24.378 L 56.752 24.58 L 56.944 24.58 Z M 69.939 24.485 L 69.939 24.412 L 70.216 24.3 L 70.216 24.485 L 69.939 24.485 Z M 47.689 24.162 L 47.917 23.935 L 48.165 23.848 L 47.993 23.679 L 47.907 23.916 L 47.592 23.916 L 47.372 24.389 L 47.46 24.389 L 47.689 24.162 Z M 42.993 24.389 L 42.993 24.199 L 42.917 24.199 L 42.793 24.389 L 42.993 24.389 Z M 72.877 24.389 L 72.877 24.214 L 72.321 23.822 L 72.216 23.822 L 72.216 23.998 L 72.608 24.121 L 72.501 24.389 L 72.877 24.389 Z M 37.303 24.079 L 37.448 24.026 L 37.017 24.01 L 37.024 24.342 L 37.16 24.133 L 37.303 24.079 Z M 69.511 24.293 L 69.796 24.108 L 69.978 24.108 L 69.702 24.293 L 69.511 24.293 Z M 61.067 24.037 L 61.122 23.63 L 60.741 23.63 L 60.846 23.896 L 60.435 24.18 L 60.685 24.274 L 61.067 24.037 Z M 57.89 24.199 L 57.89 24.01 L 57.702 24.01 L 57.702 24.199 L 57.89 24.199 Z M 52.106 24.015 L 52.249 23.918 L 52.057 23.911 L 52.411 23.703 L 52.565 23.957 L 52.527 23.983 L 51.962 24.111 L 52.106 24.015 Z M 52.794 24.041 L 52.956 23.997 L 52.956 23.726 L 53.148 23.726 L 53.148 24.104 L 52.623 24.083 L 52.794 24.041 Z M 60.166 24.104 L 60.166 23.916 L 59.966 23.916 L 60.081 24.104 L 60.166 24.104 Z M 57.165 24.01 L 57.059 23.905 L 57.153 23.535 L 57.317 23.535 L 57.317 24.01 L 57.165 24.01 Z M 72.092 23.953 L 72.033 23.896 L 71.786 23.995 L 72.149 24.01 L 72.092 23.953 Z M 38.19 23.867 L 38.249 23.726 L 37.676 23.726 L 37.789 23.918 L 37.973 23.81 L 37.973 24.01 L 38.134 24.01 L 38.19 23.867 Z M 54.727 23.919 L 54.802 23.84 L 55.463 23.702 L 55.232 23.982 L 54.64 23.998 L 54.727 23.919 Z M 53.884 23.756 L 54.01 23.705 L 54.123 23.822 L 53.759 23.805 L 53.884 23.756 Z M 51.408 23.759 L 51.339 23.693 L 51.339 23.566 L 51.809 23.353 L 51.943 23.565 L 51.589 23.822 L 51.465 23.822 L 51.408 23.759 Z M 47.726 23.822 L 47.842 23.63 L 47.64 23.63 L 47.64 23.822 L 47.726 23.822 Z M 55.634 23.756 L 55.796 23.712 L 55.796 23.576 L 56.562 23.548 L 56.562 23.703 L 56.131 23.819 L 55.472 23.799 L 55.634 23.756 Z M 48.769 23.376 L 49.092 23.156 L 48.826 23.156 L 48.214 23.532 L 48.214 23.737 L 48.454 23.592 L 48.769 23.376 Z M 72.053 23.528 L 72.102 23.33 L 71.852 23.429 L 71.498 23.163 L 71.357 23.156 L 71.357 23.349 L 71.977 23.726 L 71.997 23.726 L 72.053 23.528 Z M 57.519 23.642 L 57.394 23.56 L 57.585 23.442 L 57.688 23.726 L 57.652 23.723 L 57.519 23.642 Z M 54.478 23.726 L 54.478 23.535 L 54.678 23.535 L 54.553 23.726 L 54.478 23.726 Z M 60.214 23.629 L 60.474 23.532 L 60.243 23.263 L 60.454 22.872 L 60.264 22.872 L 59.955 23.339 L 60.081 23.54 L 59.86 23.488 L 59.765 23.726 L 59.966 23.726 L 60.214 23.629 Z M 69.367 23.726 L 69.367 23.554 L 69.749 23.652 L 69.749 23.726 L 69.367 23.726 Z M 36.548 23.54 L 36.778 23.358 L 36.643 23.221 L 36.307 23.6 L 36.039 23.511 L 36.173 23.726 L 36.307 23.723 L 36.548 23.54 Z M 63.84 23.499 L 63.878 23.463 L 63.295 23.048 L 63.295 23.179 L 63.007 22.942 L 62.739 23.17 L 62.825 23.441 L 62.901 23.704 L 63.801 23.535 L 63.84 23.499 Z M 75.152 23.63 L 75.152 23.431 L 75.344 23.548 L 75.344 23.63 L 75.152 23.63 Z M 59.633 23.476 L 59.717 23.227 L 59.469 23.31 L 59.383 23.56 L 59.633 23.476 Z M 66.613 23.535 L 66.613 23.378 L 67.1 23.156 L 67.186 23.156 L 67.186 23.346 L 66.898 23.346 L 66.898 23.535 L 66.613 23.535 Z M 62.531 23.535 L 62.645 23.346 L 62.337 23.346 L 62.454 23.535 L 62.531 23.535 Z M 60.827 23.431 L 60.827 23.252 L 60.541 23.252 L 60.541 23.412 L 60.663 23.531 L 60.827 23.431 Z M 38.202 23.521 L 37.973 23.424 L 37.733 23.521 L 38.202 23.521 Z M 57.03 23.441 L 57.03 23.261 L 57.27 23.117 L 56.801 22.987 L 57.308 22.969 L 57.652 22.525 L 57.89 22.605 L 57.89 22.113 L 58.13 22.132 L 58.6 22.285 L 58.351 22.303 L 58.082 22.574 L 58.082 22.689 L 58.418 22.506 L 58.647 22.643 L 58.351 23.063 L 58.082 23.063 L 58.082 22.872 L 57.595 22.872 L 57.711 23.063 L 57.432 23.063 L 57.337 23.441 L 57.03 23.441 Z M 54.01 23.212 L 54.112 22.984 L 54.526 22.874 L 54.802 22.884 L 54.342 23.067 L 54.561 23.282 L 54.85 23.037 L 54.85 22.767 L 55.032 22.879 L 54.945 23.118 L 54.401 23.441 L 53.912 23.441 L 54.01 23.212 Z M 52.03 23.281 L 52.202 23.239 L 52.202 22.842 L 52.324 22.972 L 52.354 23.346 L 51.865 23.326 L 52.03 23.281 Z M 55.51 23.346 L 55.626 23.156 L 55.424 23.156 L 55.424 22.879 L 55.137 22.987 L 55.137 22.863 L 55.52 22.456 L 55.52 22.745 L 55.901 22.719 L 56.122 22.492 L 56.505 22.492 L 56.285 22.274 L 55.998 22.509 L 55.796 22.381 L 56.017 22.117 L 56.181 22.219 L 56.181 21.924 L 56.275 21.924 L 56.646 22.24 L 56.437 22.624 L 56.082 23.001 L 56.082 23.271 L 55.79 23.159 L 55.912 23.346 L 55.51 23.346 Z M 61.658 23.101 L 61.603 23.041 L 61.353 23.143 L 61.715 23.156 L 61.658 23.101 Z M 74.76 23.156 L 74.884 22.969 L 74.587 22.969 L 74.587 23.156 L 74.76 23.156 Z M 71.26 23.156 L 71.26 22.969 L 71.078 22.969 L 71.078 23.156 L 71.26 23.156 Z M 66.363 22.848 L 66.422 22.635 L 66.105 22.399 L 65.619 22.395 L 65.341 22.217 L 65.312 21.97 L 65.283 21.734 L 65.006 21.734 L 65.006 21.567 L 65.265 21.349 L 65.619 21.481 L 65.253 21.069 L 64.767 21.067 L 64.996 20.922 L 64.632 20.694 L 64.528 20.864 L 64.146 20.762 L 63.647 21.258 L 63.504 21.258 L 62.699 20.976 L 62.405 20.976 L 62.777 21.253 L 62.337 21.258 L 62.454 21.449 L 62.156 21.449 L 62.156 21.66 L 62.624 21.571 L 62.825 22.16 L 62.501 22.394 L 62.25 22.185 L 62.25 22.587 L 62.69 22.587 L 62.94 22.823 L 63.027 22.587 L 63.295 22.587 L 63.247 22.363 L 63.58 22.288 L 63.58 22.678 L 64.077 22.488 L 64.709 22.407 L 64.996 22.689 L 65.619 22.73 L 65.741 22.904 L 66.231 22.587 L 66.316 22.587 L 66.211 22.977 L 65.951 22.879 L 65.951 23.063 L 66.307 23.063 L 66.363 22.848 Z M 61.871 23.063 L 61.871 22.643 L 61.658 22.856 L 61.793 23.063 L 61.871 23.063 Z M 73.975 22.816 L 73.784 22.682 L 74.157 22.398 L 73.823 22.513 L 73.823 22.248 L 74.053 22.018 L 73.736 22.018 L 73.536 21.639 L 73.306 21.653 L 73.536 21.748 L 73.536 22.113 L 73.727 22.113 L 73.564 22.54 L 74.053 23.06 L 74.157 22.952 L 73.975 22.816 Z M 49.505 22.969 L 49.736 22.739 L 49.736 22.586 L 49.352 22.822 L 49.352 22.969 L 49.505 22.969 Z M 52.574 22.872 L 52.574 22.769 L 52.994 22.208 L 53.235 22.208 L 53.166 22.785 L 53.023 22.92 L 53.157 22.509 L 52.929 22.369 L 53.054 22.571 L 52.938 22.872 L 52.574 22.872 Z M 67.522 22.78 L 67.454 22.682 L 67.749 22.682 L 67.749 22.492 L 68.047 22.492 L 67.942 22.311 L 67.664 22.418 L 67.502 21.987 L 67.377 22.303 L 67.568 22.303 L 67.568 22.576 L 67.339 22.717 L 67.262 22.485 L 66.993 22.706 L 66.993 22.576 L 66.804 22.695 L 66.889 22.833 L 67.578 22.88 L 67.522 22.78 Z M 74.376 22.616 L 74.396 22.361 L 74.13 22.727 L 74.216 22.872 L 74.349 22.872 L 74.376 22.616 Z M 74.837 22.797 L 74.951 22.725 L 74.789 22.457 L 74.491 22.703 L 74.595 22.872 L 74.72 22.87 L 74.837 22.797 Z M 67.092 22.492 L 67.092 22.409 L 66.898 22.292 L 66.898 22.492 L 67.092 22.492 Z M 58.771 22.332 L 58.932 22.287 L 59.173 22.383 L 58.6 22.375 L 58.771 22.332 Z M 51.101 22.301 L 51.389 22.117 L 51.101 22.117 L 50.824 22.301 L 51.101 22.301 Z M 63.916 22.113 L 63.857 22.018 L 64.011 22.019 L 64.288 22.206 L 63.972 22.208 L 63.916 22.113 Z M 50.794 22.101 L 50.833 21.996 L 51.817 21.899 L 51.817 21.734 L 52.097 21.734 L 52.336 21.355 L 52.497 21.355 L 53.368 20.737 L 53.702 20.419 L 54.239 20.074 L 54.526 19.849 L 55.329 19.187 L 55.491 19.125 L 55.616 18.604 L 55.232 18.604 L 54.859 18.973 L 54.296 19.266 L 53.474 19.812 L 52.766 20.065 L 52.766 20.194 L 53.425 19.967 L 53.559 19.835 L 53.998 19.835 L 53.998 20.012 L 53.07 20.319 L 52.383 20.986 L 51.532 21.364 L 51.532 21.66 L 52 21.355 L 52.202 21.355 L 52.192 21.498 L 51.685 21.734 L 51.369 21.734 L 50.691 22.016 L 50.577 22.208 L 50.757 22.208 L 50.794 22.101 Z M 57.222 22.132 L 57.222 21.946 L 57.603 21.848 L 57.711 22.018 L 57.528 22.018 L 57.222 22.132 Z M 59.028 22.018 L 59.173 21.927 L 59.316 21.924 L 59.316 22.113 L 58.885 22.11 L 59.028 22.018 Z M 55.692 22.046 L 55.814 21.999 L 55.93 22.113 L 55.568 22.097 L 55.692 22.046 Z M 59.955 21.954 L 60.081 21.904 L 60.194 22.018 L 59.832 22.003 L 59.955 21.954 Z M 58.082 21.924 L 58.082 21.734 L 58.79 21.753 L 58.311 21.907 L 58.082 21.924 Z M 56.466 21.924 L 56.466 21.734 L 56.678 21.734 L 56.592 21.271 L 56.723 21.047 L 56.934 21.17 L 56.717 21.64 L 56.858 21.775 L 56.992 21.555 L 57.519 21.355 L 57.796 21.355 L 57.796 21.52 L 57.03 21.641 L 57.03 21.924 L 56.466 21.924 Z M 73.067 21.924 L 73.067 21.639 L 72.781 21.639 L 72.781 21.796 L 72.904 21.924 L 73.067 21.924 Z M 48.692 21.924 L 48.692 21.84 L 48.501 21.723 L 48.501 21.924 L 48.692 21.924 Z M 65.856 21.715 L 65.856 21.355 L 65.645 21.355 L 65.752 21.615 L 65.521 21.84 L 65.856 21.715 Z M 55.126 21.828 L 55.243 21.639 L 55.329 21.639 L 55.329 21.828 L 55.126 21.828 Z M 59.431 21.766 L 59.316 21.718 L 59.316 21.544 L 59.594 21.544 L 59.594 21.828 L 59.546 21.814 L 59.431 21.766 Z M 66.842 21.73 L 66.613 21.506 L 66.613 21.702 L 66.745 21.828 L 66.842 21.73 Z M 66.526 21.481 L 66.393 21.13 L 66.259 21.498 L 66.354 21.655 L 66.526 21.481 Z M 58.197 21.523 L 57.986 21.421 L 57.986 21.267 L 58.264 21.375 L 58.264 21.08 L 58.426 20.983 L 59.268 20.878 L 59.028 20.99 L 59.135 21.162 L 58.58 21.051 L 58.455 21.25 L 59.144 21.38 L 58.837 21.555 L 58.657 21.448 L 58.54 21.639 L 58.407 21.627 L 58.197 21.523 Z M 56.313 21.25 L 56.255 21.155 L 55.987 21.378 L 55.987 21.552 L 56.379 21.345 L 56.313 21.25 Z M 59.813 21.544 L 59.813 21.269 L 59.975 21.365 L 59.975 21.544 L 59.813 21.544 Z M 39.845 21.544 L 40.085 21.255 L 39.77 21.375 L 39.77 21.544 L 39.845 21.544 Z M 54.661 21.205 L 54.553 21.08 L 54.286 21.183 L 54.286 21.339 L 54.526 21.421 L 54.763 21.331 L 54.661 21.205 Z M 65.666 21.069 L 65.666 20.878 L 65.473 20.878 L 65.473 21.069 L 65.666 21.069 Z M 59.688 20.976 L 59.688 20.79 L 59.975 20.901 L 59.975 20.976 L 59.688 20.976 Z M 55.098 20.74 L 55.281 20.602 L 54.975 20.596 L 54.734 20.878 L 54.907 20.878 L 55.098 20.74 Z M 65.503 20.256 L 65.572 20.138 L 66.001 20.229 L 65.645 19.946 L 65.253 20.09 L 65.111 20.49 L 65.427 20.374 L 65.503 20.256 Z M 56.026 20.201 L 56.026 20.212 L 55.758 20.421 L 56.035 20.341 L 56.026 20.212 L 56.035 20.2 L 56.026 20.201 Z M 57.824 20.253 L 58.093 20.11 L 58.311 20.201 L 57.986 20.215 L 57.986 20.404 L 57.557 20.398 L 57.824 20.253 Z M 56.026 20.201 L 56.017 20.112 L 55.987 19.885 L 56.188 20.215 L 56.562 20.215 L 56.562 20.007 L 56.198 19.912 L 56.294 19.646 L 56.131 19.655 L 55.386 20.313 L 56.026 20.201 Z M 61.965 20.309 L 61.965 20.122 L 61.687 20.122 L 61.687 20.309 L 61.965 20.309 Z M 57.567 20.125 L 57.375 20.061 L 57.603 19.922 L 57.786 20.032 L 57.977 19.694 L 57.986 20.003 L 57.747 20.193 L 57.567 20.125 Z M 61.17 19.882 L 61.143 19.642 L 60.97 19.646 L 60.97 19.821 L 60.827 19.963 L 60.827 20.122 L 61.199 20.122 L 61.17 19.882 Z M 58.904 19.873 L 58.847 19.816 L 58.6 19.916 L 58.962 19.931 L 58.904 19.873 Z M 62.263 19.931 L 62.147 19.743 L 62.711 19.743 L 62.835 19.931 L 62.263 19.931 Z M 62.271 19.553 L 62.367 19.173 L 62.444 19.173 L 62.444 19.553 L 62.271 19.553 Z M 49.313 19.128 L 49.467 18.888 L 49.543 18.888 L 49.543 19.127 L 49.151 19.369 L 49.313 19.128 Z M 58.064 19.299 L 58.187 19.246 L 58.303 19.361 L 57.939 19.349 L 58.064 19.299 Z M 44.311 19.361 L 44.427 19.173 L 44.13 19.173 L 44.13 19.361 L 44.311 19.361 Z M 57.508 19.173 L 57.508 18.982 L 57.68 18.982 L 58.033 18.873 L 57.661 19.173 L 57.508 19.173 Z M 42.898 18.813 L 42.898 18.65 L 42.715 18.936 L 42.715 19.088 L 42.898 18.972 L 42.898 18.813 Z M 57.775 18.728 L 57.9 18.677 L 58.015 18.792 L 57.652 18.779 L 57.775 18.728 Z M 59.067 18.539 L 59.122 18.424 L 58.808 18.251 L 59.335 18.121 L 59.442 18.23 L 59.001 18.65 L 59.067 18.539 Z M 49.63 18.604 L 49.745 18.413 L 49.829 18.413 L 49.829 18.604 L 49.63 18.604 Z M 48.872 17.834 L 48.872 17.594 L 49.304 17.195 L 49.543 16.904 L 49.543 16.771 L 49.981 16.184 L 50.116 15.948 L 49.927 15.948 L 49.408 16.755 L 48.901 17.419 L 48.384 18.368 L 48.872 17.834 Z M 49.637 18.011 L 49.637 17.822 L 49.352 18.056 L 49.352 18.248 L 49.637 18.011 Z M 59.497 18.193 L 59.546 18.146 L 59.926 18.081 L 60.081 17.892 L 60.005 18.178 L 59.451 18.241 L 59.497 18.193 Z M 71.929 18.035 L 71.929 17.845 L 71.737 17.845 L 71.737 18.035 L 71.929 18.035 Z M 64.717 17.94 L 64.717 17.766 L 64.479 17.681 L 64.623 17.525 L 64.85 17.748 L 65.054 17.743 L 64.603 17.369 L 64.356 17.369 L 64.262 17.132 L 63.981 17.475 L 64.077 17.834 L 64.574 17.912 L 64.717 17.94 Z M 58.36 17.922 L 58.36 17.748 L 58.283 17.748 L 58.158 17.94 L 58.331 17.94 L 58.322 17.931 L 58.36 17.922 Z M 60.579 17.652 L 60.685 17.642 L 60.75 17.892 L 60.579 17.652 Z M 60.579 17.652 L 60.549 17.656 L 60.541 17.845 L 60.071 17.845 L 60.071 17.748 L 60.071 17.656 L 60.541 17.656 L 60.549 17.656 L 60.549 17.607 L 60.579 17.652 Z M 44.359 17.605 L 44.418 17.463 L 44.034 17.661 L 44.034 17.748 L 44.302 17.748 L 44.359 17.605 Z M 44.696 17.18 L 44.809 16.991 L 44.609 16.991 L 44.609 17.18 L 44.696 17.18 Z M 61.896 17.024 L 61.772 16.975 L 61.772 16.822 L 62.25 16.732 L 62.25 17.086 L 62.012 17.071 L 61.896 17.024 Z M 45.316 16.74 L 45.374 16.585 L 45.038 16.844 L 44.953 16.897 L 45.248 16.897 L 45.316 16.74 Z M 61.373 16.801 L 61.612 16.516 L 61.305 16.516 L 61.305 16.801 L 61.373 16.801 Z M 51.532 16.59 L 51.532 16.516 L 51.244 16.516 L 51.244 16.701 L 51.532 16.59 Z M 46.128 16.505 L 46.128 16.327 L 45.937 16.327 L 45.937 16.622 L 46.128 16.505 Z M 51.045 15.661 L 50.462 16.234 L 50.577 16.353 L 50.901 16.092 L 50.757 16.516 L 50.947 16.516 L 51.006 16.335 L 51.063 16.155 L 51.339 16.048 L 51.339 15.853 L 51.13 15.901 L 51.045 15.661 L 51.063 15.648 L 51.034 15.615 L 51.045 15.661 Z M 50.193 16.422 L 50.701 15.559 L 50.586 15.44 L 50.539 15.521 L 50.145 16.088 L 50.021 16.422 L 50.193 16.422 Z M 52.171 16.271 L 52.116 16.212 L 51.865 16.311 L 52.23 16.327 L 52.171 16.271 Z M 47.075 16.035 L 47.075 15.974 L 46.608 16.065 L 46.702 16.231 L 47.075 16.035 Z M 47.83 16.231 L 47.83 15.948 L 47.545 15.948 L 47.545 16.122 L 47.784 16.218 L 47.83 16.231 Z M 47.83 15.567 L 48.358 15.248 L 48.596 14.962 L 48.596 14.81 L 48.405 14.81 L 48.405 15.045 L 47.64 15.478 L 47.64 15.662 L 47.362 15.662 L 47.362 15.874 L 47.83 15.567 Z M 51.063 15.648 L 51.17 15.742 L 51.62 15.35 L 51.532 15.198 L 51.063 15.648 Z M 47.258 15.662 L 47.381 15.46 L 47.296 15.372 L 47.045 15.662 L 47.258 15.662 Z M 53.894 15.662 L 54.01 15.472 L 53.819 15.472 L 53.702 15.662 L 53.894 15.662 Z M 61.496 15.379 L 61.496 15.294 L 61.305 15.178 L 61.305 15.379 L 61.496 15.379 Z M 54.661 15.082 L 54.661 14.911 L 54.38 15.019 L 54.487 15.191 L 54.661 15.082 Z M 49.161 14.997 L 49.304 14.906 L 48.978 14.904 L 48.862 15.093 L 49.015 15.091 L 49.161 14.997 Z M 62.415 14.429 L 62.604 14.429 L 62.825 13.934 L 63.391 14.046 L 63.391 13.875 L 63.149 13.768 L 63.391 13.654 L 63.391 13.277 L 62.979 13.337 L 62.91 13.124 L 63.475 13.152 L 63.611 13.292 L 63.865 13.292 L 63.865 13.081 L 63.597 13.182 L 63.486 13.07 L 63.81 12.709 L 63.534 12.534 L 63.865 12.532 L 63.865 12.454 L 63.991 12.126 L 63.439 12.262 L 63.305 12.484 L 63.399 12.819 L 63.189 12.819 L 62.624 13.236 L 63.131 13.664 L 62.654 13.88 L 62.415 14.335 L 62.099 14.335 L 61.871 14.562 L 61.871 14.743 L 62.224 14.429 L 62.415 14.429 Z M 55.424 14.715 L 55.424 14.524 L 55.232 14.524 L 55.232 14.715 L 55.424 14.715 Z M 52.249 14.391 L 52.527 14.162 L 52.422 14.058 L 51.817 14.428 L 51.817 14.618 L 51.962 14.617 L 52.249 14.391 Z M 49.637 14.618 L 49.637 14.429 L 49.448 14.429 L 49.448 14.618 L 49.637 14.618 Z M 62.242 13.861 L 62.444 13.861 L 62.444 13.659 L 62.012 13.788 L 61.946 13.846 L 62.089 14.286 L 62.242 13.861 Z M 52.287 13.861 L 52.287 13.776 L 52.116 13.667 L 52 13.861 L 52.287 13.861 Z M 67.845 13.861 L 67.845 13.776 L 67.654 13.661 L 67.654 13.861 L 67.845 13.861 Z M 66.898 12.724 L 66.898 12.456 L 66.488 12.563 L 66.851 12.709 L 66.898 12.724 Z M 69.74 12.724 L 69.853 12.532 L 69.547 12.532 L 69.662 12.724 L 69.74 12.724 Z M 64.462 12.437 L 64.414 12.249 L 64.262 12.249 L 64.327 12.579 L 64.337 12.627 L 64.508 12.627 L 64.462 12.437 Z M 54.478 12.238 L 54.478 12.047 L 54.286 12.164 L 54.286 12.354 L 54.478 12.238 Z M 67.282 12.342 L 67.282 12.152 L 67.092 12.152 L 67.092 12.342 L 67.282 12.342 Z M 64.337 12.062 L 64.479 11.972 L 64.384 11.883 L 64.021 12.152 L 64.193 12.151 L 64.337 12.062 Z M 67.216 11.918 L 67.274 11.781 L 67.092 11.668 L 67.092 12.058 L 67.166 12.058 L 67.216 11.918 Z M 66.095 11.791 L 66.038 11.739 L 65.81 11.973 L 66.153 11.846 L 66.095 11.791 Z M 63.972 11.794 L 63.848 11.751 L 63.647 11.952 L 64.097 11.836 L 63.972 11.794 Z M 64.452 11.553 L 64.241 11.335 L 64.241 11.175 L 64.623 11.52 L 64.755 11.385 L 64.479 11.209 L 64.717 11.205 L 64.717 10.92 L 64.909 10.92 L 64.909 10.729 L 64.528 10.729 L 64.528 11.111 L 63.981 11.111 L 63.857 11.423 L 63.916 11.479 L 64.479 11.771 L 64.651 11.773 L 64.452 11.553 Z M 68.325 11.354 L 68.325 11.245 L 68.095 11.014 L 67.894 11.016 L 68.181 11.202 L 67.942 11.205 L 67.942 11.383 L 68.325 11.354 Z M 65.15 11.25 L 65.217 10.778 L 64.814 11.138 L 64.814 11.313 L 65.15 11.25 Z M 67.845 11.111 L 67.845 10.931 L 67.654 10.815 L 67.654 11.111 L 67.845 11.111 Z M 59.222 9.99 L 59.222 9.895 L 58.847 9.99 L 58.742 10.271 L 58.847 10.449 L 59.222 9.99 Z M 65.81 10.439 L 65.444 10.163 L 65.36 10.244 L 65.485 10.446 L 65.81 10.439 Z M 67.654 10.446 L 67.654 10.286 L 67.55 10.174 L 67.262 10.283 L 67.522 10.443 L 67.654 10.446 Z M 66.239 10.255 L 66.239 10.072 L 65.951 10.179 L 65.951 10.255 L 66.239 10.255 Z M 65.761 9.83 L 65.761 9.638 L 65.588 9.907 L 65.274 9.593 L 65.197 9.593 L 65.197 9.681 L 65.608 10.067 L 65.761 9.83 Z M 65.761 9.496 L 65.761 9.316 L 65.558 9.192 L 65.456 9.296 L 65.579 9.496 L 65.761 9.496 Z M 66.143 9.496 L 66.143 9.223 L 65.943 9.098 L 65.839 9.205 L 65.943 9.496 L 66.143 9.496 Z M 60.729 8.912 L 60.865 8.868 L 60.673 8.745 L 60.254 9.035 L 60.387 9.242 L 60.587 8.958 L 60.729 8.912 Z M 65.379 9.117 L 65.379 8.928 L 65.197 8.928 L 65.197 9.117 L 65.379 9.117 Z M 92.795 8.928 L 92.795 8.854 L 92.499 8.741 L 92.622 8.928 L 92.795 8.928 Z M 69.633 8.72 L 69.596 8.609 L 69.367 8.532 L 69.482 8.833 L 69.662 8.833 L 69.633 8.72 Z M 64.825 7.982 L 65.006 7.982 L 65.006 7.789 L 64.85 7.789 L 64.479 8.089 L 64.825 7.982 Z M 67.282 7.883 L 67.282 7.694 L 66.889 7.694 L 67.006 7.883 L 67.282 7.883 Z M 59.556 7.736 L 59.736 7.588 L 59.268 7.816 L 59.183 7.883 L 59.374 7.883 L 59.556 7.736 Z M 62.539 7.789 L 63.486 7.268 L 63.58 7.003 L 63.504 6.92 L 63.103 7.135 L 63.208 7.315 L 62.711 7.315 L 62.186 7.689 L 62.031 7.551 L 62.164 7.789 L 62.539 7.789 Z M 67.568 7.789 L 67.568 7.451 L 67.186 7.451 L 67.186 7.59 L 67.522 7.783 L 67.568 7.789 Z M 63.179 6.742 L 63.486 6.466 L 63.486 6.352 L 62.874 6.485 L 62.72 6.746 L 62.517 6.746 L 62.164 7.172 L 62.156 7.422 L 62.874 7.019 L 63.179 6.742 Z M 68.889 7.315 L 68.889 7.019 L 68.707 7.137 L 68.707 7.315 L 68.889 7.315 Z M 68.478 7.075 L 68.535 6.927 L 68.449 6.84 L 68.104 7.221 L 68.419 7.221 L 68.478 7.075 Z M 69.462 5.987 L 69.462 5.904 L 69.272 5.786 L 69.272 5.987 L 69.462 5.987 Z M 72.197 5.614 L 72.102 5.335 L 71.834 5.108 L 71.834 5.781 L 72.072 5.879 L 72.292 5.895 L 72.197 5.614 Z M 69.873 5.231 L 69.835 5.186 L 69.654 5.465 L 69.654 5.645 L 69.92 5.276 L 69.873 5.231 Z M 68.794 5.321 L 68.794 5.134 L 69.185 5.134 L 69.069 4.944 L 68.592 4.944 L 68.715 5.134 L 68.513 5.134 L 68.513 5.321 L 68.794 5.321 Z M 70.676 4.507 L 70.715 4.328 L 70.483 4.548 L 70.216 4.449 L 70.216 4.842 L 70.647 4.687 L 70.676 4.507 Z M 64.785 4.318 L 64.728 4.259 L 64.479 4.36 L 64.843 4.375 L 64.785 4.318 Z M 72.578 4.09 L 72.695 3.9 L 72.493 3.9 L 72.493 4.09 L 72.578 4.09 Z M 71.249 4.09 L 71.374 3.9 L 71.164 3.9 L 71.164 4.09 L 71.249 4.09 Z M 71.641 3.711 L 71.641 3.622 L 71.214 3.396 L 71.481 3.711 L 71.641 3.711 Z M 71.508 2.503 L 71.45 2.445 L 71.336 2.559 L 71.488 2.801 L 71.567 2.56 L 71.508 2.503 Z M 71.154 2.394 L 71.28 2.314 L 71.002 2.206 L 70.886 2.319 L 70.886 2.478 L 71.03 2.473 L 71.154 2.394 Z" style="fill: url(#_Linear4); fill-rule: nonzero;"/>
</svg>