<svg xmlns="http://www.w3.org/2000/svg" viewBox="0 0 109 33.2"><defs><linearGradient id="a" x1="-76.39" x2="-75.39" y1="-8.94" y2="-8.94" gradientTransform="matrix(0 61.39 -61.39 0 -494.1 4690.61)" gradientUnits="userSpaceOnUse"><stop offset="0" stop-color="#400e89"/><stop offset="1" stop-color="#0e8985"/></linearGradient></defs><path fill="url(#a)" fill-rule="evenodd" d="M0 33.2s4-2 4.6-3.2 1.9-.5 2.6-.9 2.5-.7 3.2-1.4.5-2 1-2.4 1.5-.1 2.3-.3 3 .2 3.7 0a14.75 14.75 0 012.9-.1c.5-.1 1.1-1.2 2.7-2a19.53 19.53 0 003.4-2.3 18.49 18.49 0 013.1-1.6c.6-.2.7-1.2 1.8-2.8s1.9-3 2.4-3.7 1.5-2.2 2-2.2 1.8 3 2.2 4a6.37 6.37 0 001.2 2.2c.5.5 1.5 4.7 2.5 3.9a12.43 12.43 0 002.2-2.7 36 36 0 015.4-5.7c2.2-1.7 2.3-1.9 3-3.1A16.31 16.31 0 0154 6.3a27.22 27.22 0 002-3.5c.6-1.1 1.8-2.7 2.4-2.8s1 1.2 1.6 2.1a18.29 18.29 0 011.4 2.8c.4.8 1.5 2.8 1.9 3.4s.1 1.6.5 1.9 0 2 1.2 2.4 1.5.5 1.7.8.6 2 1.3 2.6 1.7 3.5 2.6 3.5 2-.8 2.7-2.5a10.82 10.82 0 011.4-3.2c.7-1 2.9-3.6 3.9-3.4A8.4 8.4 0 0182 13c.7.9 1.2 1.5 1.6.9a1.08 1.08 0 011.7-.2c.6.5 2.3 3.5 4.2 4.4s1.7 1.1 3 1.2 1.9-.3 2.2.2-.2.9.3 1.6a3.72 3.72 0 002.4 1.5c1.1.2 1.8.5 2.6 0s1.2-.4 1.9.6a42.78 42.78 0 007.1 6.9v3L0 33.2z"/></svg>