<?xml version="1.0" encoding="utf-8"?>
<!-- Generator: Adobe Illustrator 24.1.2, SVG Export Plug-In . SVG Version: 6.00 Build 0)  -->
<svg version="1.1" id="Layer_1" xmlns="http://www.w3.org/2000/svg" xmlns:xlink="http://www.w3.org/1999/xlink" x="0px" y="0px"
	 viewBox="0 0 37.7 14.2" style="enable-background:new 0 0 37.7 14.2;" xml:space="preserve">
<style type="text/css">
	.st0{fill:url(#SVGID_1_);}
	.st1{fill:url(#SVGID_2_);}
	.st2{fill:url(#SVGID_3_);}
</style>
<g>
	
		<linearGradient id="SVGID_1_" gradientUnits="userSpaceOnUse" x1="-114.6932" y1="209.9645" x2="-113.6932" y2="209.9645" gradientTransform="matrix(3.759329e-15 61.3947 61.3947 -3.759329e-15 -12857.9863 7046.2993)">
		<stop  offset="0" style="stop-color:#400E89"/>
		<stop  offset="1" style="stop-color:#0E8985"/>
	</linearGradient>
	<path class="st0" d="M27.8,11.7l1.1-2.8H32l-1.5-4.2L32.4,0l5.3,14.2h-3.9l-0.9-2.5H27.8"/>
	
		<linearGradient id="SVGID_2_" gradientUnits="userSpaceOnUse" x1="-114.6932" y1="209.7556" x2="-113.6932" y2="209.7556" gradientTransform="matrix(3.759329e-15 61.3947 61.3947 -3.759329e-15 -12857.9863 7046.2993)">
		<stop  offset="0" style="stop-color:#400E89"/>
		<stop  offset="1" style="stop-color:#0E8985"/>
	</linearGradient>
	<path class="st1" d="M24.4,14.2L30.1,0h-3.8l-3.9,9.2L19.6,0h-2.9l-3,9.2L11.6,5l-1.9,5.9l1.9,3.3h3.7L18.1,6l2.6,8.2H24.4"/>
	
		<linearGradient id="SVGID_3_" gradientUnits="userSpaceOnUse" x1="-114.6932" y1="209.5139" x2="-113.6932" y2="209.5139" gradientTransform="matrix(3.759329e-15 61.3947 61.3947 -3.759329e-15 -12857.9863 7046.2993)">
		<stop  offset="0" style="stop-color:#400E89"/>
		<stop  offset="1" style="stop-color:#0E8985"/>
	</linearGradient>
	<path class="st2" d="M3.6,9.3h2.3c0.7,0,1.3-0.1,1.9-0.2l0.6-1.9L10.1,2C10,1.8,9.8,1.6,9.7,1.4C8.8,0.5,7.5,0,5.9,0H0v14.2h3.6
		L3.6,9.3L3.6,9.3z M6.7,3.3C7,3.6,7.2,4.1,7.2,4.6c0,0.6-0.1,1-0.4,1.4C6.4,6.4,5.8,6.6,5,6.6H3.6V2.8H5C5.8,2.8,6.4,2.9,6.7,3.3"
		/>
</g>
</svg>
