<svg id="Layer_1" data-name="Layer 1" xmlns="http://www.w3.org/2000/svg" viewBox="0 0 41.38 7.54"><defs><style>.cls-1{isolation:isolate;}.cls-2{fill:#3d3d3d;}</style></defs><g class="cls-1"><path class="cls-2" d="M3.77.58V.08h.89V2.29H3.77v-.5A1.76,1.76,0,0,0,2.22.94a1.51,1.51,0,0,0-.92.24.8.8,0,0,0-.32.7.77.77,0,0,0,.3.66,2.75,2.75,0,0,0,.93.39l.86.22a3.39,3.39,0,0,1,1.25.58,1.67,1.67,0,0,1,.58.76,3.15,3.15,0,0,1,.13.9A2.06,2.06,0,0,1,4.41,7a2.32,2.32,0,0,1-1.66.58A2.65,2.65,0,0,1,.94,6.82v.6H0V4.76H.94v.65a1.94,1.94,0,0,0,1.71,1.2,1.35,1.35,0,0,0,1-.32,1.15,1.15,0,0,0,.34-.89c0-.53-.37-.89-1.11-1.09l-.91-.26A3.29,3.29,0,0,1,.47,3.29,1.74,1.74,0,0,1,0,2,1.94,1.94,0,0,1,.57.53,2.23,2.23,0,0,1,2.14,0,2.6,2.6,0,0,1,3.77.58Z"/><path class="cls-2" d="M7.6,1V4.75A2.24,2.24,0,0,0,8,6.19a1.32,1.32,0,0,0,1.1.46A1.4,1.4,0,0,0,10.2,6.2a2.17,2.17,0,0,0,.39-1.44V1H9.73V.12h2.86V1h-.91V4.86a2.77,2.77,0,0,1-.66,2,2.6,2.6,0,0,1-1.94.68,2.55,2.55,0,0,1-1.94-.68A2.89,2.89,0,0,1,6.5,4.8V1H5.6V.12H8.46V1Z"/><path class="cls-2" d="M19.47.12H22V1h-.89V6.51H22v.91H19.25V6.51h.86V1L17.6,7.5h-.22L14.89,1V6.51h.81v.91H13.11V6.51H14V1h-.88V.12h2.5l1.92,5Z"/><path class="cls-2" d="M29,.12H31.5V1h-.88V6.51h.88v.91H28.75V6.51h.87V1L27.11,7.5h-.22L24.4,1V6.51h.8v.91H22.61V6.51h.89V1h-.89V.12h2.51l1.92,5Z"/><path class="cls-2" d="M34,1V6.51h.79v.91H32.13V6.51h.79V1h-.79V.12h2.69V1Z"/><path class="cls-2" d="M40.48,2.79V1H39V6.51h1v.91h-3V6.51h.93V1H36.38V2.79h-.91V.12h5.91V2.79Z"/></g></svg>