<svg xmlns="http://www.w3.org/2000/svg" viewBox="0 0 37.772 37.772"><path id="twitter-circle" d="M18.886 37.772A18.886 18.886 0 0 1 0 18.886 18.886 18.886 0 0 1 18.041.019V0h.845a18.887 18.887 0 0 1 18.886 18.886 18.887 18.887 0 0 1-18.886 18.886Z" fill-rule="evenodd"/><path id="twitter-bird" d="M27.177 12.999a5.2 5.2 0 0 0 1.648-2.238 8.8 8.8 0 0 1-2.665.792 4.4 4.4 0 0 0-7.615 4.113h-.034c-6.51-.447-9.155-4.625-9.155-4.625a5.352 5.352 0 0 0 1 5.913 2.621 2.621 0 0 1-1.49-.38s-.544 2.821 3.009 4.34a4.907 4.907 0 0 1-1.553.169 4.75 4.75 0 0 0 4.021 3s-1.329 1.682-5.968 2.007a12.366 12.366 0 0 0 18.8-10.058l2.218-3.545Z" fill-rule="evenodd"/></svg>